<svg width="640" height="340" viewBox="0 0 640 340" fill="none" xmlns="http://www.w3.org/2000/svg">
<g filter="url(#filter0_di_2161_2391)">
<g clip-path="url(#clip0_2161_2391)">
<rect x="81" y="45" width="479" height="249" rx="6" fill="black" fill-opacity="0.33"/>
<rect x="81" y="45" width="479" height="249" rx="6" fill="#2B2B2B"/>
<rect x="414" y="45" width="146" height="301" fill="black" fill-opacity="0.17"/>
<rect x="460" y="87" width="201" height="48" rx="8" fill="white"/>
<path d="M512.792 106.906H517.132C517.795 106.906 518.369 107.037 518.854 107.298C519.339 107.55 519.713 107.914 519.974 108.39C520.245 108.857 520.38 109.398 520.38 110.014C520.38 110.602 520.245 111.134 519.974 111.61C519.713 112.077 519.335 112.445 518.84 112.716C518.355 112.987 517.785 113.122 517.132 113.122H514.668V117H512.792V106.906ZM516.852 111.47C517.356 111.47 517.753 111.339 518.042 111.078C518.331 110.807 518.476 110.453 518.476 110.014C518.476 109.575 518.331 109.225 518.042 108.964C517.753 108.693 517.356 108.558 516.852 108.558H514.668V111.47H516.852ZM525.785 111.344C525.561 111.288 525.328 111.26 525.085 111.26C524.721 111.26 524.39 111.367 524.091 111.582C523.802 111.797 523.564 112.137 523.377 112.604C523.2 113.061 523.111 113.635 523.111 114.326V117H521.347V109.734H523.111V111.064C523.27 110.653 523.559 110.313 523.979 110.042C524.408 109.762 524.847 109.622 525.295 109.622C525.51 109.622 525.673 109.636 525.785 109.664V111.344ZM526.707 109.734H528.471V117H526.707V109.734ZM528.555 106.794V108.642H526.637V106.794H528.555ZM530.001 109.734H531.765V110.868C531.971 110.485 532.251 110.182 532.605 109.958C532.96 109.734 533.38 109.622 533.865 109.622C534.444 109.622 534.925 109.743 535.307 109.986C535.69 110.219 535.965 110.555 536.133 110.994C536.339 110.602 536.651 110.275 537.071 110.014C537.501 109.753 537.991 109.622 538.541 109.622C539.055 109.622 539.507 109.725 539.899 109.93C540.291 110.135 540.59 110.425 540.795 110.798C541.01 111.171 541.117 111.596 541.117 112.072V117H539.353V112.562C539.353 112.114 539.237 111.764 539.003 111.512C538.77 111.251 538.443 111.12 538.023 111.12C537.519 111.12 537.127 111.321 536.847 111.722C536.577 112.114 536.441 112.641 536.441 113.304V117H534.677V112.562C534.677 112.114 534.561 111.764 534.327 111.512C534.094 111.251 533.767 111.12 533.347 111.12C533.021 111.12 532.736 111.213 532.493 111.4C532.251 111.587 532.069 111.843 531.947 112.17C531.826 112.497 531.765 112.879 531.765 113.318V117H530.001V109.734ZM544.749 117.112C544.264 117.112 543.83 117.023 543.447 116.846C543.065 116.669 542.761 116.421 542.537 116.104C542.323 115.777 542.215 115.413 542.215 115.012C542.215 114.377 542.435 113.869 542.873 113.486C543.312 113.094 543.937 112.847 544.749 112.744L546.205 112.548C546.392 112.52 546.537 112.459 546.639 112.366C546.742 112.263 546.793 112.133 546.793 111.974C546.793 111.694 546.667 111.461 546.415 111.274C546.163 111.087 545.832 110.994 545.421 110.994C545.011 110.994 544.67 111.097 544.399 111.302C544.138 111.507 543.993 111.792 543.965 112.156H542.257C542.313 111.643 542.477 111.195 542.747 110.812C543.018 110.429 543.377 110.135 543.825 109.93C544.283 109.725 544.815 109.622 545.421 109.622C546.056 109.622 546.607 109.739 547.073 109.972C547.549 110.196 547.913 110.523 548.165 110.952C548.427 111.372 548.557 111.867 548.557 112.436V114.998C548.557 115.194 548.59 115.343 548.655 115.446C548.73 115.539 548.847 115.586 549.005 115.586C549.089 115.577 549.169 115.567 549.243 115.558V117C548.954 117.056 548.674 117.084 548.403 117.084C548.021 117.084 547.703 116.995 547.451 116.818C547.209 116.641 547.064 116.384 547.017 116.048C546.859 116.375 546.574 116.636 546.163 116.832C545.762 117.019 545.291 117.112 544.749 117.112ZM545.043 115.768C545.603 115.768 546.042 115.591 546.359 115.236C546.677 114.881 546.835 114.424 546.835 113.864V113.654L545.043 113.948C544.689 114.004 544.423 114.116 544.245 114.284C544.068 114.443 543.979 114.657 543.979 114.928C543.979 115.18 544.077 115.385 544.273 115.544C544.469 115.693 544.726 115.768 545.043 115.768ZM554.605 111.344C554.381 111.288 554.148 111.26 553.905 111.26C553.541 111.26 553.21 111.367 552.911 111.582C552.622 111.797 552.384 112.137 552.197 112.604C552.02 113.061 551.931 113.635 551.931 114.326V117H550.167V109.734H551.931V111.064C552.09 110.653 552.379 110.313 552.799 110.042C553.229 109.762 553.667 109.622 554.115 109.622C554.33 109.622 554.493 109.636 554.605 109.664V111.344ZM554.812 109.734H556.758L558.676 114.83L557.906 117.406L554.812 109.734ZM562.148 109.734L559.152 117.49C558.9 118.162 558.554 118.703 558.116 119.114C557.677 119.525 557.075 119.73 556.31 119.73C555.964 119.73 555.628 119.679 555.302 119.576V118.064C555.554 118.157 555.815 118.204 556.086 118.204C556.347 118.204 556.562 118.162 556.73 118.078C556.907 117.994 557.061 117.854 557.192 117.658C557.332 117.471 557.476 117.196 557.626 116.832L560.37 109.734H562.148ZM565.606 106.906H569.484C570.446 106.906 571.211 107.13 571.78 107.578C572.359 108.026 572.648 108.665 572.648 109.496C572.648 109.935 572.532 110.331 572.298 110.686C572.074 111.041 571.78 111.307 571.416 111.484C571.939 111.68 572.354 111.997 572.662 112.436C572.97 112.865 573.124 113.388 573.124 114.004C573.124 114.639 572.98 115.185 572.69 115.642C572.41 116.09 572.004 116.431 571.472 116.664C570.95 116.888 570.334 117 569.624 117H565.606V106.906ZM569.33 115.348C569.956 115.348 570.427 115.227 570.744 114.984C571.062 114.741 571.22 114.387 571.22 113.92C571.22 113.444 571.062 113.085 570.744 112.842C570.427 112.59 569.956 112.464 569.33 112.464H567.482V115.348H569.33ZM569.232 110.854C569.736 110.854 570.114 110.751 570.366 110.546C570.628 110.331 570.758 110.033 570.758 109.65C570.758 109.267 570.628 108.969 570.366 108.754C570.105 108.539 569.718 108.432 569.204 108.432H567.482V110.854H569.232ZM580.948 117H579.184V115.88C578.942 116.263 578.615 116.566 578.204 116.79C577.803 117.005 577.355 117.112 576.86 117.112C576.347 117.112 575.89 117.005 575.488 116.79C575.087 116.575 574.774 116.272 574.55 115.88C574.336 115.479 574.228 115.017 574.228 114.494V109.734H575.978V114.088C575.978 114.517 576.104 114.867 576.356 115.138C576.618 115.409 576.958 115.544 577.378 115.544C577.761 115.544 578.088 115.441 578.358 115.236C578.629 115.031 578.834 114.732 578.974 114.34C579.114 113.948 579.184 113.477 579.184 112.926V109.734H580.948V117ZM586.52 111.204H584.826V114.522C584.826 114.858 584.919 115.119 585.106 115.306C585.292 115.493 585.535 115.586 585.834 115.586C586.048 115.586 586.277 115.553 586.52 115.488V117.014C586.249 117.079 585.95 117.112 585.624 117.112C584.84 117.112 584.214 116.907 583.748 116.496C583.29 116.085 583.062 115.488 583.062 114.704V111.204H581.83V109.734H583.062V107.592H584.826V109.734H586.52V111.204ZM591.619 111.204H589.925V114.522C589.925 114.858 590.019 115.119 590.205 115.306C590.392 115.493 590.635 115.586 590.933 115.586C591.148 115.586 591.377 115.553 591.619 115.488V117.014C591.349 117.079 591.05 117.112 590.723 117.112C589.939 117.112 589.314 116.907 588.847 116.496C588.39 116.085 588.161 115.488 588.161 114.704V111.204H586.929V109.734H588.161V107.592H589.925V109.734H591.619V111.204ZM595.827 117.112C595.118 117.112 594.479 116.949 593.909 116.622C593.349 116.295 592.911 115.847 592.593 115.278C592.276 114.709 592.117 114.069 592.117 113.36C592.117 112.651 592.276 112.011 592.593 111.442C592.911 110.873 593.349 110.429 593.909 110.112C594.479 109.785 595.118 109.622 595.827 109.622C596.537 109.622 597.171 109.785 597.731 110.112C598.301 110.429 598.744 110.873 599.061 111.442C599.379 112.002 599.537 112.641 599.537 113.36C599.537 114.069 599.379 114.709 599.061 115.278C598.744 115.847 598.301 116.295 597.731 116.622C597.171 116.949 596.537 117.112 595.827 117.112ZM595.827 115.586C596.21 115.586 596.541 115.493 596.821 115.306C597.111 115.119 597.335 114.858 597.493 114.522C597.661 114.177 597.745 113.789 597.745 113.36C597.745 112.931 597.661 112.548 597.493 112.212C597.335 111.876 597.106 111.615 596.807 111.428C596.518 111.241 596.191 111.148 595.827 111.148C595.454 111.148 595.118 111.241 594.819 111.428C594.53 111.615 594.306 111.876 594.147 112.212C593.998 112.548 593.923 112.931 593.923 113.36C593.923 113.799 593.998 114.186 594.147 114.522C594.306 114.858 594.53 115.119 594.819 115.306C595.109 115.493 595.445 115.586 595.827 115.586ZM600.699 109.734H602.463V110.854C602.705 110.471 603.027 110.173 603.429 109.958C603.839 109.734 604.292 109.622 604.787 109.622C605.3 109.622 605.757 109.729 606.159 109.944C606.56 110.159 606.868 110.467 607.083 110.868C607.307 111.26 607.419 111.717 607.419 112.24V117H605.669V112.646C605.669 112.217 605.538 111.867 605.277 111.596C605.025 111.325 604.689 111.19 604.269 111.19C603.886 111.19 603.559 111.293 603.289 111.498C603.018 111.703 602.813 112.002 602.673 112.394C602.533 112.786 602.463 113.257 602.463 113.808V117H600.699V109.734Z" fill="#242424"/>
<rect x="460" y="156" width="201" height="48" rx="8" fill="white" fill-opacity="0.09"/>
<rect x="460" y="225" width="201" height="48" rx="8" stroke="white" stroke-opacity="0.22"/>
<path d="M506.684 186.098C505.947 186.098 505.284 185.958 504.696 185.678C504.108 185.389 503.637 184.978 503.282 184.446C502.928 183.914 502.732 183.293 502.694 182.584H504.542C504.57 182.939 504.682 183.261 504.878 183.55C505.074 183.83 505.331 184.054 505.648 184.222C505.966 184.381 506.311 184.46 506.684 184.46C507.226 184.46 507.664 184.343 508 184.11C508.336 183.867 508.504 183.555 508.504 183.172C508.504 182.845 508.397 182.579 508.182 182.374C507.968 182.169 507.669 182.01 507.286 181.898L505.634 181.436C504.841 181.212 504.216 180.881 503.758 180.442C503.31 180.003 503.086 179.373 503.086 178.552C503.086 178.011 503.236 177.535 503.534 177.124C503.833 176.704 504.248 176.377 504.78 176.144C505.312 175.901 505.914 175.78 506.586 175.78C507.296 175.78 507.921 175.906 508.462 176.158C509.013 176.401 509.447 176.751 509.764 177.208C510.091 177.656 510.273 178.183 510.31 178.79H508.462C508.397 178.398 508.196 178.076 507.86 177.824C507.534 177.563 507.109 177.432 506.586 177.432C506.092 177.432 505.704 177.53 505.424 177.726C505.144 177.922 505.004 178.193 505.004 178.538C505.004 178.827 505.098 179.061 505.284 179.238C505.48 179.406 505.765 179.541 506.138 179.644L507.79 180.106C508.322 180.265 508.775 180.456 509.148 180.68C509.531 180.904 509.834 181.217 510.058 181.618C510.292 182.01 510.408 182.514 510.408 183.13C510.408 183.718 510.254 184.241 509.946 184.698C509.638 185.146 509.204 185.491 508.644 185.734C508.084 185.977 507.431 186.098 506.684 186.098ZM512.963 182.332C512.963 183.051 513.141 183.615 513.495 184.026C513.85 184.427 514.331 184.628 514.937 184.628C515.348 184.628 515.693 184.539 515.973 184.362C516.263 184.185 516.449 183.937 516.533 183.62H518.283C518.199 184.133 518.003 184.581 517.695 184.964C517.387 185.337 516.991 185.622 516.505 185.818C516.029 186.014 515.493 186.112 514.895 186.112C514.13 186.112 513.472 185.935 512.921 185.58C512.371 185.225 511.955 184.763 511.675 184.194C511.395 183.625 511.255 183.013 511.255 182.36C511.255 181.707 511.386 181.095 511.647 180.526C511.918 179.957 512.319 179.499 512.851 179.154C513.383 178.799 514.032 178.622 514.797 178.622C515.553 178.622 516.197 178.79 516.729 179.126C517.261 179.462 517.658 179.901 517.919 180.442C518.19 180.983 518.325 181.557 518.325 182.164C518.325 182.351 518.316 182.565 518.297 182.808H512.277V181.478H516.421C516.393 181.189 516.314 180.932 516.183 180.708C516.053 180.475 515.866 180.293 515.623 180.162C515.39 180.031 515.115 179.966 514.797 179.966C514.415 179.966 514.083 180.059 513.803 180.246C513.533 180.433 513.323 180.703 513.173 181.058C513.033 181.413 512.963 181.837 512.963 182.332ZM522.77 186.112C522.07 186.112 521.445 185.958 520.894 185.65C520.344 185.333 519.91 184.889 519.592 184.32C519.284 183.741 519.13 183.088 519.13 182.36C519.13 181.632 519.284 180.983 519.592 180.414C519.91 179.845 520.344 179.406 520.894 179.098C521.445 178.781 522.07 178.622 522.77 178.622C523.377 178.622 523.918 178.729 524.394 178.944C524.87 179.149 525.258 179.462 525.556 179.882C525.864 180.302 526.056 180.815 526.13 181.422H524.408C524.343 181.049 524.161 180.745 523.862 180.512C523.564 180.269 523.209 180.148 522.798 180.148C522.425 180.148 522.098 180.241 521.818 180.428C521.538 180.605 521.319 180.862 521.16 181.198C521.011 181.534 520.936 181.921 520.936 182.36C520.936 183.032 521.104 183.573 521.44 183.984C521.786 184.385 522.238 184.586 522.798 184.586C523.218 184.586 523.568 184.474 523.848 184.25C524.138 184.017 524.32 183.69 524.394 183.27H526.13C525.99 184.213 525.622 184.922 525.024 185.398C524.436 185.874 523.685 186.112 522.77 186.112ZM530.537 186.112C529.828 186.112 529.189 185.949 528.619 185.622C528.059 185.295 527.621 184.847 527.303 184.278C526.986 183.709 526.827 183.069 526.827 182.36C526.827 181.651 526.986 181.011 527.303 180.442C527.621 179.873 528.059 179.429 528.619 179.112C529.189 178.785 529.828 178.622 530.537 178.622C531.247 178.622 531.881 178.785 532.441 179.112C533.011 179.429 533.454 179.873 533.771 180.442C534.089 181.002 534.247 181.641 534.247 182.36C534.247 183.069 534.089 183.709 533.771 184.278C533.454 184.847 533.011 185.295 532.441 185.622C531.881 185.949 531.247 186.112 530.537 186.112ZM530.537 184.586C530.92 184.586 531.251 184.493 531.531 184.306C531.821 184.119 532.045 183.858 532.203 183.522C532.371 183.177 532.455 182.789 532.455 182.36C532.455 181.931 532.371 181.548 532.203 181.212C532.045 180.876 531.816 180.615 531.517 180.428C531.228 180.241 530.901 180.148 530.537 180.148C530.164 180.148 529.828 180.241 529.529 180.428C529.24 180.615 529.016 180.876 528.857 181.212C528.708 181.548 528.633 181.931 528.633 182.36C528.633 182.799 528.708 183.186 528.857 183.522C529.016 183.858 529.24 184.119 529.529 184.306C529.819 184.493 530.155 184.586 530.537 184.586ZM535.409 178.734H537.173V179.854C537.415 179.471 537.737 179.173 538.139 178.958C538.549 178.734 539.002 178.622 539.497 178.622C540.01 178.622 540.467 178.729 540.869 178.944C541.27 179.159 541.578 179.467 541.793 179.868C542.017 180.26 542.129 180.717 542.129 181.24V186H540.379V181.646C540.379 181.217 540.248 180.867 539.987 180.596C539.735 180.325 539.399 180.19 538.979 180.19C538.596 180.19 538.269 180.293 537.999 180.498C537.728 180.703 537.523 181.002 537.383 181.394C537.243 181.786 537.173 182.257 537.173 182.808V186H535.409V178.734ZM546.706 186.112C545.987 186.112 545.367 185.958 544.844 185.65C544.321 185.333 543.92 184.889 543.64 184.32C543.369 183.751 543.234 183.097 543.234 182.36C543.234 181.623 543.374 180.974 543.654 180.414C543.934 179.845 544.331 179.406 544.844 179.098C545.367 178.781 545.978 178.622 546.678 178.622C547.117 178.622 547.523 178.711 547.896 178.888C548.269 179.056 548.563 179.28 548.778 179.56V175.794H550.542V186H548.778V185.146C548.61 185.426 548.335 185.659 547.952 185.846C547.579 186.023 547.163 186.112 546.706 186.112ZM546.958 184.586C547.341 184.586 547.677 184.497 547.966 184.32C548.265 184.133 548.493 183.872 548.652 183.536C548.811 183.2 548.89 182.808 548.89 182.36C548.89 181.921 548.811 181.534 548.652 181.198C548.493 180.862 548.265 180.605 547.966 180.428C547.677 180.241 547.341 180.148 546.958 180.148C546.575 180.148 546.239 180.241 545.95 180.428C545.661 180.605 545.432 180.862 545.264 181.198C545.105 181.534 545.026 181.921 545.026 182.36C545.026 182.799 545.105 183.191 545.264 183.536C545.432 183.872 545.661 184.133 545.95 184.32C546.239 184.497 546.575 184.586 546.958 184.586ZM554.231 186.112C553.745 186.112 553.311 186.023 552.929 185.846C552.546 185.669 552.243 185.421 552.019 185.104C551.804 184.777 551.697 184.413 551.697 184.012C551.697 183.377 551.916 182.869 552.355 182.486C552.793 182.094 553.419 181.847 554.231 181.744L555.687 181.548C555.873 181.52 556.018 181.459 556.121 181.366C556.223 181.263 556.275 181.133 556.275 180.974C556.275 180.694 556.149 180.461 555.897 180.274C555.645 180.087 555.313 179.994 554.903 179.994C554.492 179.994 554.151 180.097 553.881 180.302C553.619 180.507 553.475 180.792 553.447 181.156H551.739C551.795 180.643 551.958 180.195 552.229 179.812C552.499 179.429 552.859 179.135 553.307 178.93C553.764 178.725 554.296 178.622 554.903 178.622C555.537 178.622 556.088 178.739 556.555 178.972C557.031 179.196 557.395 179.523 557.647 179.952C557.908 180.372 558.039 180.867 558.039 181.436V183.998C558.039 184.194 558.071 184.343 558.137 184.446C558.211 184.539 558.328 184.586 558.487 184.586C558.571 184.577 558.65 184.567 558.725 184.558V186C558.435 186.056 558.155 186.084 557.885 186.084C557.502 186.084 557.185 185.995 556.933 185.818C556.69 185.641 556.545 185.384 556.499 185.048C556.34 185.375 556.055 185.636 555.645 185.832C555.243 186.019 554.772 186.112 554.231 186.112ZM554.525 184.768C555.085 184.768 555.523 184.591 555.841 184.236C556.158 183.881 556.317 183.424 556.317 182.864V182.654L554.525 182.948C554.17 183.004 553.904 183.116 553.727 183.284C553.549 183.443 553.461 183.657 553.461 183.928C553.461 184.18 553.559 184.385 553.755 184.544C553.951 184.693 554.207 184.768 554.525 184.768ZM564.087 180.344C563.863 180.288 563.63 180.26 563.387 180.26C563.023 180.26 562.692 180.367 562.393 180.582C562.104 180.797 561.866 181.137 561.679 181.604C561.502 182.061 561.413 182.635 561.413 183.326V186H559.649V178.734H561.413V180.064C561.572 179.653 561.861 179.313 562.281 179.042C562.71 178.762 563.149 178.622 563.597 178.622C563.812 178.622 563.975 178.636 564.087 178.664V180.344ZM564.293 178.734H566.239L568.157 183.83L567.387 186.406L564.293 178.734ZM571.629 178.734L568.633 186.49C568.381 187.162 568.036 187.703 567.597 188.114C567.158 188.525 566.556 188.73 565.791 188.73C565.446 188.73 565.11 188.679 564.783 188.576V187.064C565.035 187.157 565.296 187.204 565.567 187.204C565.828 187.204 566.043 187.162 566.211 187.078C566.388 186.994 566.542 186.854 566.673 186.658C566.813 186.471 566.958 186.196 567.107 185.832L569.851 178.734H571.629ZM575.088 175.906H578.966C579.927 175.906 580.692 176.13 581.262 176.578C581.84 177.026 582.13 177.665 582.13 178.496C582.13 178.935 582.013 179.331 581.78 179.686C581.556 180.041 581.262 180.307 580.898 180.484C581.42 180.68 581.836 180.997 582.144 181.436C582.452 181.865 582.606 182.388 582.606 183.004C582.606 183.639 582.461 184.185 582.172 184.642C581.892 185.09 581.486 185.431 580.954 185.664C580.431 185.888 579.815 186 579.106 186H575.088V175.906ZM578.812 184.348C579.437 184.348 579.908 184.227 580.226 183.984C580.543 183.741 580.702 183.387 580.702 182.92C580.702 182.444 580.543 182.085 580.226 181.842C579.908 181.59 579.437 181.464 578.812 181.464H576.964V184.348H578.812ZM578.714 179.854C579.218 179.854 579.596 179.751 579.848 179.546C580.109 179.331 580.24 179.033 580.24 178.65C580.24 178.267 580.109 177.969 579.848 177.754C579.586 177.539 579.199 177.432 578.686 177.432H576.964V179.854H578.714ZM590.43 186H588.666V184.88C588.423 185.263 588.096 185.566 587.686 185.79C587.284 186.005 586.836 186.112 586.342 186.112C585.828 186.112 585.371 186.005 584.97 185.79C584.568 185.575 584.256 185.272 584.032 184.88C583.817 184.479 583.71 184.017 583.71 183.494V178.734H585.46V183.088C585.46 183.517 585.586 183.867 585.838 184.138C586.099 184.409 586.44 184.544 586.86 184.544C587.242 184.544 587.569 184.441 587.84 184.236C588.11 184.031 588.316 183.732 588.456 183.34C588.596 182.948 588.666 182.477 588.666 181.926V178.734H590.43V186ZM596.001 180.204H594.307V183.522C594.307 183.858 594.401 184.119 594.587 184.306C594.774 184.493 595.017 184.586 595.315 184.586C595.53 184.586 595.759 184.553 596.001 184.488V186.014C595.731 186.079 595.432 186.112 595.105 186.112C594.321 186.112 593.696 185.907 593.229 185.496C592.772 185.085 592.543 184.488 592.543 183.704V180.204H591.311V178.734H592.543V176.592H594.307V178.734H596.001V180.204ZM601.101 180.204H599.407V183.522C599.407 183.858 599.5 184.119 599.687 184.306C599.873 184.493 600.116 184.586 600.415 184.586C600.629 184.586 600.858 184.553 601.101 184.488V186.014C600.83 186.079 600.531 186.112 600.205 186.112C599.421 186.112 598.795 185.907 598.329 185.496C597.871 185.085 597.643 184.488 597.643 183.704V180.204H596.411V178.734H597.643V176.592H599.407V178.734H601.101V180.204ZM605.309 186.112C604.599 186.112 603.96 185.949 603.391 185.622C602.831 185.295 602.392 184.847 602.075 184.278C601.757 183.709 601.599 183.069 601.599 182.36C601.599 181.651 601.757 181.011 602.075 180.442C602.392 179.873 602.831 179.429 603.391 179.112C603.96 178.785 604.599 178.622 605.309 178.622C606.018 178.622 606.653 178.785 607.213 179.112C607.782 179.429 608.225 179.873 608.543 180.442C608.86 181.002 609.019 181.641 609.019 182.36C609.019 183.069 608.86 183.709 608.543 184.278C608.225 184.847 607.782 185.295 607.213 185.622C606.653 185.949 606.018 186.112 605.309 186.112ZM605.309 184.586C605.691 184.586 606.023 184.493 606.303 184.306C606.592 184.119 606.816 183.858 606.975 183.522C607.143 183.177 607.227 182.789 607.227 182.36C607.227 181.931 607.143 181.548 606.975 181.212C606.816 180.876 606.587 180.615 606.289 180.428C605.999 180.241 605.673 180.148 605.309 180.148C604.935 180.148 604.599 180.241 604.301 180.428C604.011 180.615 603.787 180.876 603.629 181.212C603.479 181.548 603.405 181.931 603.405 182.36C603.405 182.799 603.479 183.186 603.629 183.522C603.787 183.858 604.011 184.119 604.301 184.306C604.59 184.493 604.926 184.586 605.309 184.586ZM610.18 178.734H611.944V179.854C612.187 179.471 612.509 179.173 612.91 178.958C613.321 178.734 613.773 178.622 614.268 178.622C614.781 178.622 615.239 178.729 615.64 178.944C616.041 179.159 616.349 179.467 616.564 179.868C616.788 180.26 616.9 180.717 616.9 181.24V186H615.15V181.646C615.15 181.217 615.019 180.867 614.758 180.596C614.506 180.325 614.17 180.19 613.75 180.19C613.367 180.19 613.041 180.293 612.77 180.498C612.499 180.703 612.294 181.002 612.154 181.394C612.014 181.786 611.944 182.257 611.944 182.808V186H610.18V178.734Z" fill="white"/>
<path d="M518.068 255.112C517.098 255.112 516.225 254.888 515.45 254.44C514.676 253.992 514.064 253.376 513.616 252.592C513.178 251.808 512.958 250.926 512.958 249.946C512.958 248.975 513.178 248.098 513.616 247.314C514.064 246.53 514.676 245.914 515.45 245.466C516.234 245.018 517.107 244.794 518.068 244.794C519.03 244.794 519.898 245.018 520.672 245.466C521.447 245.905 522.054 246.516 522.492 247.3C522.931 248.084 523.15 248.966 523.15 249.946C523.15 250.926 522.931 251.808 522.492 252.592C522.054 253.376 521.447 253.992 520.672 254.44C519.898 254.888 519.03 255.112 518.068 255.112ZM518.068 253.46C518.675 253.46 519.216 253.311 519.692 253.012C520.178 252.704 520.556 252.284 520.826 251.752C521.097 251.211 521.232 250.609 521.232 249.946C521.232 249.283 521.097 248.686 520.826 248.154C520.556 247.613 520.178 247.193 519.692 246.894C519.216 246.595 518.675 246.446 518.068 246.446C517.452 246.446 516.902 246.595 516.416 246.894C515.931 247.193 515.553 247.613 515.282 248.154C515.012 248.686 514.876 249.283 514.876 249.946C514.876 250.609 515.012 251.211 515.282 251.752C515.553 252.284 515.931 252.704 516.416 253.012C516.902 253.311 517.452 253.46 518.068 253.46ZM531.005 255H529.241V253.88C528.998 254.263 528.672 254.566 528.261 254.79C527.86 255.005 527.412 255.112 526.917 255.112C526.404 255.112 525.946 255.005 525.545 254.79C525.144 254.575 524.831 254.272 524.607 253.88C524.392 253.479 524.285 253.017 524.285 252.494V247.734H526.035V252.088C526.035 252.517 526.161 252.867 526.413 253.138C526.674 253.409 527.015 253.544 527.435 253.544C527.818 253.544 528.144 253.441 528.415 253.236C528.686 253.031 528.891 252.732 529.031 252.34C529.171 251.948 529.241 251.477 529.241 250.926V247.734H531.005V255ZM536.576 249.204H534.882V252.522C534.882 252.858 534.976 253.119 535.162 253.306C535.349 253.493 535.592 253.586 535.89 253.586C536.105 253.586 536.334 253.553 536.576 253.488V255.014C536.306 255.079 536.007 255.112 535.68 255.112C534.896 255.112 534.271 254.907 533.804 254.496C533.347 254.085 533.118 253.488 533.118 252.704V249.204H531.886V247.734H533.118V245.592H534.882V247.734H536.576V249.204ZM537.644 244.794H539.408V255H537.644V244.794ZM540.939 247.734H542.703V255H540.939V247.734ZM542.787 244.794V246.642H540.869V244.794H542.787ZM544.234 247.734H545.998V248.854C546.241 248.471 546.563 248.173 546.964 247.958C547.375 247.734 547.827 247.622 548.322 247.622C548.835 247.622 549.293 247.729 549.694 247.944C550.095 248.159 550.403 248.467 550.618 248.868C550.842 249.26 550.954 249.717 550.954 250.24V255H549.204V250.646C549.204 250.217 549.073 249.867 548.812 249.596C548.56 249.325 548.224 249.19 547.804 249.19C547.421 249.19 547.095 249.293 546.824 249.498C546.553 249.703 546.348 250.002 546.208 250.394C546.068 250.786 545.998 251.257 545.998 251.808V255H544.234V247.734ZM553.753 251.332C553.753 252.051 553.931 252.615 554.285 253.026C554.64 253.427 555.121 253.628 555.727 253.628C556.138 253.628 556.483 253.539 556.763 253.362C557.053 253.185 557.239 252.937 557.323 252.62H559.073C558.989 253.133 558.793 253.581 558.485 253.964C558.177 254.337 557.781 254.622 557.295 254.818C556.819 255.014 556.283 255.112 555.685 255.112C554.92 255.112 554.262 254.935 553.711 254.58C553.161 254.225 552.745 253.763 552.465 253.194C552.185 252.625 552.045 252.013 552.045 251.36C552.045 250.707 552.176 250.095 552.437 249.526C552.708 248.957 553.109 248.499 553.641 248.154C554.173 247.799 554.822 247.622 555.587 247.622C556.343 247.622 556.987 247.79 557.519 248.126C558.051 248.462 558.448 248.901 558.709 249.442C558.98 249.983 559.115 250.557 559.115 251.164C559.115 251.351 559.106 251.565 559.087 251.808H553.067V250.478H557.211C557.183 250.189 557.104 249.932 556.973 249.708C556.843 249.475 556.656 249.293 556.413 249.162C556.18 249.031 555.905 248.966 555.587 248.966C555.205 248.966 554.873 249.059 554.593 249.246C554.323 249.433 554.113 249.703 553.963 250.058C553.823 250.413 553.753 250.837 553.753 251.332ZM561.976 244.906H564.02L566.736 252.55L569.466 244.906H571.426L567.646 255H565.756L561.976 244.906ZM573.405 255.112C572.92 255.112 572.486 255.023 572.103 254.846C571.721 254.669 571.417 254.421 571.193 254.104C570.979 253.777 570.871 253.413 570.871 253.012C570.871 252.377 571.091 251.869 571.529 251.486C571.968 251.094 572.593 250.847 573.405 250.744L574.861 250.548C575.048 250.52 575.193 250.459 575.295 250.366C575.398 250.263 575.449 250.133 575.449 249.974C575.449 249.694 575.323 249.461 575.071 249.274C574.819 249.087 574.488 248.994 574.077 248.994C573.667 248.994 573.326 249.097 573.055 249.302C572.794 249.507 572.649 249.792 572.621 250.156H570.913C570.969 249.643 571.133 249.195 571.403 248.812C571.674 248.429 572.033 248.135 572.481 247.93C572.939 247.725 573.471 247.622 574.077 247.622C574.712 247.622 575.263 247.739 575.729 247.972C576.205 248.196 576.569 248.523 576.821 248.952C577.083 249.372 577.213 249.867 577.213 250.436V252.998C577.213 253.194 577.246 253.343 577.311 253.446C577.386 253.539 577.503 253.586 577.661 253.586C577.745 253.577 577.825 253.567 577.899 253.558V255C577.61 255.056 577.33 255.084 577.059 255.084C576.677 255.084 576.359 254.995 576.107 254.818C575.865 254.641 575.72 254.384 575.673 254.048C575.515 254.375 575.23 254.636 574.819 254.832C574.418 255.019 573.947 255.112 573.405 255.112ZM573.699 253.768C574.259 253.768 574.698 253.591 575.015 253.236C575.333 252.881 575.491 252.424 575.491 251.864V251.654L573.699 251.948C573.345 252.004 573.079 252.116 572.901 252.284C572.724 252.443 572.635 252.657 572.635 252.928C572.635 253.18 572.733 253.385 572.929 253.544C573.125 253.693 573.382 253.768 573.699 253.768ZM583.262 249.344C583.038 249.288 582.804 249.26 582.562 249.26C582.198 249.26 581.866 249.367 581.568 249.582C581.278 249.797 581.04 250.137 580.854 250.604C580.676 251.061 580.588 251.635 580.588 252.326V255H578.824V247.734H580.588V249.064C580.746 248.653 581.036 248.313 581.456 248.042C581.885 247.762 582.324 247.622 582.772 247.622C582.986 247.622 583.15 247.636 583.262 247.664V249.344ZM584.183 247.734H585.947V255H584.183V247.734ZM586.031 244.794V246.642H584.113V244.794H586.031ZM589.634 255.112C589.149 255.112 588.715 255.023 588.332 254.846C587.949 254.669 587.646 254.421 587.422 254.104C587.207 253.777 587.1 253.413 587.1 253.012C587.1 252.377 587.319 251.869 587.758 251.486C588.197 251.094 588.822 250.847 589.634 250.744L591.09 250.548C591.277 250.52 591.421 250.459 591.524 250.366C591.627 250.263 591.678 250.133 591.678 249.974C591.678 249.694 591.552 249.461 591.3 249.274C591.048 249.087 590.717 248.994 590.306 248.994C589.895 248.994 589.555 249.097 589.284 249.302C589.023 249.507 588.878 249.792 588.85 250.156H587.142C587.198 249.643 587.361 249.195 587.632 248.812C587.903 248.429 588.262 248.135 588.71 247.93C589.167 247.725 589.699 247.622 590.306 247.622C590.941 247.622 591.491 247.739 591.958 247.972C592.434 248.196 592.798 248.523 593.05 248.952C593.311 249.372 593.442 249.867 593.442 250.436V252.998C593.442 253.194 593.475 253.343 593.54 253.446C593.615 253.539 593.731 253.586 593.89 253.586C593.974 253.577 594.053 253.567 594.128 253.558V255C593.839 255.056 593.559 255.084 593.288 255.084C592.905 255.084 592.588 254.995 592.336 254.818C592.093 254.641 591.949 254.384 591.902 254.048C591.743 254.375 591.459 254.636 591.048 254.832C590.647 255.019 590.175 255.112 589.634 255.112ZM589.928 253.768C590.488 253.768 590.927 253.591 591.244 253.236C591.561 252.881 591.72 252.424 591.72 251.864V251.654L589.928 251.948C589.573 252.004 589.307 252.116 589.13 252.284C588.953 252.443 588.864 252.657 588.864 252.928C588.864 253.18 588.962 253.385 589.158 253.544C589.354 253.693 589.611 253.768 589.928 253.768ZM595.052 247.734H596.816V248.854C597.059 248.471 597.381 248.173 597.782 247.958C598.193 247.734 598.646 247.622 599.14 247.622C599.654 247.622 600.111 247.729 600.512 247.944C600.914 248.159 601.222 248.467 601.436 248.868C601.66 249.26 601.772 249.717 601.772 250.24V255H600.022V250.646C600.022 250.217 599.892 249.867 599.63 249.596C599.378 249.325 599.042 249.19 598.622 249.19C598.24 249.19 597.913 249.293 597.642 249.498C597.372 249.703 597.166 250.002 597.026 250.394C596.886 250.786 596.816 251.257 596.816 251.808V255H595.052V247.734ZM607.178 249.204H605.484V252.522C605.484 252.858 605.577 253.119 605.764 253.306C605.951 253.493 606.193 253.586 606.492 253.586C606.707 253.586 606.935 253.553 607.178 253.488V255.014C606.907 255.079 606.609 255.112 606.282 255.112C605.498 255.112 604.873 254.907 604.406 254.496C603.949 254.085 603.72 253.488 603.72 252.704V249.204H602.488V247.734H603.72V245.592H605.484V247.734H607.178V249.204Z" fill="white"/>
</g>
</g>
<path d="M138 150L138 168M148 150L148 168M134 154H152M134 164H152" stroke="#929292" stroke-width="1.5"/>
<path d="M182 192L182 210M192 192L192 210M178 196H196M178 206H196" stroke="#929292" stroke-width="1.5"/>
<path d="M182 230L182 248M192 230L192 248M178 234H196M178 244H196" stroke="#929292" stroke-width="1.5"/>
<path d="M176.242 153.022H181.102C182.338 153.022 183.316 153.31 184.036 153.886C184.756 154.462 185.116 155.284 185.116 156.352C185.116 156.928 184.966 157.444 184.666 157.9C184.378 158.344 183.982 158.674 183.478 158.89C184.174 159.154 184.72 159.568 185.116 160.132C185.512 160.684 185.71 161.368 185.71 162.184C185.71 163 185.536 163.696 185.188 164.272C184.84 164.836 184.33 165.268 183.658 165.568C182.998 165.856 182.218 166 181.318 166H176.242V153.022ZM180.958 164.146C181.834 164.146 182.488 163.972 182.92 163.624C183.364 163.276 183.586 162.766 183.586 162.094C183.586 161.422 183.364 160.912 182.92 160.564C182.476 160.204 181.822 160.024 180.958 160.024H178.33V164.146H180.958ZM180.868 158.206C181.564 158.206 182.092 158.062 182.452 157.774C182.824 157.474 183.01 157.048 183.01 156.496C183.01 155.944 182.824 155.518 182.452 155.218C182.08 154.918 181.546 154.768 180.85 154.768H178.33V158.206H180.868ZM195.681 166H193.719V164.416C193.383 164.956 192.945 165.382 192.405 165.694C191.877 165.994 191.283 166.144 190.623 166.144C189.963 166.144 189.381 166.006 188.877 165.73C188.373 165.454 187.977 165.064 187.689 164.56C187.401 164.056 187.257 163.474 187.257 162.814V156.658H189.219V162.382C189.219 162.982 189.393 163.468 189.741 163.84C190.089 164.2 190.557 164.38 191.145 164.38C191.673 164.38 192.129 164.236 192.513 163.948C192.897 163.66 193.191 163.246 193.395 162.706C193.611 162.166 193.719 161.518 193.719 160.762V156.658H195.681V166ZM202.756 158.314H200.488V163.012C200.488 163.468 200.608 163.822 200.848 164.074C201.088 164.314 201.412 164.434 201.82 164.434C202.108 164.434 202.42 164.386 202.756 164.29V166C202.384 166.096 202.006 166.144 201.622 166.144C200.662 166.144 199.906 165.892 199.354 165.388C198.802 164.884 198.526 164.146 198.526 163.174V158.314H196.87V156.658H198.526V153.868H200.488V156.658H202.756V158.314ZM209.155 158.314H206.887V163.012C206.887 163.468 207.007 163.822 207.247 164.074C207.487 164.314 207.811 164.434 208.219 164.434C208.507 164.434 208.819 164.386 209.155 164.29V166C208.783 166.096 208.405 166.144 208.021 166.144C207.061 166.144 206.305 165.892 205.753 165.388C205.201 164.884 204.925 164.146 204.925 163.174V158.314H203.269V156.658H204.925V153.868H206.887V156.658H209.155V158.314ZM214.515 166.144C213.615 166.144 212.805 165.94 212.085 165.532C211.377 165.112 210.825 164.536 210.429 163.804C210.033 163.072 209.835 162.244 209.835 161.32C209.835 160.396 210.033 159.574 210.429 158.854C210.825 158.122 211.377 157.552 212.085 157.144C212.805 156.724 213.615 156.514 214.515 156.514C215.415 156.514 216.219 156.724 216.927 157.144C217.647 157.552 218.211 158.122 218.619 158.854C219.027 159.574 219.231 160.396 219.231 161.32C219.231 162.244 219.027 163.072 218.619 163.804C218.211 164.536 217.647 165.112 216.927 165.532C216.219 165.94 215.415 166.144 214.515 166.144ZM214.515 164.434C215.055 164.434 215.523 164.302 215.919 164.038C216.327 163.774 216.645 163.408 216.873 162.94C217.101 162.46 217.215 161.92 217.215 161.32C217.215 160.72 217.101 160.186 216.873 159.718C216.645 159.25 216.321 158.884 215.901 158.62C215.493 158.356 215.031 158.224 214.515 158.224C213.999 158.224 213.531 158.356 213.111 158.62C212.703 158.884 212.385 159.256 212.157 159.736C211.941 160.204 211.833 160.732 211.833 161.32C211.833 161.932 211.941 162.472 212.157 162.94C212.385 163.408 212.703 163.774 213.111 164.038C213.519 164.302 213.987 164.434 214.515 164.434ZM220.833 156.658H222.795V158.242C223.131 157.702 223.563 157.282 224.091 156.982C224.631 156.67 225.231 156.514 225.891 156.514C226.551 156.514 227.133 156.652 227.637 156.928C228.141 157.204 228.537 157.594 228.825 158.098C229.113 158.602 229.257 159.184 229.257 159.844V166H227.295V160.276C227.295 159.676 227.121 159.196 226.773 158.836C226.425 158.464 225.957 158.278 225.369 158.278C224.841 158.278 224.385 158.422 224.001 158.71C223.617 158.998 223.317 159.412 223.101 159.952C222.897 160.492 222.795 161.14 222.795 161.896V166H220.833V156.658ZM240.887 166.144C239.747 166.144 238.697 165.892 237.737 165.388C236.777 164.884 236.015 164.134 235.451 163.138C234.887 162.142 234.605 160.93 234.605 159.502C234.605 158.146 234.887 156.97 235.451 155.974C236.015 154.966 236.777 154.198 237.737 153.67C238.709 153.142 239.777 152.878 240.941 152.878C241.925 152.878 242.819 153.058 243.623 153.418C244.439 153.766 245.111 154.276 245.639 154.948C246.179 155.62 246.527 156.424 246.683 157.36H244.415C244.247 156.556 243.845 155.914 243.209 155.434C242.585 154.954 241.823 154.714 240.923 154.714C240.107 154.714 239.381 154.912 238.745 155.308C238.121 155.692 237.629 156.244 237.269 156.964C236.909 157.684 236.729 158.53 236.729 159.502C236.729 160.45 236.903 161.29 237.251 162.022C237.599 162.742 238.097 163.306 238.745 163.714C239.393 164.11 240.155 164.308 241.031 164.308C241.739 164.308 242.363 164.164 242.903 163.876C243.455 163.588 243.887 163.192 244.199 162.688C244.511 162.184 244.685 161.614 244.721 160.978H240.527V159.232H246.683V166H244.775V164.092C244.487 164.692 243.983 165.184 243.263 165.568C242.543 165.952 241.751 166.144 240.887 166.144ZM254.238 158.44C253.95 158.368 253.638 158.332 253.302 158.332C252.822 158.332 252.384 158.482 251.988 158.782C251.592 159.082 251.274 159.55 251.034 160.186C250.794 160.81 250.674 161.584 250.674 162.508V166H248.712V156.658H250.674V158.44C250.89 157.888 251.274 157.432 251.826 157.072C252.378 156.7 252.954 156.514 253.554 156.514C253.854 156.514 254.082 156.532 254.238 156.568V158.44ZM259.181 166.144C258.281 166.144 257.471 165.94 256.751 165.532C256.043 165.112 255.491 164.536 255.095 163.804C254.699 163.072 254.501 162.244 254.501 161.32C254.501 160.396 254.699 159.574 255.095 158.854C255.491 158.122 256.043 157.552 256.751 157.144C257.471 156.724 258.281 156.514 259.181 156.514C260.081 156.514 260.885 156.724 261.593 157.144C262.313 157.552 262.877 158.122 263.285 158.854C263.693 159.574 263.897 160.396 263.897 161.32C263.897 162.244 263.693 163.072 263.285 163.804C262.877 164.536 262.313 165.112 261.593 165.532C260.885 165.94 260.081 166.144 259.181 166.144ZM259.181 164.434C259.721 164.434 260.189 164.302 260.585 164.038C260.993 163.774 261.311 163.408 261.539 162.94C261.767 162.46 261.881 161.92 261.881 161.32C261.881 160.72 261.767 160.186 261.539 159.718C261.311 159.25 260.987 158.884 260.567 158.62C260.159 158.356 259.697 158.224 259.181 158.224C258.665 158.224 258.197 158.356 257.777 158.62C257.369 158.884 257.051 159.256 256.823 159.736C256.607 160.204 256.499 160.732 256.499 161.32C256.499 161.932 256.607 162.472 256.823 162.94C257.051 163.408 257.369 163.774 257.777 164.038C258.185 164.302 258.653 164.434 259.181 164.434ZM273.834 166H271.872V164.416C271.536 164.956 271.098 165.382 270.558 165.694C270.03 165.994 269.436 166.144 268.776 166.144C268.116 166.144 267.534 166.006 267.03 165.73C266.526 165.454 266.13 165.064 265.842 164.56C265.554 164.056 265.41 163.474 265.41 162.814V156.658H267.372V162.382C267.372 162.982 267.546 163.468 267.894 163.84C268.242 164.2 268.71 164.38 269.298 164.38C269.826 164.38 270.282 164.236 270.666 163.948C271.05 163.66 271.344 163.246 271.548 162.706C271.764 162.166 271.872 161.518 271.872 160.762V156.658H273.834V166ZM275.958 156.658H277.92V157.864C278.184 157.468 278.574 157.144 279.09 156.892C279.618 156.64 280.194 156.514 280.818 156.514C281.706 156.514 282.48 156.718 283.14 157.126C283.812 157.534 284.322 158.104 284.67 158.836C285.018 159.556 285.192 160.384 285.192 161.32C285.192 162.256 285.006 163.09 284.634 163.822C284.274 164.542 283.752 165.112 283.068 165.532C282.396 165.94 281.604 166.144 280.692 166.144C280.14 166.144 279.612 166.03 279.108 165.802C278.604 165.574 278.208 165.274 277.92 164.902V169.366H275.958V156.658ZM280.494 164.434C281.034 164.434 281.508 164.308 281.916 164.056C282.324 163.792 282.636 163.426 282.852 162.958C283.08 162.49 283.194 161.944 283.194 161.32C283.194 160.708 283.08 160.168 282.852 159.7C282.636 159.232 282.324 158.872 281.916 158.62C281.508 158.356 281.034 158.224 280.494 158.224C279.966 158.224 279.492 158.356 279.072 158.62C278.664 158.872 278.346 159.232 278.118 159.7C277.902 160.168 277.794 160.708 277.794 161.32C277.794 161.944 277.902 162.49 278.118 162.958C278.346 163.426 278.664 163.792 279.072 164.056C279.492 164.308 279.966 164.434 280.494 164.434Z" fill="white"/>
<path d="M220.242 195.022H225.678C226.53 195.022 227.262 195.184 227.874 195.508C228.498 195.82 228.978 196.27 229.314 196.858C229.65 197.446 229.818 198.13 229.818 198.91C229.818 199.666 229.65 200.344 229.314 200.944C228.978 201.532 228.498 201.994 227.874 202.33C227.25 202.666 226.518 202.834 225.678 202.834H222.33V208H220.242V195.022ZM225.408 200.98C226.116 200.98 226.674 200.794 227.082 200.422C227.49 200.038 227.694 199.534 227.694 198.91C227.694 198.286 227.49 197.794 227.082 197.434C226.674 197.062 226.116 196.876 225.408 196.876H222.33V200.98H225.408ZM236.662 200.44C236.374 200.368 236.062 200.332 235.726 200.332C235.246 200.332 234.808 200.482 234.412 200.782C234.016 201.082 233.698 201.55 233.458 202.186C233.218 202.81 233.098 203.584 233.098 204.508V208H231.136V198.658H233.098V200.44C233.314 199.888 233.698 199.432 234.25 199.072C234.802 198.7 235.378 198.514 235.978 198.514C236.278 198.514 236.506 198.532 236.662 198.568V200.44ZM237.921 198.658H239.883V208H237.921V198.658ZM240.009 194.878V197.092H237.831V194.878H240.009ZM242.017 198.658H243.979V200.26C244.243 199.72 244.603 199.294 245.059 198.982C245.527 198.67 246.085 198.514 246.733 198.514C247.489 198.514 248.125 198.676 248.641 199C249.169 199.312 249.529 199.768 249.721 200.368C249.985 199.828 250.387 199.384 250.927 199.036C251.467 198.688 252.085 198.514 252.781 198.514C253.441 198.514 254.017 198.646 254.509 198.91C255.013 199.174 255.397 199.552 255.661 200.044C255.937 200.524 256.075 201.076 256.075 201.7V208H254.113V202.186C254.113 201.574 253.945 201.094 253.609 200.746C253.285 200.386 252.829 200.206 252.241 200.206C251.545 200.206 250.999 200.488 250.603 201.052C250.219 201.616 250.027 202.36 250.027 203.284V208H248.065V202.186C248.065 201.574 247.903 201.094 247.579 200.746C247.255 200.386 246.799 200.206 246.211 200.206C245.743 200.206 245.341 200.338 245.005 200.602C244.681 200.854 244.429 201.214 244.249 201.682C244.069 202.15 243.979 202.684 243.979 203.284V208H242.017V198.658ZM260.801 208.144C260.177 208.144 259.619 208.03 259.127 207.802C258.647 207.574 258.269 207.256 257.993 206.848C257.717 206.44 257.579 205.978 257.579 205.462C257.579 204.658 257.855 204.01 258.407 203.518C258.959 203.026 259.751 202.708 260.783 202.564L262.781 202.312C263.045 202.264 263.243 202.18 263.375 202.06C263.519 201.928 263.591 201.748 263.591 201.52C263.591 201.112 263.411 200.77 263.051 200.494C262.703 200.218 262.229 200.08 261.629 200.08C261.053 200.08 260.579 200.224 260.207 200.512C259.835 200.8 259.625 201.196 259.577 201.7H257.651C257.723 201.052 257.927 200.488 258.263 200.008C258.611 199.528 259.073 199.162 259.649 198.91C260.225 198.646 260.885 198.514 261.629 198.514C262.421 198.514 263.111 198.658 263.699 198.946C264.299 199.222 264.755 199.624 265.067 200.152C265.391 200.668 265.553 201.274 265.553 201.97V205.678C265.553 205.942 265.601 206.134 265.697 206.254C265.805 206.362 265.961 206.416 266.165 206.416C266.273 206.416 266.375 206.404 266.471 206.38V208C266.147 208.072 265.841 208.108 265.553 208.108C265.061 208.108 264.659 207.988 264.347 207.748C264.035 207.496 263.861 207.124 263.825 206.632C263.597 207.1 263.213 207.472 262.673 207.748C262.133 208.012 261.509 208.144 260.801 208.144ZM261.107 206.614C261.899 206.614 262.517 206.368 262.961 205.876C263.417 205.372 263.645 204.712 263.645 203.896V203.554L261.107 203.968C260.591 204.04 260.201 204.196 259.937 204.436C259.673 204.676 259.541 204.994 259.541 205.39C259.541 205.75 259.685 206.044 259.973 206.272C260.261 206.5 260.639 206.614 261.107 206.614ZM273.295 200.44C273.007 200.368 272.695 200.332 272.359 200.332C271.879 200.332 271.441 200.482 271.045 200.782C270.649 201.082 270.331 201.55 270.091 202.186C269.851 202.81 269.731 203.584 269.731 204.508V208H267.769V198.658H269.731V200.44C269.947 199.888 270.331 199.432 270.883 199.072C271.435 198.7 272.011 198.514 272.611 198.514C272.911 198.514 273.139 198.532 273.295 198.568V200.44ZM273.581 198.658H275.741L278.405 205.66L277.505 208.45L273.581 198.658ZM282.743 198.658L278.891 208.666C278.543 209.554 278.105 210.25 277.577 210.754C277.049 211.258 276.329 211.51 275.417 211.51C275.009 211.51 274.613 211.45 274.229 211.33V209.638C274.553 209.746 274.883 209.8 275.219 209.8C275.555 209.8 275.831 209.74 276.047 209.62C276.275 209.5 276.473 209.314 276.641 209.062C276.809 208.81 276.989 208.432 277.181 207.928L280.763 198.658H282.743ZM287.426 195.022H292.286C293.522 195.022 294.5 195.31 295.22 195.886C295.94 196.462 296.3 197.284 296.3 198.352C296.3 198.928 296.15 199.444 295.85 199.9C295.562 200.344 295.166 200.674 294.662 200.89C295.358 201.154 295.904 201.568 296.3 202.132C296.696 202.684 296.894 203.368 296.894 204.184C296.894 205 296.72 205.696 296.372 206.272C296.024 206.836 295.514 207.268 294.842 207.568C294.182 207.856 293.402 208 292.502 208H287.426V195.022ZM292.142 206.146C293.018 206.146 293.672 205.972 294.104 205.624C294.548 205.276 294.77 204.766 294.77 204.094C294.77 203.422 294.548 202.912 294.104 202.564C293.66 202.204 293.006 202.024 292.142 202.024H289.514V206.146H292.142ZM292.052 200.206C292.748 200.206 293.276 200.062 293.636 199.774C294.008 199.474 294.194 199.048 294.194 198.496C294.194 197.944 294.008 197.518 293.636 197.218C293.264 196.918 292.73 196.768 292.034 196.768H289.514V200.206H292.052ZM306.865 208H304.903V206.416C304.567 206.956 304.129 207.382 303.589 207.694C303.061 207.994 302.467 208.144 301.807 208.144C301.147 208.144 300.565 208.006 300.061 207.73C299.557 207.454 299.161 207.064 298.873 206.56C298.585 206.056 298.441 205.474 298.441 204.814V198.658H300.403V204.382C300.403 204.982 300.577 205.468 300.925 205.84C301.273 206.2 301.741 206.38 302.329 206.38C302.857 206.38 303.313 206.236 303.697 205.948C304.081 205.66 304.375 205.246 304.579 204.706C304.795 204.166 304.903 203.518 304.903 202.762V198.658H306.865V208ZM313.94 200.314H311.672V205.012C311.672 205.468 311.792 205.822 312.032 206.074C312.272 206.314 312.596 206.434 313.004 206.434C313.292 206.434 313.604 206.386 313.94 206.29V208C313.568 208.096 313.19 208.144 312.806 208.144C311.846 208.144 311.09 207.892 310.538 207.388C309.986 206.884 309.71 206.146 309.71 205.174V200.314H308.054V198.658H309.71V195.868H311.672V198.658H313.94V200.314ZM320.338 200.314H318.07V205.012C318.07 205.468 318.19 205.822 318.43 206.074C318.67 206.314 318.994 206.434 319.402 206.434C319.69 206.434 320.002 206.386 320.338 206.29V208C319.966 208.096 319.588 208.144 319.204 208.144C318.244 208.144 317.488 207.892 316.936 207.388C316.384 206.884 316.108 206.146 316.108 205.174V200.314H314.452V198.658H316.108V195.868H318.07V198.658H320.338V200.314ZM325.699 208.144C324.799 208.144 323.989 207.94 323.269 207.532C322.561 207.112 322.009 206.536 321.613 205.804C321.217 205.072 321.019 204.244 321.019 203.32C321.019 202.396 321.217 201.574 321.613 200.854C322.009 200.122 322.561 199.552 323.269 199.144C323.989 198.724 324.799 198.514 325.699 198.514C326.599 198.514 327.403 198.724 328.111 199.144C328.831 199.552 329.395 200.122 329.803 200.854C330.211 201.574 330.415 202.396 330.415 203.32C330.415 204.244 330.211 205.072 329.803 205.804C329.395 206.536 328.831 207.112 328.111 207.532C327.403 207.94 326.599 208.144 325.699 208.144ZM325.699 206.434C326.239 206.434 326.707 206.302 327.103 206.038C327.511 205.774 327.829 205.408 328.057 204.94C328.285 204.46 328.399 203.92 328.399 203.32C328.399 202.72 328.285 202.186 328.057 201.718C327.829 201.25 327.505 200.884 327.085 200.62C326.677 200.356 326.215 200.224 325.699 200.224C325.183 200.224 324.715 200.356 324.295 200.62C323.887 200.884 323.569 201.256 323.341 201.736C323.125 202.204 323.017 202.732 323.017 203.32C323.017 203.932 323.125 204.472 323.341 204.94C323.569 205.408 323.887 205.774 324.295 206.038C324.703 206.302 325.171 206.434 325.699 206.434ZM332.017 198.658H333.979V200.242C334.315 199.702 334.747 199.282 335.275 198.982C335.815 198.67 336.415 198.514 337.075 198.514C337.735 198.514 338.317 198.652 338.821 198.928C339.325 199.204 339.721 199.594 340.009 200.098C340.297 200.602 340.441 201.184 340.441 201.844V208H338.479V202.276C338.479 201.676 338.305 201.196 337.957 200.836C337.609 200.464 337.141 200.278 336.553 200.278C336.025 200.278 335.569 200.422 335.185 200.71C334.801 200.998 334.501 201.412 334.285 201.952C334.081 202.492 333.979 203.14 333.979 203.896V208H332.017V198.658Z" fill="white"/>
<path d="M224.472 246.144C223.56 246.144 222.726 245.964 221.97 245.604C221.226 245.244 220.626 244.728 220.17 244.056C219.726 243.384 219.474 242.604 219.414 241.716H221.484C221.508 242.208 221.658 242.646 221.934 243.03C222.21 243.414 222.57 243.72 223.014 243.948C223.458 244.176 223.944 244.29 224.472 244.29C225.252 244.29 225.876 244.122 226.344 243.786C226.824 243.438 227.064 242.988 227.064 242.436C227.064 241.956 226.914 241.566 226.614 241.266C226.314 240.966 225.894 240.738 225.354 240.582L223.122 239.934C222.114 239.658 221.328 239.25 220.764 238.71C220.2 238.158 219.918 237.372 219.918 236.352C219.918 235.68 220.104 235.08 220.476 234.552C220.86 234.024 221.388 233.616 222.06 233.328C222.732 233.028 223.5 232.878 224.364 232.878C225.24 232.878 226.02 233.028 226.704 233.328C227.388 233.628 227.934 234.066 228.342 234.642C228.75 235.206 228.984 235.866 229.044 236.622H226.974C226.878 236.058 226.602 235.602 226.146 235.254C225.69 234.894 225.096 234.714 224.364 234.714C223.644 234.714 223.08 234.858 222.672 235.146C222.264 235.434 222.06 235.83 222.06 236.334C222.06 236.766 222.198 237.108 222.474 237.36C222.75 237.6 223.146 237.798 223.662 237.954L225.93 238.602C226.602 238.794 227.172 239.034 227.64 239.322C228.108 239.61 228.486 240.006 228.774 240.51C229.062 241.002 229.206 241.626 229.206 242.382C229.206 243.126 229.008 243.786 228.612 244.362C228.228 244.926 227.676 245.364 226.956 245.676C226.248 245.988 225.42 246.144 224.472 246.144ZM232.277 241.284C232.277 242.28 232.523 243.06 233.015 243.624C233.507 244.188 234.173 244.47 235.013 244.47C235.601 244.47 236.099 244.338 236.507 244.074C236.927 243.81 237.191 243.444 237.299 242.976H239.225C239.117 243.636 238.865 244.206 238.469 244.686C238.085 245.166 237.587 245.532 236.975 245.784C236.375 246.024 235.703 246.144 234.959 246.144C234.011 246.144 233.189 245.922 232.493 245.478C231.797 245.034 231.263 244.446 230.891 243.714C230.531 242.982 230.351 242.184 230.351 241.32C230.351 240.456 230.525 239.658 230.873 238.926C231.221 238.194 231.737 237.612 232.421 237.18C233.105 236.736 233.921 236.514 234.869 236.514C235.793 236.514 236.591 236.724 237.263 237.144C237.935 237.552 238.439 238.098 238.775 238.782C239.123 239.466 239.291 240.204 239.279 240.996C239.279 241.224 239.267 241.488 239.243 241.788H231.485V240.24H237.173C237.137 239.82 237.023 239.448 236.831 239.124C236.651 238.788 236.393 238.53 236.057 238.35C235.721 238.158 235.325 238.062 234.869 238.062C234.329 238.062 233.861 238.194 233.465 238.458C233.081 238.71 232.787 239.082 232.583 239.574C232.379 240.054 232.277 240.624 232.277 241.284ZM245.014 246.144C244.114 246.144 243.316 245.946 242.62 245.55C241.924 245.142 241.378 244.572 240.982 243.84C240.598 243.108 240.406 242.268 240.406 241.32C240.406 240.372 240.598 239.538 240.982 238.818C241.378 238.086 241.924 237.522 242.62 237.126C243.316 236.718 244.114 236.514 245.014 236.514C245.77 236.514 246.442 236.646 247.03 236.91C247.63 237.174 248.116 237.57 248.488 238.098C248.872 238.626 249.118 239.268 249.226 240.024H247.3C247.204 239.496 246.946 239.064 246.526 238.728C246.118 238.392 245.626 238.224 245.05 238.224C244.522 238.224 244.06 238.35 243.664 238.602C243.268 238.854 242.956 239.22 242.728 239.7C242.512 240.168 242.404 240.708 242.404 241.32C242.404 242.256 242.644 243.012 243.124 243.588C243.616 244.152 244.258 244.434 245.05 244.434C245.638 244.434 246.13 244.272 246.526 243.948C246.934 243.624 247.192 243.162 247.3 242.562H249.226C249.046 243.75 248.584 244.644 247.84 245.244C247.096 245.844 246.154 246.144 245.014 246.144ZM254.894 246.144C253.994 246.144 253.184 245.94 252.464 245.532C251.756 245.112 251.204 244.536 250.808 243.804C250.412 243.072 250.214 242.244 250.214 241.32C250.214 240.396 250.412 239.574 250.808 238.854C251.204 238.122 251.756 237.552 252.464 237.144C253.184 236.724 253.994 236.514 254.894 236.514C255.794 236.514 256.598 236.724 257.306 237.144C258.026 237.552 258.59 238.122 258.998 238.854C259.406 239.574 259.61 240.396 259.61 241.32C259.61 242.244 259.406 243.072 258.998 243.804C258.59 244.536 258.026 245.112 257.306 245.532C256.598 245.94 255.794 246.144 254.894 246.144ZM254.894 244.434C255.434 244.434 255.902 244.302 256.298 244.038C256.706 243.774 257.024 243.408 257.252 242.94C257.48 242.46 257.594 241.92 257.594 241.32C257.594 240.72 257.48 240.186 257.252 239.718C257.024 239.25 256.7 238.884 256.28 238.62C255.872 238.356 255.41 238.224 254.894 238.224C254.378 238.224 253.91 238.356 253.49 238.62C253.082 238.884 252.764 239.256 252.536 239.736C252.32 240.204 252.212 240.732 252.212 241.32C252.212 241.932 252.32 242.472 252.536 242.94C252.764 243.408 253.082 243.774 253.49 244.038C253.898 244.302 254.366 244.434 254.894 244.434ZM261.212 236.658H263.174V238.242C263.51 237.702 263.942 237.282 264.47 236.982C265.01 236.67 265.61 236.514 266.27 236.514C266.93 236.514 267.512 236.652 268.016 236.928C268.52 237.204 268.916 237.594 269.204 238.098C269.492 238.602 269.636 239.184 269.636 239.844V246H267.674V240.276C267.674 239.676 267.5 239.196 267.152 238.836C266.804 238.464 266.336 238.278 265.748 238.278C265.22 238.278 264.764 238.422 264.38 238.71C263.996 238.998 263.696 239.412 263.48 239.952C263.276 240.492 263.174 241.14 263.174 241.896V246H261.212V236.658ZM275.631 246.144C274.707 246.144 273.909 245.94 273.237 245.532C272.565 245.124 272.049 244.554 271.689 243.822C271.341 243.09 271.167 242.256 271.167 241.32C271.167 240.384 271.347 239.556 271.707 238.836C272.067 238.104 272.577 237.534 273.237 237.126C273.909 236.718 274.695 236.514 275.595 236.514C276.183 236.514 276.729 236.64 277.233 236.892C277.749 237.132 278.151 237.45 278.439 237.846V232.878H280.401V246H278.439V244.794C278.223 245.178 277.857 245.502 277.341 245.766C276.825 246.018 276.255 246.144 275.631 246.144ZM275.883 244.434C276.411 244.434 276.879 244.308 277.287 244.056C277.695 243.792 278.013 243.426 278.241 242.958C278.469 242.49 278.583 241.944 278.583 241.32C278.583 240.708 278.469 240.168 278.241 239.7C278.013 239.232 277.695 238.872 277.287 238.62C276.879 238.356 276.411 238.224 275.883 238.224C275.343 238.224 274.869 238.356 274.461 238.62C274.053 238.872 273.735 239.232 273.507 239.7C273.291 240.168 273.183 240.708 273.183 241.32C273.183 241.932 273.291 242.478 273.507 242.958C273.735 243.426 274.053 243.792 274.461 244.056C274.869 244.308 275.343 244.434 275.883 244.434ZM285.235 246.144C284.611 246.144 284.053 246.03 283.561 245.802C283.081 245.574 282.703 245.256 282.427 244.848C282.151 244.44 282.013 243.978 282.013 243.462C282.013 242.658 282.289 242.01 282.841 241.518C283.393 241.026 284.185 240.708 285.217 240.564L287.215 240.312C287.479 240.264 287.677 240.18 287.809 240.06C287.953 239.928 288.025 239.748 288.025 239.52C288.025 239.112 287.845 238.77 287.485 238.494C287.137 238.218 286.663 238.08 286.063 238.08C285.487 238.08 285.013 238.224 284.641 238.512C284.269 238.8 284.059 239.196 284.011 239.7H282.085C282.157 239.052 282.361 238.488 282.697 238.008C283.045 237.528 283.507 237.162 284.083 236.91C284.659 236.646 285.319 236.514 286.063 236.514C286.855 236.514 287.545 236.658 288.133 236.946C288.733 237.222 289.189 237.624 289.501 238.152C289.825 238.668 289.987 239.274 289.987 239.97V243.678C289.987 243.942 290.035 244.134 290.131 244.254C290.239 244.362 290.395 244.416 290.599 244.416C290.707 244.416 290.809 244.404 290.905 244.38V246C290.581 246.072 290.275 246.108 289.987 246.108C289.495 246.108 289.093 245.988 288.781 245.748C288.469 245.496 288.295 245.124 288.259 244.632C288.031 245.1 287.647 245.472 287.107 245.748C286.567 246.012 285.943 246.144 285.235 246.144ZM285.541 244.614C286.333 244.614 286.951 244.368 287.395 243.876C287.851 243.372 288.079 242.712 288.079 241.896V241.554L285.541 241.968C285.025 242.04 284.635 242.196 284.371 242.436C284.107 242.676 283.975 242.994 283.975 243.39C283.975 243.75 284.119 244.044 284.407 244.272C284.695 244.5 285.073 244.614 285.541 244.614ZM297.729 238.44C297.441 238.368 297.129 238.332 296.793 238.332C296.313 238.332 295.875 238.482 295.479 238.782C295.083 239.082 294.765 239.55 294.525 240.186C294.285 240.81 294.165 241.584 294.165 242.508V246H292.203V236.658H294.165V238.44C294.381 237.888 294.765 237.432 295.317 237.072C295.869 236.7 296.445 236.514 297.045 236.514C297.345 236.514 297.573 236.532 297.729 236.568V238.44ZM298.015 236.658H300.175L302.839 243.66L301.939 246.45L298.015 236.658ZM307.177 236.658L303.325 246.666C302.977 247.554 302.539 248.25 302.011 248.754C301.483 249.258 300.763 249.51 299.851 249.51C299.443 249.51 299.047 249.45 298.663 249.33V247.638C298.987 247.746 299.317 247.8 299.653 247.8C299.989 247.8 300.265 247.74 300.481 247.62C300.709 247.5 300.907 247.314 301.075 247.062C301.243 246.81 301.423 246.432 301.615 245.928L305.197 236.658H307.177ZM311.859 233.022H316.719C317.955 233.022 318.933 233.31 319.653 233.886C320.373 234.462 320.733 235.284 320.733 236.352C320.733 236.928 320.583 237.444 320.283 237.9C319.995 238.344 319.599 238.674 319.095 238.89C319.791 239.154 320.337 239.568 320.733 240.132C321.129 240.684 321.327 241.368 321.327 242.184C321.327 243 321.153 243.696 320.805 244.272C320.457 244.836 319.947 245.268 319.275 245.568C318.615 245.856 317.835 246 316.935 246H311.859V233.022ZM316.575 244.146C317.451 244.146 318.105 243.972 318.537 243.624C318.981 243.276 319.203 242.766 319.203 242.094C319.203 241.422 318.981 240.912 318.537 240.564C318.093 240.204 317.439 240.024 316.575 240.024H313.947V244.146H316.575ZM316.485 238.206C317.181 238.206 317.709 238.062 318.069 237.774C318.441 237.474 318.627 237.048 318.627 236.496C318.627 235.944 318.441 235.518 318.069 235.218C317.697 234.918 317.163 234.768 316.467 234.768H313.947V238.206H316.485ZM331.298 246H329.336V244.416C329 244.956 328.562 245.382 328.022 245.694C327.494 245.994 326.9 246.144 326.24 246.144C325.58 246.144 324.998 246.006 324.494 245.73C323.99 245.454 323.594 245.064 323.306 244.56C323.018 244.056 322.874 243.474 322.874 242.814V236.658H324.836V242.382C324.836 242.982 325.01 243.468 325.358 243.84C325.706 244.2 326.174 244.38 326.762 244.38C327.29 244.38 327.746 244.236 328.13 243.948C328.514 243.66 328.808 243.246 329.012 242.706C329.228 242.166 329.336 241.518 329.336 240.762V236.658H331.298V246ZM338.373 238.314H336.105V243.012C336.105 243.468 336.225 243.822 336.465 244.074C336.705 244.314 337.029 244.434 337.437 244.434C337.725 244.434 338.037 244.386 338.373 244.29V246C338.001 246.096 337.623 246.144 337.239 246.144C336.279 246.144 335.523 245.892 334.971 245.388C334.419 244.884 334.143 244.146 334.143 243.174V238.314H332.487V236.658H334.143V233.868H336.105V236.658H338.373V238.314ZM344.772 238.314H342.504V243.012C342.504 243.468 342.624 243.822 342.864 244.074C343.104 244.314 343.428 244.434 343.836 244.434C344.124 244.434 344.436 244.386 344.772 244.29V246C344.4 246.096 344.022 246.144 343.638 246.144C342.678 246.144 341.922 245.892 341.37 245.388C340.818 244.884 340.542 244.146 340.542 243.174V238.314H338.886V236.658H340.542V233.868H342.504V236.658H344.772V238.314ZM350.132 246.144C349.232 246.144 348.422 245.94 347.702 245.532C346.994 245.112 346.442 244.536 346.046 243.804C345.65 243.072 345.452 242.244 345.452 241.32C345.452 240.396 345.65 239.574 346.046 238.854C346.442 238.122 346.994 237.552 347.702 237.144C348.422 236.724 349.232 236.514 350.132 236.514C351.032 236.514 351.836 236.724 352.544 237.144C353.264 237.552 353.828 238.122 354.236 238.854C354.644 239.574 354.848 240.396 354.848 241.32C354.848 242.244 354.644 243.072 354.236 243.804C353.828 244.536 353.264 245.112 352.544 245.532C351.836 245.94 351.032 246.144 350.132 246.144ZM350.132 244.434C350.672 244.434 351.14 244.302 351.536 244.038C351.944 243.774 352.262 243.408 352.49 242.94C352.718 242.46 352.832 241.92 352.832 241.32C352.832 240.72 352.718 240.186 352.49 239.718C352.262 239.25 351.938 238.884 351.518 238.62C351.11 238.356 350.648 238.224 350.132 238.224C349.616 238.224 349.148 238.356 348.728 238.62C348.32 238.884 348.002 239.256 347.774 239.736C347.558 240.204 347.45 240.732 347.45 241.32C347.45 241.932 347.558 242.472 347.774 242.94C348.002 243.408 348.32 243.774 348.728 244.038C349.136 244.302 349.604 244.434 350.132 244.434ZM356.451 236.658H358.413V238.242C358.749 237.702 359.181 237.282 359.709 236.982C360.249 236.67 360.849 236.514 361.509 236.514C362.169 236.514 362.751 236.652 363.255 236.928C363.759 237.204 364.155 237.594 364.443 238.098C364.731 238.602 364.875 239.184 364.875 239.844V246H362.913V240.276C362.913 239.676 362.739 239.196 362.391 238.836C362.043 238.464 361.575 238.278 360.987 238.278C360.459 238.278 360.003 238.422 359.619 238.71C359.235 238.998 358.935 239.412 358.719 239.952C358.515 240.492 358.413 241.14 358.413 241.896V246H356.451V236.658Z" fill="white"/>
<path d="M131.242 111.022H136.678C137.53 111.022 138.262 111.184 138.874 111.508C139.498 111.82 139.978 112.27 140.314 112.858C140.65 113.446 140.818 114.13 140.818 114.91C140.818 115.666 140.65 116.344 140.314 116.944C139.978 117.532 139.498 117.994 138.874 118.33C138.25 118.666 137.518 118.834 136.678 118.834H133.33V124H131.242V111.022ZM136.408 116.98C137.116 116.98 137.674 116.794 138.082 116.422C138.49 116.038 138.694 115.534 138.694 114.91C138.694 114.286 138.49 113.794 138.082 113.434C137.674 113.062 137.116 112.876 136.408 112.876H133.33V116.98H136.408ZM147.662 116.44C147.374 116.368 147.062 116.332 146.726 116.332C146.246 116.332 145.808 116.482 145.412 116.782C145.016 117.082 144.698 117.55 144.458 118.186C144.218 118.81 144.098 119.584 144.098 120.508V124H142.136V114.658H144.098V116.44C144.314 115.888 144.698 115.432 145.25 115.072C145.802 114.7 146.378 114.514 146.978 114.514C147.278 114.514 147.506 114.532 147.662 114.568V116.44ZM148.921 114.658H150.883V124H148.921V114.658ZM151.009 110.878V113.092H148.831V110.878H151.009ZM153.017 114.658H154.979V116.26C155.243 115.72 155.603 115.294 156.059 114.982C156.527 114.67 157.085 114.514 157.733 114.514C158.489 114.514 159.125 114.676 159.641 115C160.169 115.312 160.529 115.768 160.721 116.368C160.985 115.828 161.387 115.384 161.927 115.036C162.467 114.688 163.085 114.514 163.781 114.514C164.441 114.514 165.017 114.646 165.509 114.91C166.013 115.174 166.397 115.552 166.661 116.044C166.937 116.524 167.075 117.076 167.075 117.7V124H165.113V118.186C165.113 117.574 164.945 117.094 164.609 116.746C164.285 116.386 163.829 116.206 163.241 116.206C162.545 116.206 161.999 116.488 161.603 117.052C161.219 117.616 161.027 118.36 161.027 119.284V124H159.065V118.186C159.065 117.574 158.903 117.094 158.579 116.746C158.255 116.386 157.799 116.206 157.211 116.206C156.743 116.206 156.341 116.338 156.005 116.602C155.681 116.854 155.429 117.214 155.249 117.682C155.069 118.15 154.979 118.684 154.979 119.284V124H153.017V114.658ZM169.101 114.658H171.063V124H169.101V114.658ZM171.189 110.878V113.092H169.011V110.878H171.189ZM178.147 116.314H175.879V121.012C175.879 121.468 175.999 121.822 176.239 122.074C176.479 122.314 176.803 122.434 177.211 122.434C177.499 122.434 177.811 122.386 178.147 122.29V124C177.775 124.096 177.397 124.144 177.013 124.144C176.053 124.144 175.297 123.892 174.745 123.388C174.193 122.884 173.917 122.146 173.917 121.174V116.314H172.261V114.658H173.917V111.868H175.879V114.658H178.147V116.314ZM179.595 114.658H181.557V124H179.595V114.658ZM181.683 110.878V113.092H179.505V110.878H181.683ZM182.737 114.658H184.735L187.111 121.75L189.505 114.658H191.467L188.065 124H186.157L182.737 114.658ZM193.726 119.284C193.726 120.28 193.972 121.06 194.464 121.624C194.956 122.188 195.622 122.47 196.462 122.47C197.05 122.47 197.548 122.338 197.956 122.074C198.376 121.81 198.64 121.444 198.748 120.976H200.674C200.566 121.636 200.314 122.206 199.918 122.686C199.534 123.166 199.036 123.532 198.424 123.784C197.824 124.024 197.152 124.144 196.408 124.144C195.46 124.144 194.638 123.922 193.942 123.478C193.246 123.034 192.712 122.446 192.34 121.714C191.98 120.982 191.8 120.184 191.8 119.32C191.8 118.456 191.974 117.658 192.322 116.926C192.67 116.194 193.186 115.612 193.87 115.18C194.554 114.736 195.37 114.514 196.318 114.514C197.242 114.514 198.04 114.724 198.712 115.144C199.384 115.552 199.888 116.098 200.224 116.782C200.572 117.466 200.74 118.204 200.728 118.996C200.728 119.224 200.716 119.488 200.692 119.788H192.934V118.24H198.622C198.586 117.82 198.472 117.448 198.28 117.124C198.1 116.788 197.842 116.53 197.506 116.35C197.17 116.158 196.774 116.062 196.318 116.062C195.778 116.062 195.31 116.194 194.914 116.458C194.53 116.71 194.236 117.082 194.032 117.574C193.828 118.054 193.726 118.624 193.726 119.284ZM211.215 124.144C210.219 124.144 209.337 123.958 208.569 123.586C207.813 123.214 207.225 122.674 206.805 121.966C206.385 121.258 206.175 120.4 206.175 119.392V111.022H208.263V119.446C208.263 120.046 208.383 120.562 208.623 120.994C208.875 121.426 209.223 121.756 209.667 121.984C210.111 122.2 210.627 122.308 211.215 122.308C212.115 122.308 212.835 122.056 213.375 121.552C213.927 121.048 214.203 120.346 214.203 119.446V111.022H216.291V119.392C216.291 120.4 216.081 121.258 215.661 121.966C215.241 122.674 214.647 123.214 213.879 123.586C213.111 123.958 212.223 124.144 211.215 124.144ZM218.658 111.022H220.746V124H218.658V111.022Z" fill="white"/>
<path d="M131.242 73.022H133.33V84.146H139.558V86H131.242V73.022ZM144.572 86.144C143.672 86.144 142.862 85.94 142.142 85.532C141.434 85.112 140.882 84.536 140.486 83.804C140.09 83.072 139.892 82.244 139.892 81.32C139.892 80.396 140.09 79.574 140.486 78.854C140.882 78.122 141.434 77.552 142.142 77.144C142.862 76.724 143.672 76.514 144.572 76.514C145.472 76.514 146.276 76.724 146.984 77.144C147.704 77.552 148.268 78.122 148.676 78.854C149.084 79.574 149.288 80.396 149.288 81.32C149.288 82.244 149.084 83.072 148.676 83.804C148.268 84.536 147.704 85.112 146.984 85.532C146.276 85.94 145.472 86.144 144.572 86.144ZM144.572 84.434C145.112 84.434 145.58 84.302 145.976 84.038C146.384 83.774 146.702 83.408 146.93 82.94C147.158 82.46 147.272 81.92 147.272 81.32C147.272 80.72 147.158 80.186 146.93 79.718C146.702 79.25 146.378 78.884 145.958 78.62C145.55 78.356 145.088 78.224 144.572 78.224C144.056 78.224 143.588 78.356 143.168 78.62C142.76 78.884 142.442 79.256 142.214 79.736C141.998 80.204 141.89 80.732 141.89 81.32C141.89 81.932 141.998 82.472 142.214 82.94C142.442 83.408 142.76 83.774 143.168 84.038C143.576 84.302 144.044 84.434 144.572 84.434ZM154.994 86.144C154.094 86.144 153.296 85.946 152.6 85.55C151.904 85.142 151.358 84.572 150.962 83.84C150.578 83.108 150.386 82.268 150.386 81.32C150.386 80.372 150.578 79.538 150.962 78.818C151.358 78.086 151.904 77.522 152.6 77.126C153.296 76.718 154.094 76.514 154.994 76.514C155.75 76.514 156.422 76.646 157.01 76.91C157.61 77.174 158.096 77.57 158.468 78.098C158.852 78.626 159.098 79.268 159.206 80.024H157.28C157.184 79.496 156.926 79.064 156.506 78.728C156.098 78.392 155.606 78.224 155.03 78.224C154.502 78.224 154.04 78.35 153.644 78.602C153.248 78.854 152.936 79.22 152.708 79.7C152.492 80.168 152.384 80.708 152.384 81.32C152.384 82.256 152.624 83.012 153.104 83.588C153.596 84.152 154.238 84.434 155.03 84.434C155.618 84.434 156.11 84.272 156.506 83.948C156.914 83.624 157.172 83.162 157.28 82.562H159.206C159.026 83.75 158.564 84.644 157.82 85.244C157.076 85.844 156.134 86.144 154.994 86.144ZM163.416 86.144C162.792 86.144 162.234 86.03 161.742 85.802C161.262 85.574 160.884 85.256 160.608 84.848C160.332 84.44 160.194 83.978 160.194 83.462C160.194 82.658 160.47 82.01 161.022 81.518C161.574 81.026 162.366 80.708 163.398 80.564L165.396 80.312C165.66 80.264 165.858 80.18 165.99 80.06C166.134 79.928 166.206 79.748 166.206 79.52C166.206 79.112 166.026 78.77 165.666 78.494C165.318 78.218 164.844 78.08 164.244 78.08C163.668 78.08 163.194 78.224 162.822 78.512C162.45 78.8 162.24 79.196 162.192 79.7H160.266C160.338 79.052 160.542 78.488 160.878 78.008C161.226 77.528 161.688 77.162 162.264 76.91C162.84 76.646 163.5 76.514 164.244 76.514C165.036 76.514 165.726 76.658 166.314 76.946C166.914 77.222 167.37 77.624 167.682 78.152C168.006 78.668 168.168 79.274 168.168 79.97V83.678C168.168 83.942 168.216 84.134 168.312 84.254C168.42 84.362 168.576 84.416 168.78 84.416C168.888 84.416 168.99 84.404 169.086 84.38V86C168.762 86.072 168.456 86.108 168.168 86.108C167.676 86.108 167.274 85.988 166.962 85.748C166.65 85.496 166.476 85.124 166.44 84.632C166.212 85.1 165.828 85.472 165.288 85.748C164.748 86.012 164.124 86.144 163.416 86.144ZM163.722 84.614C164.514 84.614 165.132 84.368 165.576 83.876C166.032 83.372 166.26 82.712 166.26 81.896V81.554L163.722 81.968C163.206 82.04 162.816 82.196 162.552 82.436C162.288 82.676 162.156 82.994 162.156 83.39C162.156 83.75 162.3 84.044 162.588 84.272C162.876 84.5 163.254 84.614 163.722 84.614ZM170.384 72.878H172.346V86H170.384V72.878ZM184.164 86.144C183 86.144 181.932 85.898 180.96 85.406C180 84.902 179.232 84.152 178.656 83.156C178.08 82.148 177.792 80.93 177.792 79.502C177.792 78.086 178.086 76.88 178.674 75.884C179.262 74.876 180.036 74.126 180.996 73.634C181.968 73.13 183.024 72.878 184.164 72.878C185.16 72.878 186.06 73.058 186.864 73.418C187.68 73.778 188.346 74.3 188.862 74.984C189.378 75.668 189.702 76.484 189.834 77.432H187.638C187.506 76.604 187.116 75.944 186.468 75.452C185.832 74.96 185.058 74.714 184.146 74.714C183.342 74.714 182.616 74.906 181.968 75.29C181.332 75.662 180.828 76.208 180.456 76.928C180.096 77.648 179.916 78.506 179.916 79.502C179.916 80.51 180.096 81.374 180.456 82.094C180.828 82.814 181.332 83.366 181.968 83.75C182.604 84.122 183.33 84.308 184.146 84.308C185.07 84.308 185.844 84.068 186.468 83.588C187.092 83.108 187.482 82.442 187.638 81.59H189.852C189.696 82.562 189.354 83.39 188.826 84.074C188.298 84.758 187.632 85.274 186.828 85.622C186.024 85.97 185.136 86.144 184.164 86.144ZM195.531 86.144C194.631 86.144 193.821 85.94 193.101 85.532C192.393 85.112 191.841 84.536 191.445 83.804C191.049 83.072 190.851 82.244 190.851 81.32C190.851 80.396 191.049 79.574 191.445 78.854C191.841 78.122 192.393 77.552 193.101 77.144C193.821 76.724 194.631 76.514 195.531 76.514C196.431 76.514 197.235 76.724 197.943 77.144C198.663 77.552 199.227 78.122 199.635 78.854C200.043 79.574 200.247 80.396 200.247 81.32C200.247 82.244 200.043 83.072 199.635 83.804C199.227 84.536 198.663 85.112 197.943 85.532C197.235 85.94 196.431 86.144 195.531 86.144ZM195.531 84.434C196.071 84.434 196.539 84.302 196.935 84.038C197.343 83.774 197.661 83.408 197.889 82.94C198.117 82.46 198.231 81.92 198.231 81.32C198.231 80.72 198.117 80.186 197.889 79.718C197.661 79.25 197.337 78.884 196.917 78.62C196.509 78.356 196.047 78.224 195.531 78.224C195.015 78.224 194.547 78.356 194.127 78.62C193.719 78.884 193.401 79.256 193.173 79.736C192.957 80.204 192.849 80.732 192.849 81.32C192.849 81.932 192.957 82.472 193.173 82.94C193.401 83.408 193.719 83.774 194.127 84.038C194.535 84.302 195.003 84.434 195.531 84.434ZM201.849 76.658H203.811V78.26C204.075 77.72 204.435 77.294 204.891 76.982C205.359 76.67 205.917 76.514 206.565 76.514C207.321 76.514 207.957 76.676 208.473 77C209.001 77.312 209.361 77.768 209.553 78.368C209.817 77.828 210.219 77.384 210.759 77.036C211.299 76.688 211.917 76.514 212.613 76.514C213.273 76.514 213.849 76.646 214.341 76.91C214.845 77.174 215.229 77.552 215.493 78.044C215.769 78.524 215.907 79.076 215.907 79.7V86H213.945V80.186C213.945 79.574 213.777 79.094 213.441 78.746C213.117 78.386 212.661 78.206 212.073 78.206C211.377 78.206 210.831 78.488 210.435 79.052C210.051 79.616 209.859 80.36 209.859 81.284V86H207.897V80.186C207.897 79.574 207.735 79.094 207.411 78.746C207.087 78.386 206.631 78.206 206.043 78.206C205.575 78.206 205.173 78.338 204.837 78.602C204.513 78.854 204.261 79.214 204.081 79.682C203.901 80.15 203.811 80.684 203.811 81.284V86H201.849V76.658ZM217.933 76.658H219.895V77.864C220.159 77.468 220.549 77.144 221.065 76.892C221.593 76.64 222.169 76.514 222.793 76.514C223.681 76.514 224.455 76.718 225.115 77.126C225.787 77.534 226.297 78.104 226.645 78.836C226.993 79.556 227.167 80.384 227.167 81.32C227.167 82.256 226.981 83.09 226.609 83.822C226.249 84.542 225.727 85.112 225.043 85.532C224.371 85.94 223.579 86.144 222.667 86.144C222.115 86.144 221.587 86.03 221.083 85.802C220.579 85.574 220.183 85.274 219.895 84.902V89.366H217.933V76.658ZM222.469 84.434C223.009 84.434 223.483 84.308 223.891 84.056C224.299 83.792 224.611 83.426 224.827 82.958C225.055 82.49 225.169 81.944 225.169 81.32C225.169 80.708 225.055 80.168 224.827 79.7C224.611 79.232 224.299 78.872 223.891 78.62C223.483 78.356 223.009 78.224 222.469 78.224C221.941 78.224 221.467 78.356 221.047 78.62C220.639 78.872 220.321 79.232 220.093 79.7C219.877 80.168 219.769 80.708 219.769 81.32C219.769 81.944 219.877 82.49 220.093 82.958C220.321 83.426 220.639 83.792 221.047 84.056C221.467 84.308 221.941 84.434 222.469 84.434ZM232.954 86.144C232.054 86.144 231.244 85.94 230.524 85.532C229.816 85.112 229.264 84.536 228.868 83.804C228.472 83.072 228.274 82.244 228.274 81.32C228.274 80.396 228.472 79.574 228.868 78.854C229.264 78.122 229.816 77.552 230.524 77.144C231.244 76.724 232.054 76.514 232.954 76.514C233.854 76.514 234.658 76.724 235.366 77.144C236.086 77.552 236.65 78.122 237.058 78.854C237.466 79.574 237.67 80.396 237.67 81.32C237.67 82.244 237.466 83.072 237.058 83.804C236.65 84.536 236.086 85.112 235.366 85.532C234.658 85.94 233.854 86.144 232.954 86.144ZM232.954 84.434C233.494 84.434 233.962 84.302 234.358 84.038C234.766 83.774 235.084 83.408 235.312 82.94C235.54 82.46 235.654 81.92 235.654 81.32C235.654 80.72 235.54 80.186 235.312 79.718C235.084 79.25 234.76 78.884 234.34 78.62C233.932 78.356 233.47 78.224 232.954 78.224C232.438 78.224 231.97 78.356 231.55 78.62C231.142 78.884 230.824 79.256 230.596 79.736C230.38 80.204 230.272 80.732 230.272 81.32C230.272 81.932 230.38 82.472 230.596 82.94C230.824 83.408 231.142 83.774 231.55 84.038C231.958 84.302 232.426 84.434 232.954 84.434ZM239.273 76.658H241.235V78.242C241.571 77.702 242.003 77.282 242.531 76.982C243.071 76.67 243.671 76.514 244.331 76.514C244.991 76.514 245.573 76.652 246.077 76.928C246.581 77.204 246.977 77.594 247.265 78.098C247.553 78.602 247.697 79.184 247.697 79.844V86H245.735V80.276C245.735 79.676 245.561 79.196 245.213 78.836C244.865 78.464 244.397 78.278 243.809 78.278C243.281 78.278 242.825 78.422 242.441 78.71C242.057 78.998 241.757 79.412 241.541 79.952C241.337 80.492 241.235 81.14 241.235 81.896V86H239.273V76.658ZM251.136 81.284C251.136 82.28 251.382 83.06 251.874 83.624C252.366 84.188 253.032 84.47 253.872 84.47C254.46 84.47 254.958 84.338 255.366 84.074C255.786 83.81 256.05 83.444 256.158 82.976H258.084C257.976 83.636 257.724 84.206 257.328 84.686C256.944 85.166 256.446 85.532 255.834 85.784C255.234 86.024 254.562 86.144 253.818 86.144C252.87 86.144 252.048 85.922 251.352 85.478C250.656 85.034 250.122 84.446 249.75 83.714C249.39 82.982 249.21 82.184 249.21 81.32C249.21 80.456 249.384 79.658 249.732 78.926C250.08 78.194 250.596 77.612 251.28 77.18C251.964 76.736 252.78 76.514 253.728 76.514C254.652 76.514 255.45 76.724 256.122 77.144C256.794 77.552 257.298 78.098 257.634 78.782C257.982 79.466 258.15 80.204 258.138 80.996C258.138 81.224 258.126 81.488 258.102 81.788H250.344V80.24H256.032C255.996 79.82 255.882 79.448 255.69 79.124C255.51 78.788 255.252 78.53 254.916 78.35C254.58 78.158 254.184 78.062 253.728 78.062C253.188 78.062 252.72 78.194 252.324 78.458C251.94 78.71 251.646 79.082 251.442 79.574C251.238 80.054 251.136 80.624 251.136 81.284ZM259.769 76.658H261.731V78.242C262.067 77.702 262.499 77.282 263.027 76.982C263.567 76.67 264.167 76.514 264.827 76.514C265.487 76.514 266.069 76.652 266.573 76.928C267.077 77.204 267.473 77.594 267.761 78.098C268.049 78.602 268.193 79.184 268.193 79.844V86H266.231V80.276C266.231 79.676 266.057 79.196 265.709 78.836C265.361 78.464 264.893 78.278 264.305 78.278C263.777 78.278 263.321 78.422 262.937 78.71C262.553 78.998 262.253 79.412 262.037 79.952C261.833 80.492 261.731 81.14 261.731 81.896V86H259.769V76.658ZM275.055 78.314H272.787V83.012C272.787 83.468 272.907 83.822 273.147 84.074C273.387 84.314 273.711 84.434 274.119 84.434C274.407 84.434 274.719 84.386 275.055 84.29V86C274.683 86.096 274.305 86.144 273.921 86.144C272.961 86.144 272.205 85.892 271.653 85.388C271.101 84.884 270.825 84.146 270.825 83.174V78.314H269.169V76.658H270.825V73.868H272.787V76.658H275.055V78.314ZM279.798 86.144C279.03 86.144 278.346 86.006 277.746 85.73C277.158 85.442 276.69 85.046 276.342 84.542C276.006 84.038 275.826 83.468 275.802 82.832H277.728C277.752 83.264 277.956 83.642 278.34 83.966C278.736 84.29 279.222 84.452 279.798 84.452C280.314 84.452 280.728 84.344 281.04 84.128C281.364 83.912 281.526 83.642 281.526 83.318C281.526 83.018 281.424 82.784 281.22 82.616C281.028 82.436 280.746 82.304 280.374 82.22L278.826 81.86C278.034 81.68 277.398 81.386 276.918 80.978C276.45 80.558 276.216 79.946 276.216 79.142C276.216 78.65 276.354 78.206 276.63 77.81C276.918 77.414 277.32 77.102 277.836 76.874C278.352 76.634 278.946 76.514 279.618 76.514C280.278 76.514 280.872 76.634 281.4 76.874C281.94 77.102 282.378 77.438 282.714 77.882C283.062 78.314 283.272 78.824 283.344 79.412H281.418C281.37 79.016 281.172 78.704 280.824 78.476C280.488 78.236 280.086 78.116 279.618 78.116C279.186 78.116 278.838 78.212 278.574 78.404C278.31 78.584 278.178 78.83 278.178 79.142C278.178 79.382 278.274 79.592 278.466 79.772C278.658 79.94 278.928 80.06 279.276 80.132L280.824 80.474C281.688 80.666 282.354 80.966 282.822 81.374C283.29 81.77 283.524 82.4 283.524 83.264C283.524 83.804 283.368 84.296 283.056 84.74C282.744 85.172 282.306 85.514 281.742 85.766C281.178 86.018 280.53 86.144 279.798 86.144Z" fill="white"/>
<path d="M108.746 121.004L105.246 117.504C105 117.258 104.918 116.875 105.055 116.547C105.191 116.219 105.52 116 105.875 116H112.875C113.23 116 113.531 116.219 113.668 116.547C113.805 116.875 113.723 117.258 113.477 117.504L109.977 121.004C109.648 121.359 109.074 121.359 108.746 121.004Z" fill="white"/>
<path d="M111.727 80.3789L108.227 83.8789C107.98 84.125 107.598 84.207 107.27 84.0703C106.941 83.9336 106.723 83.6055 106.723 83.25V76.25C106.723 75.8945 106.941 75.5938 107.27 75.457C107.598 75.3203 107.98 75.4023 108.227 75.6484L111.727 79.1484C112.082 79.4766 112.082 80.0508 111.727 80.3789Z" fill="white"/>
<defs>
<filter id="filter0_di_2161_2391" x="73" y="45" width="495" height="265" filterUnits="userSpaceOnUse" color-interpolation-filters="sRGB">
<feFlood flood-opacity="0" result="BackgroundImageFix"/>
<feColorMatrix in="SourceAlpha" type="matrix" values="0 0 0 0 0 0 0 0 0 0 0 0 0 0 0 0 0 0 127 0" result="hardAlpha"/>
<feOffset dy="8"/>
<feGaussianBlur stdDeviation="4"/>
<feComposite in2="hardAlpha" operator="out"/>
<feColorMatrix type="matrix" values="0 0 0 0 0 0 0 0 0 0 0 0 0 0 0 0 0 0 0.15 0"/>
<feBlend mode="normal" in2="BackgroundImageFix" result="effect1_dropShadow_2161_2391"/>
<feBlend mode="normal" in="SourceGraphic" in2="effect1_dropShadow_2161_2391" result="shape"/>
<feColorMatrix in="SourceAlpha" type="matrix" values="0 0 0 0 0 0 0 0 0 0 0 0 0 0 0 0 0 0 127 0" result="hardAlpha"/>
<feOffset dy="1"/>
<feGaussianBlur stdDeviation="1"/>
<feComposite in2="hardAlpha" operator="arithmetic" k2="-1" k3="1"/>
<feColorMatrix type="matrix" values="0 0 0 0 1 0 0 0 0 1 0 0 0 0 1 0 0 0 0.4 0"/>
<feBlend mode="normal" in2="shape" result="effect2_innerShadow_2161_2391"/>
</filter>
<clipPath id="clip0_2161_2391">
<rect x="81" y="45" width="479" height="249" rx="6" fill="white"/>
</clipPath>
</defs>
</svg>
