<svg width="640" height="340" viewBox="0 0 640 340" fill="none" xmlns="http://www.w3.org/2000/svg">
<path d="M467.519 101.112C466.614 101.112 465.783 100.921 465.027 100.538C464.281 100.146 463.683 99.5627 463.235 98.788C462.787 98.004 462.563 97.0567 462.563 95.946C462.563 94.8447 462.792 93.9067 463.249 93.132C463.707 92.348 464.309 91.7647 465.055 91.382C465.811 90.99 466.633 90.794 467.519 90.794C468.294 90.794 468.994 90.934 469.619 91.214C470.254 91.494 470.772 91.9 471.173 92.432C471.575 92.964 471.827 93.5987 471.929 94.336H470.221C470.119 93.692 469.815 93.1787 469.311 92.796C468.817 92.4133 468.215 92.222 467.505 92.222C466.88 92.222 466.315 92.3713 465.811 92.67C465.317 92.9593 464.925 93.384 464.635 93.944C464.355 94.504 464.215 95.1713 464.215 95.946C464.215 96.73 464.355 97.402 464.635 97.962C464.925 98.522 465.317 98.9513 465.811 99.25C466.306 99.5393 466.871 99.684 467.505 99.684C468.224 99.684 468.826 99.4973 469.311 99.124C469.797 98.7507 470.1 98.2327 470.221 97.57H471.943C471.822 98.326 471.556 98.97 471.145 99.502C470.735 100.034 470.217 100.435 469.591 100.706C468.966 100.977 468.275 101.112 467.519 101.112ZM476.36 101.112C475.66 101.112 475.03 100.953 474.47 100.636C473.919 100.309 473.49 99.8613 473.182 99.292C472.874 98.7227 472.72 98.0787 472.72 97.36C472.72 96.6413 472.874 96.002 473.182 95.442C473.49 94.8727 473.919 94.4293 474.47 94.112C475.03 93.7853 475.66 93.622 476.36 93.622C477.06 93.622 477.685 93.7853 478.236 94.112C478.796 94.4293 479.234 94.8727 479.552 95.442C479.869 96.002 480.028 96.6413 480.028 97.36C480.028 98.0787 479.869 98.7227 479.552 99.292C479.234 99.8613 478.796 100.309 478.236 100.636C477.685 100.953 477.06 101.112 476.36 101.112ZM476.36 99.782C476.78 99.782 477.144 99.6793 477.452 99.474C477.769 99.2687 478.016 98.984 478.194 98.62C478.371 98.2467 478.46 97.8267 478.46 97.36C478.46 96.8933 478.371 96.478 478.194 96.114C478.016 95.75 477.764 95.4653 477.438 95.26C477.12 95.0547 476.761 94.952 476.36 94.952C475.958 94.952 475.594 95.0547 475.268 95.26C474.95 95.4653 474.703 95.7547 474.526 96.128C474.358 96.492 474.274 96.9027 474.274 97.36C474.274 97.836 474.358 98.256 474.526 98.62C474.703 98.984 474.95 99.2687 475.268 99.474C475.585 99.6793 475.949 99.782 476.36 99.782ZM481.274 93.734H482.8V94.966C483.062 94.546 483.398 94.2193 483.808 93.986C484.228 93.7433 484.695 93.622 485.208 93.622C485.722 93.622 486.174 93.7293 486.566 93.944C486.958 94.1587 487.266 94.462 487.49 94.854C487.714 95.246 487.826 95.6987 487.826 96.212V101H486.3V96.548C486.3 96.0813 486.165 95.708 485.894 95.428C485.624 95.1387 485.26 94.994 484.802 94.994C484.392 94.994 484.037 95.106 483.738 95.33C483.44 95.554 483.206 95.876 483.038 96.296C482.88 96.716 482.8 97.22 482.8 97.808V101H481.274V93.734ZM489.409 93.734H490.935V94.966C491.196 94.546 491.532 94.2193 491.943 93.986C492.363 93.7433 492.83 93.622 493.343 93.622C493.856 93.622 494.309 93.7293 494.701 93.944C495.093 94.1587 495.401 94.462 495.625 94.854C495.849 95.246 495.961 95.6987 495.961 96.212V101H494.435V96.548C494.435 96.0813 494.3 95.708 494.029 95.428C493.758 95.1387 493.394 94.994 492.937 94.994C492.526 94.994 492.172 95.106 491.873 95.33C491.574 95.554 491.341 95.876 491.173 96.296C491.014 96.716 490.935 97.22 490.935 97.808V101H489.409V93.734ZM498.636 97.332C498.636 98.1067 498.827 98.7133 499.21 99.152C499.592 99.5907 500.11 99.81 500.764 99.81C501.221 99.81 501.608 99.7073 501.926 99.502C502.252 99.2967 502.458 99.012 502.542 98.648H504.04C503.956 99.1613 503.76 99.6047 503.452 99.978C503.153 100.351 502.766 100.636 502.29 100.832C501.823 101.019 501.3 101.112 500.722 101.112C499.984 101.112 499.345 100.939 498.804 100.594C498.262 100.249 497.847 99.7913 497.558 99.222C497.278 98.6527 497.138 98.032 497.138 97.36C497.138 96.688 497.273 96.0673 497.544 95.498C497.814 94.9287 498.216 94.476 498.748 94.14C499.28 93.7947 499.914 93.622 500.652 93.622C501.37 93.622 501.991 93.7853 502.514 94.112C503.036 94.4293 503.428 94.854 503.69 95.386C503.96 95.918 504.091 96.492 504.082 97.108C504.082 97.2853 504.072 97.4907 504.054 97.724H498.02V96.52H502.444C502.416 96.1933 502.327 95.904 502.178 95.652C502.038 95.3907 501.837 95.19 501.576 95.05C501.314 94.9007 501.006 94.826 500.652 94.826C500.232 94.826 499.868 94.9287 499.56 95.134C499.261 95.33 499.032 95.6193 498.874 96.002C498.715 96.3753 498.636 96.8187 498.636 97.332ZM508.542 101.112C507.842 101.112 507.222 100.958 506.68 100.65C506.139 100.333 505.714 99.8893 505.406 99.32C505.108 98.7507 504.958 98.0973 504.958 97.36C504.958 96.6227 505.108 95.974 505.406 95.414C505.714 94.8447 506.139 94.406 506.68 94.098C507.222 93.7807 507.842 93.622 508.542 93.622C509.13 93.622 509.653 93.7247 510.11 93.93C510.577 94.1353 510.955 94.4433 511.244 94.854C511.543 95.2647 511.734 95.764 511.818 96.352H510.32C510.246 95.9413 510.045 95.6053 509.718 95.344C509.401 95.0827 509.018 94.952 508.57 94.952C508.16 94.952 507.8 95.05 507.492 95.246C507.184 95.442 506.942 95.7267 506.764 96.1C506.596 96.464 506.512 96.884 506.512 97.36C506.512 98.088 506.699 98.676 507.072 99.124C507.455 99.5627 507.954 99.782 508.57 99.782C509.028 99.782 509.41 99.656 509.718 99.404C510.036 99.152 510.236 98.7927 510.32 98.326H511.818C511.678 99.25 511.319 99.9453 510.74 100.412C510.162 100.879 509.429 101.112 508.542 101.112ZM516.802 95.022H515.038V98.676C515.038 99.0307 515.131 99.306 515.318 99.502C515.505 99.6887 515.757 99.782 516.074 99.782C516.298 99.782 516.541 99.7447 516.802 99.67V101C516.513 101.075 516.219 101.112 515.92 101.112C515.173 101.112 514.585 100.916 514.156 100.524C513.727 100.132 513.512 99.558 513.512 98.802V95.022H512.224V93.734H513.512V91.564H515.038V93.734H516.802V95.022ZM518.829 97.332C518.829 98.1067 519.02 98.7133 519.403 99.152C519.786 99.5907 520.304 99.81 520.957 99.81C521.414 99.81 521.802 99.7073 522.119 99.502C522.446 99.2967 522.651 99.012 522.735 98.648H524.233C524.149 99.1613 523.953 99.6047 523.645 99.978C523.346 100.351 522.959 100.636 522.483 100.832C522.016 101.019 521.494 101.112 520.915 101.112C520.178 101.112 519.538 100.939 518.997 100.594C518.456 100.249 518.04 99.7913 517.751 99.222C517.471 98.6527 517.331 98.032 517.331 97.36C517.331 96.688 517.466 96.0673 517.737 95.498C518.008 94.9287 518.409 94.476 518.941 94.14C519.473 93.7947 520.108 93.622 520.845 93.622C521.564 93.622 522.184 93.7853 522.707 94.112C523.23 94.4293 523.622 94.854 523.883 95.386C524.154 95.918 524.284 96.492 524.275 97.108C524.275 97.2853 524.266 97.4907 524.247 97.724H518.213V96.52H522.637C522.609 96.1933 522.52 95.904 522.371 95.652C522.231 95.3907 522.03 95.19 521.769 95.05C521.508 94.9007 521.2 94.826 520.845 94.826C520.425 94.826 520.061 94.9287 519.753 95.134C519.454 95.33 519.226 95.6193 519.067 96.002C518.908 96.3753 518.829 96.8187 518.829 97.332ZM528.624 101.112C527.905 101.112 527.284 100.953 526.762 100.636C526.239 100.319 525.838 99.8753 525.558 99.306C525.287 98.7367 525.152 98.088 525.152 97.36C525.152 96.632 525.292 95.988 525.572 95.428C525.852 94.8587 526.248 94.4153 526.762 94.098C527.284 93.7807 527.896 93.622 528.596 93.622C529.053 93.622 529.478 93.72 529.87 93.916C530.271 94.1027 530.584 94.35 530.808 94.658V90.794H532.334V101H530.808V100.062C530.64 100.361 530.355 100.613 529.954 100.818C529.552 101.014 529.109 101.112 528.624 101.112ZM528.82 99.782C529.23 99.782 529.594 99.684 529.912 99.488C530.229 99.2827 530.476 98.998 530.654 98.634C530.831 98.27 530.92 97.8453 530.92 97.36C530.92 96.884 530.831 96.464 530.654 96.1C530.476 95.736 530.229 95.456 529.912 95.26C529.594 95.0547 529.23 94.952 528.82 94.952C528.4 94.952 528.031 95.0547 527.714 95.26C527.396 95.456 527.149 95.736 526.972 96.1C526.804 96.464 526.72 96.884 526.72 97.36C526.72 97.836 526.804 98.2607 526.972 98.634C527.149 98.998 527.396 99.2827 527.714 99.488C528.031 99.684 528.4 99.782 528.82 99.782ZM540.881 101.112C540.106 101.112 539.42 100.967 538.823 100.678C538.235 100.389 537.778 99.9687 537.451 99.418C537.124 98.8673 536.961 98.2 536.961 97.416V90.906H538.585V97.458C538.585 97.9247 538.678 98.326 538.865 98.662C539.061 98.998 539.332 99.2547 539.677 99.432C540.022 99.6 540.424 99.684 540.881 99.684C541.581 99.684 542.141 99.488 542.561 99.096C542.99 98.704 543.205 98.158 543.205 97.458V90.906H544.829V97.416C544.829 98.2 544.666 98.8673 544.339 99.418C544.012 99.9687 543.55 100.389 542.953 100.678C542.356 100.967 541.665 101.112 540.881 101.112ZM548.997 101.112C548.4 101.112 547.868 101.005 547.401 100.79C546.944 100.566 546.58 100.258 546.309 99.866C546.048 99.474 545.908 99.0307 545.889 98.536H547.387C547.406 98.872 547.564 99.166 547.863 99.418C548.171 99.67 548.549 99.796 548.997 99.796C549.398 99.796 549.72 99.712 549.963 99.544C550.215 99.376 550.341 99.166 550.341 98.914C550.341 98.6807 550.262 98.4987 550.103 98.368C549.954 98.228 549.734 98.1253 549.445 98.06L548.241 97.78C547.625 97.64 547.13 97.4113 546.757 97.094C546.393 96.7673 546.211 96.2913 546.211 95.666C546.211 95.2833 546.318 94.938 546.533 94.63C546.757 94.322 547.07 94.0793 547.471 93.902C547.872 93.7153 548.334 93.622 548.857 93.622C549.37 93.622 549.832 93.7153 550.243 93.902C550.663 94.0793 551.004 94.3407 551.265 94.686C551.536 95.022 551.699 95.4187 551.755 95.876H550.257C550.22 95.568 550.066 95.3253 549.795 95.148C549.534 94.9613 549.221 94.868 548.857 94.868C548.521 94.868 548.25 94.9427 548.045 95.092C547.84 95.232 547.737 95.4233 547.737 95.666C547.737 95.8527 547.812 96.016 547.961 96.156C548.11 96.2867 548.32 96.38 548.591 96.436L549.795 96.702C550.467 96.8513 550.985 97.0847 551.349 97.402C551.713 97.71 551.895 98.2 551.895 98.872C551.895 99.292 551.774 99.6747 551.531 100.02C551.288 100.356 550.948 100.622 550.509 100.818C550.07 101.014 549.566 101.112 548.997 101.112ZM554.226 97.332C554.226 98.1067 554.417 98.7133 554.8 99.152C555.182 99.5907 555.7 99.81 556.354 99.81C556.811 99.81 557.198 99.7073 557.516 99.502C557.842 99.2967 558.048 99.012 558.132 98.648H559.63C559.546 99.1613 559.35 99.6047 559.042 99.978C558.743 100.351 558.356 100.636 557.88 100.832C557.413 101.019 556.89 101.112 556.312 101.112C555.574 101.112 554.935 100.939 554.394 100.594C553.852 100.249 553.437 99.7913 553.148 99.222C552.868 98.6527 552.728 98.032 552.728 97.36C552.728 96.688 552.863 96.0673 553.134 95.498C553.404 94.9287 553.806 94.476 554.338 94.14C554.87 93.7947 555.504 93.622 556.242 93.622C556.96 93.622 557.581 93.7853 558.104 94.112C558.626 94.4293 559.018 94.854 559.28 95.386C559.55 95.918 559.681 96.492 559.672 97.108C559.672 97.2853 559.662 97.4907 559.644 97.724H553.61V96.52H558.034C558.006 96.1933 557.917 95.904 557.768 95.652C557.628 95.3907 557.427 95.19 557.166 95.05C556.904 94.9007 556.596 94.826 556.242 94.826C555.822 94.826 555.458 94.9287 555.15 95.134C554.851 95.33 554.622 95.6193 554.464 96.002C554.305 96.3753 554.226 96.8187 554.226 97.332ZM565.238 95.12C565.014 95.064 564.772 95.036 564.51 95.036C564.137 95.036 563.796 95.1527 563.488 95.386C563.18 95.6193 562.933 95.9833 562.746 96.478C562.56 96.9633 562.466 97.5653 562.466 98.284V101H560.94V93.734H562.466V95.12C562.634 94.6907 562.933 94.336 563.362 94.056C563.792 93.7667 564.24 93.622 564.706 93.622C564.94 93.622 565.117 93.636 565.238 93.664V95.12ZM568.616 101.112C568.019 101.112 567.487 101.005 567.02 100.79C566.563 100.566 566.199 100.258 565.928 99.866C565.667 99.474 565.527 99.0307 565.508 98.536H567.006C567.025 98.872 567.184 99.166 567.482 99.418C567.79 99.67 568.168 99.796 568.616 99.796C569.018 99.796 569.34 99.712 569.582 99.544C569.834 99.376 569.96 99.166 569.96 98.914C569.96 98.6807 569.881 98.4987 569.722 98.368C569.573 98.228 569.354 98.1253 569.064 98.06L567.86 97.78C567.244 97.64 566.75 97.4113 566.376 97.094C566.012 96.7673 565.83 96.2913 565.83 95.666C565.83 95.2833 565.938 94.938 566.152 94.63C566.376 94.322 566.689 94.0793 567.09 93.902C567.492 93.7153 567.954 93.622 568.476 93.622C568.99 93.622 569.452 93.7153 569.862 93.902C570.282 94.0793 570.623 94.3407 570.884 94.686C571.155 95.022 571.318 95.4187 571.374 95.876H569.876C569.839 95.568 569.685 95.3253 569.414 95.148C569.153 94.9613 568.84 94.868 568.476 94.868C568.14 94.868 567.87 94.9427 567.664 95.092C567.459 95.232 567.356 95.4233 567.356 95.666C567.356 95.8527 567.431 96.016 567.58 96.156C567.73 96.2867 567.94 96.38 568.21 96.436L569.414 96.702C570.086 96.8513 570.604 97.0847 570.968 97.402C571.332 97.71 571.514 98.2 571.514 98.872C571.514 99.292 571.393 99.6747 571.15 100.02C570.908 100.356 570.567 100.622 570.128 100.818C569.69 101.014 569.186 101.112 568.616 101.112Z" fill="white"/>
<path d="M135.251 112.906H141.803V114.334H136.875V116.938H140.851V118.366H136.875V121.572H141.957V123H135.251V112.906ZM141.916 115.734H143.47L145.318 121.25L147.18 115.734H148.706L146.06 123H144.576L141.916 115.734ZM150.463 119.332C150.463 120.107 150.654 120.713 151.037 121.152C151.42 121.591 151.938 121.81 152.591 121.81C153.048 121.81 153.436 121.707 153.753 121.502C154.08 121.297 154.285 121.012 154.369 120.648H155.867C155.783 121.161 155.587 121.605 155.279 121.978C154.98 122.351 154.593 122.636 154.117 122.832C153.65 123.019 153.128 123.112 152.549 123.112C151.812 123.112 151.172 122.939 150.631 122.594C150.09 122.249 149.674 121.791 149.385 121.222C149.105 120.653 148.965 120.032 148.965 119.36C148.965 118.688 149.1 118.067 149.371 117.498C149.642 116.929 150.043 116.476 150.575 116.14C151.107 115.795 151.742 115.622 152.479 115.622C153.198 115.622 153.818 115.785 154.341 116.112C154.864 116.429 155.256 116.854 155.517 117.386C155.788 117.918 155.918 118.492 155.909 119.108C155.909 119.285 155.9 119.491 155.881 119.724H149.847V118.52H154.271C154.243 118.193 154.154 117.904 154.005 117.652C153.865 117.391 153.664 117.19 153.403 117.05C153.142 116.901 152.834 116.826 152.479 116.826C152.059 116.826 151.695 116.929 151.387 117.134C151.088 117.33 150.86 117.619 150.701 118.002C150.542 118.375 150.463 118.819 150.463 119.332ZM157.178 115.734H158.704V116.966C158.965 116.546 159.301 116.219 159.712 115.986C160.132 115.743 160.598 115.622 161.112 115.622C161.625 115.622 162.078 115.729 162.47 115.944C162.862 116.159 163.17 116.462 163.394 116.854C163.618 117.246 163.73 117.699 163.73 118.212V123H162.204V118.548C162.204 118.081 162.068 117.708 161.798 117.428C161.527 117.139 161.163 116.994 160.706 116.994C160.295 116.994 159.94 117.106 159.642 117.33C159.343 117.554 159.11 117.876 158.942 118.296C158.783 118.716 158.704 119.22 158.704 119.808V123H157.178V115.734ZM169.067 117.022H167.303V120.676C167.303 121.031 167.396 121.306 167.583 121.502C167.769 121.689 168.021 121.782 168.339 121.782C168.563 121.782 168.805 121.745 169.067 121.67V123C168.777 123.075 168.483 123.112 168.185 123.112C167.438 123.112 166.85 122.916 166.421 122.524C165.991 122.132 165.777 121.558 165.777 120.802V117.022H164.489V115.734H165.777V113.564H167.303V115.734H169.067V117.022ZM173.245 112.906H174.869V121.558H179.713V123H173.245V112.906ZM180.721 115.734H182.247V123H180.721V115.734ZM182.345 112.794V114.516H180.651V112.794H182.345ZM186.496 123.112C185.899 123.112 185.367 123.005 184.9 122.79C184.443 122.566 184.079 122.258 183.808 121.866C183.547 121.474 183.407 121.031 183.388 120.536H184.886C184.905 120.872 185.063 121.166 185.362 121.418C185.67 121.67 186.048 121.796 186.496 121.796C186.897 121.796 187.219 121.712 187.462 121.544C187.714 121.376 187.84 121.166 187.84 120.914C187.84 120.681 187.761 120.499 187.602 120.368C187.453 120.228 187.233 120.125 186.944 120.06L185.74 119.78C185.124 119.64 184.629 119.411 184.256 119.094C183.892 118.767 183.71 118.291 183.71 117.666C183.71 117.283 183.817 116.938 184.032 116.63C184.256 116.322 184.569 116.079 184.97 115.902C185.371 115.715 185.833 115.622 186.356 115.622C186.869 115.622 187.331 115.715 187.742 115.902C188.162 116.079 188.503 116.341 188.764 116.686C189.035 117.022 189.198 117.419 189.254 117.876H187.756C187.719 117.568 187.565 117.325 187.294 117.148C187.033 116.961 186.72 116.868 186.356 116.868C186.02 116.868 185.749 116.943 185.544 117.092C185.339 117.232 185.236 117.423 185.236 117.666C185.236 117.853 185.311 118.016 185.46 118.156C185.609 118.287 185.819 118.38 186.09 118.436L187.294 118.702C187.966 118.851 188.484 119.085 188.848 119.402C189.212 119.71 189.394 120.2 189.394 120.872C189.394 121.292 189.273 121.675 189.03 122.02C188.787 122.356 188.447 122.622 188.008 122.818C187.569 123.014 187.065 123.112 186.496 123.112ZM194.414 117.022H192.65V120.676C192.65 121.031 192.744 121.306 192.93 121.502C193.117 121.689 193.369 121.782 193.686 121.782C193.91 121.782 194.153 121.745 194.414 121.67V123C194.125 123.075 193.831 123.112 193.532 123.112C192.786 123.112 192.198 122.916 191.768 122.524C191.339 122.132 191.124 121.558 191.124 120.802V117.022H189.836V115.734H191.124V113.564H192.65V115.734H194.414V117.022Z" fill="white"/>
<path d="M460.348 282.906H463.498C464.45 282.906 465.313 283.102 466.088 283.494C466.863 283.877 467.479 284.451 467.936 285.216C468.393 285.972 468.622 286.882 468.622 287.946C468.622 289.019 468.393 289.939 467.936 290.704C467.479 291.46 466.863 292.034 466.088 292.426C465.313 292.809 464.45 293 463.498 293H460.348V282.906ZM463.4 291.558C464.044 291.558 464.632 291.437 465.164 291.194C465.705 290.942 466.139 290.545 466.466 290.004C466.793 289.463 466.956 288.777 466.956 287.946C466.956 287.125 466.793 286.443 466.466 285.902C466.139 285.361 465.705 284.969 465.164 284.726C464.632 284.474 464.044 284.348 463.4 284.348H461.972V291.558H463.4ZM471.021 289.332C471.021 290.107 471.212 290.713 471.595 291.152C471.977 291.591 472.495 291.81 473.149 291.81C473.606 291.81 473.993 291.707 474.311 291.502C474.637 291.297 474.843 291.012 474.927 290.648H476.425C476.341 291.161 476.145 291.605 475.837 291.978C475.538 292.351 475.151 292.636 474.675 292.832C474.208 293.019 473.685 293.112 473.107 293.112C472.369 293.112 471.73 292.939 471.189 292.594C470.647 292.249 470.232 291.791 469.943 291.222C469.663 290.653 469.523 290.032 469.523 289.36C469.523 288.688 469.658 288.067 469.929 287.498C470.199 286.929 470.601 286.476 471.133 286.14C471.665 285.795 472.299 285.622 473.037 285.622C473.755 285.622 474.376 285.785 474.899 286.112C475.421 286.429 475.813 286.854 476.075 287.386C476.345 287.918 476.476 288.492 476.467 289.108C476.467 289.285 476.457 289.491 476.439 289.724H470.405V288.52H474.829C474.801 288.193 474.712 287.904 474.563 287.652C474.423 287.391 474.222 287.19 473.961 287.05C473.699 286.901 473.391 286.826 473.037 286.826C472.617 286.826 472.253 286.929 471.945 287.134C471.646 287.33 471.417 287.619 471.259 288.002C471.1 288.375 471.021 288.819 471.021 289.332ZM476.747 285.734H478.301L480.149 291.25L482.011 285.734H483.537L480.891 293H479.407L476.747 285.734ZM484.462 285.734H485.988V293H484.462V285.734ZM486.086 282.794V284.516H484.392V282.794H486.086ZM490.839 293.112C490.139 293.112 489.519 292.958 488.977 292.65C488.436 292.333 488.011 291.889 487.703 291.32C487.405 290.751 487.255 290.097 487.255 289.36C487.255 288.623 487.405 287.974 487.703 287.414C488.011 286.845 488.436 286.406 488.977 286.098C489.519 285.781 490.139 285.622 490.839 285.622C491.427 285.622 491.95 285.725 492.407 285.93C492.874 286.135 493.252 286.443 493.541 286.854C493.84 287.265 494.031 287.764 494.115 288.352H492.617C492.543 287.941 492.342 287.605 492.015 287.344C491.698 287.083 491.315 286.952 490.867 286.952C490.457 286.952 490.097 287.05 489.789 287.246C489.481 287.442 489.239 287.727 489.061 288.1C488.893 288.464 488.809 288.884 488.809 289.36C488.809 290.088 488.996 290.676 489.369 291.124C489.752 291.563 490.251 291.782 490.867 291.782C491.325 291.782 491.707 291.656 492.015 291.404C492.333 291.152 492.533 290.793 492.617 290.326H494.115C493.975 291.25 493.616 291.945 493.037 292.412C492.459 292.879 491.726 293.112 490.839 293.112ZM496.382 289.332C496.382 290.107 496.573 290.713 496.956 291.152C497.339 291.591 497.857 291.81 498.51 291.81C498.967 291.81 499.355 291.707 499.672 291.502C499.999 291.297 500.204 291.012 500.288 290.648H501.786C501.702 291.161 501.506 291.605 501.198 291.978C500.899 292.351 500.512 292.636 500.036 292.832C499.569 293.019 499.047 293.112 498.468 293.112C497.731 293.112 497.091 292.939 496.55 292.594C496.009 292.249 495.593 291.791 495.304 291.222C495.024 290.653 494.884 290.032 494.884 289.36C494.884 288.688 495.019 288.067 495.29 287.498C495.561 286.929 495.962 286.476 496.494 286.14C497.026 285.795 497.661 285.622 498.398 285.622C499.117 285.622 499.737 285.785 500.26 286.112C500.783 286.429 501.175 286.854 501.436 287.386C501.707 287.918 501.837 288.492 501.828 289.108C501.828 289.285 501.819 289.491 501.8 289.724H495.766V288.52H500.19C500.162 288.193 500.073 287.904 499.924 287.652C499.784 287.391 499.583 287.19 499.322 287.05C499.061 286.901 498.753 286.826 498.398 286.826C497.978 286.826 497.614 286.929 497.306 287.134C497.007 287.33 496.779 287.619 496.62 288.002C496.461 288.375 496.382 288.819 496.382 289.332ZM506.149 282.906H507.773V291.558H512.617V293H506.149V282.906ZM513.624 285.734H515.15V293H513.624V285.734ZM515.248 282.794V284.516H513.554V282.794H515.248ZM519.399 293.112C518.802 293.112 518.27 293.005 517.803 292.79C517.346 292.566 516.982 292.258 516.711 291.866C516.45 291.474 516.31 291.031 516.291 290.536H517.789C517.808 290.872 517.967 291.166 518.265 291.418C518.573 291.67 518.951 291.796 519.399 291.796C519.801 291.796 520.123 291.712 520.365 291.544C520.617 291.376 520.743 291.166 520.743 290.914C520.743 290.681 520.664 290.499 520.505 290.368C520.356 290.228 520.137 290.125 519.847 290.06L518.643 289.78C518.027 289.64 517.533 289.411 517.159 289.094C516.795 288.767 516.613 288.291 516.613 287.666C516.613 287.283 516.721 286.938 516.935 286.63C517.159 286.322 517.472 286.079 517.873 285.902C518.275 285.715 518.737 285.622 519.259 285.622C519.773 285.622 520.235 285.715 520.645 285.902C521.065 286.079 521.406 286.341 521.667 286.686C521.938 287.022 522.101 287.419 522.157 287.876H520.659C520.622 287.568 520.468 287.325 520.197 287.148C519.936 286.961 519.623 286.868 519.259 286.868C518.923 286.868 518.653 286.943 518.447 287.092C518.242 287.232 518.139 287.423 518.139 287.666C518.139 287.853 518.214 288.016 518.363 288.156C518.513 288.287 518.723 288.38 518.993 288.436L520.197 288.702C520.869 288.851 521.387 289.085 521.751 289.402C522.115 289.71 522.297 290.2 522.297 290.872C522.297 291.292 522.176 291.675 521.933 292.02C521.691 292.356 521.35 292.622 520.911 292.818C520.473 293.014 519.969 293.112 519.399 293.112ZM527.318 287.022H525.554V290.676C525.554 291.031 525.647 291.306 525.834 291.502C526.02 291.689 526.272 291.782 526.59 291.782C526.814 291.782 527.056 291.745 527.318 291.67V293C527.028 293.075 526.734 293.112 526.436 293.112C525.689 293.112 525.101 292.916 524.672 292.524C524.242 292.132 524.028 291.558 524.028 290.802V287.022H522.74V285.734H524.028V283.564H525.554V285.734H527.318V287.022Z" fill="white"/>
<path d="M70.2765 258.906H73.4265C74.3785 258.906 75.2419 259.102 76.0165 259.494C76.7912 259.877 77.4072 260.451 77.8645 261.216C78.3219 261.972 78.5505 262.882 78.5505 263.946C78.5505 265.019 78.3219 265.939 77.8645 266.704C77.4072 267.46 76.7912 268.034 76.0165 268.426C75.2419 268.809 74.3785 269 73.4265 269H70.2765V258.906ZM73.3285 267.558C73.9725 267.558 74.5605 267.437 75.0925 267.194C75.6339 266.942 76.0679 266.545 76.3945 266.004C76.7212 265.463 76.8845 264.777 76.8845 263.946C76.8845 263.125 76.7212 262.443 76.3945 261.902C76.0679 261.361 75.6339 260.969 75.0925 260.726C74.5605 260.474 73.9725 260.348 73.3285 260.348H71.9005V267.558H73.3285ZM80.9493 265.332C80.9493 266.107 81.1406 266.713 81.5233 267.152C81.9059 267.591 82.4239 267.81 83.0773 267.81C83.5346 267.81 83.9219 267.707 84.2393 267.502C84.5659 267.297 84.7713 267.012 84.8553 266.648H86.3533C86.2692 267.161 86.0733 267.605 85.7653 267.978C85.4666 268.351 85.0793 268.636 84.6033 268.832C84.1366 269.019 83.6139 269.112 83.0353 269.112C82.2979 269.112 81.6586 268.939 81.1173 268.594C80.5759 268.249 80.1606 267.791 79.8713 267.222C79.5913 266.653 79.4513 266.032 79.4513 265.36C79.4513 264.688 79.5866 264.067 79.8573 263.498C80.1279 262.929 80.5293 262.476 81.0613 262.14C81.5933 261.795 82.2279 261.622 82.9653 261.622C83.6839 261.622 84.3046 261.785 84.8273 262.112C85.3499 262.429 85.7419 262.854 86.0033 263.386C86.2739 263.918 86.4046 264.492 86.3953 265.108C86.3953 265.285 86.3859 265.491 86.3673 265.724H80.3333V264.52H84.7573C84.7293 264.193 84.6406 263.904 84.4913 263.652C84.3513 263.391 84.1506 263.19 83.8893 263.05C83.6279 262.901 83.3199 262.826 82.9653 262.826C82.5453 262.826 82.1813 262.929 81.8733 263.134C81.5746 263.33 81.3459 263.619 81.1873 264.002C81.0286 264.375 80.9493 264.819 80.9493 265.332ZM91.4045 263.022H89.6405V266.676C89.6405 267.031 89.7338 267.306 89.9205 267.502C90.1072 267.689 90.3592 267.782 90.6765 267.782C90.9005 267.782 91.1432 267.745 91.4045 267.67V269C91.1152 269.075 90.8212 269.112 90.5225 269.112C89.7758 269.112 89.1878 268.916 88.7585 268.524C88.3292 268.132 88.1145 267.558 88.1145 266.802V263.022H86.8265V261.734H88.1145V259.564H89.6405V261.734H91.4045V263.022ZM94.6311 269.112C94.1457 269.112 93.7117 269.023 93.3291 268.846C92.9557 268.669 92.6617 268.421 92.4471 268.104C92.2324 267.787 92.1251 267.427 92.1251 267.026C92.1251 266.401 92.3397 265.897 92.7691 265.514C93.1984 265.131 93.8144 264.884 94.6171 264.772L96.1711 264.576C96.3764 264.539 96.5304 264.473 96.6331 264.38C96.7451 264.277 96.8011 264.137 96.8011 263.96C96.8011 263.643 96.6611 263.377 96.3811 263.162C96.1104 262.947 95.7417 262.84 95.2751 262.84C94.8271 262.84 94.4584 262.952 94.1691 263.176C93.8797 263.4 93.7164 263.708 93.6791 264.1H92.1811C92.2371 263.596 92.3957 263.157 92.6571 262.784C92.9277 262.411 93.2871 262.126 93.7351 261.93C94.1831 261.725 94.6964 261.622 95.2751 261.622C95.8911 261.622 96.4277 261.734 96.8851 261.958C97.3517 262.173 97.7064 262.485 97.9491 262.896C98.2011 263.297 98.3271 263.769 98.3271 264.31V267.194C98.3271 267.399 98.3644 267.549 98.4391 267.642C98.5231 267.726 98.6444 267.768 98.8031 267.768C98.8871 267.768 98.9664 267.759 99.0411 267.74V269C98.7891 269.056 98.5511 269.084 98.3271 269.084C97.9444 269.084 97.6317 268.991 97.3891 268.804C97.1464 268.608 97.0111 268.319 96.9831 267.936C96.8057 268.3 96.5071 268.589 96.0871 268.804C95.6671 269.009 95.1817 269.112 94.6311 269.112ZM94.8691 267.922C95.4851 267.922 95.9657 267.731 96.3111 267.348C96.6657 266.956 96.8431 266.443 96.8431 265.808V265.542L94.8691 265.864C94.4677 265.92 94.1644 266.041 93.9591 266.228C93.7537 266.415 93.6511 266.662 93.6511 266.97C93.6511 267.25 93.7631 267.479 93.9871 267.656C94.2111 267.833 94.5051 267.922 94.8691 267.922ZM100.051 261.734H101.577V269H100.051V261.734ZM101.675 258.794V260.516H99.9806V258.794H101.675ZM103.236 258.794H104.762V269H103.236V258.794ZM107.514 265.332C107.514 266.107 107.705 266.713 108.088 267.152C108.47 267.591 108.988 267.81 109.642 267.81C110.099 267.81 110.486 267.707 110.804 267.502C111.13 267.297 111.336 267.012 111.42 266.648H112.918C112.834 267.161 112.638 267.605 112.33 267.978C112.031 268.351 111.644 268.636 111.168 268.832C110.701 269.019 110.178 269.112 109.6 269.112C108.862 269.112 108.223 268.939 107.682 268.594C107.14 268.249 106.725 267.791 106.436 267.222C106.156 266.653 106.016 266.032 106.016 265.36C106.016 264.688 106.151 264.067 106.422 263.498C106.692 262.929 107.094 262.476 107.626 262.14C108.158 261.795 108.792 261.622 109.53 261.622C110.248 261.622 110.869 261.785 111.392 262.112C111.914 262.429 112.306 262.854 112.568 263.386C112.838 263.918 112.969 264.492 112.96 265.108C112.96 265.285 112.95 265.491 112.932 265.724H106.898V264.52H111.322C111.294 264.193 111.205 263.904 111.056 263.652C110.916 263.391 110.715 263.19 110.454 263.05C110.192 262.901 109.884 262.826 109.53 262.826C109.11 262.826 108.746 262.929 108.438 263.134C108.139 263.33 107.91 263.619 107.752 264.002C107.593 264.375 107.514 264.819 107.514 265.332ZM117.308 269.112C116.59 269.112 115.969 268.953 115.446 268.636C114.924 268.319 114.522 267.875 114.242 267.306C113.972 266.737 113.836 266.088 113.836 265.36C113.836 264.632 113.976 263.988 114.256 263.428C114.536 262.859 114.933 262.415 115.446 262.098C115.969 261.781 116.58 261.622 117.28 261.622C117.738 261.622 118.162 261.72 118.554 261.916C118.956 262.103 119.268 262.35 119.492 262.658V258.794H121.018V269H119.492V268.062C119.324 268.361 119.04 268.613 118.638 268.818C118.237 269.014 117.794 269.112 117.308 269.112ZM117.504 267.782C117.915 267.782 118.279 267.684 118.596 267.488C118.914 267.283 119.161 266.998 119.338 266.634C119.516 266.27 119.604 265.845 119.604 265.36C119.604 264.884 119.516 264.464 119.338 264.1C119.161 263.736 118.914 263.456 118.596 263.26C118.279 263.055 117.915 262.952 117.504 262.952C117.084 262.952 116.716 263.055 116.398 263.26C116.081 263.456 115.834 263.736 115.656 264.1C115.488 264.464 115.404 264.884 115.404 265.36C115.404 265.836 115.488 266.261 115.656 266.634C115.834 266.998 116.081 267.283 116.398 267.488C116.716 267.684 117.084 267.782 117.504 267.782ZM131.078 264.366L135.152 268.846L134.116 269.77L130.028 265.304L131.078 264.366ZM130.28 269.112C129.318 269.112 128.455 268.893 127.69 268.454C126.924 268.006 126.322 267.39 125.884 266.606C125.454 265.822 125.24 264.935 125.24 263.946C125.24 262.966 125.454 262.084 125.884 261.3C126.322 260.516 126.924 259.905 127.69 259.466C128.464 259.018 129.328 258.794 130.28 258.794C131.241 258.794 132.104 259.018 132.87 259.466C133.635 259.905 134.232 260.516 134.662 261.3C135.091 262.075 135.306 262.957 135.306 263.946C135.306 264.935 135.091 265.822 134.662 266.606C134.232 267.39 133.635 268.006 132.87 268.454C132.104 268.893 131.241 269.112 130.28 269.112ZM130.28 267.684C130.924 267.684 131.502 267.521 132.016 267.194C132.529 266.867 132.93 266.424 133.22 265.864C133.509 265.295 133.654 264.655 133.654 263.946C133.654 263.246 133.509 262.611 133.22 262.042C132.93 261.473 132.529 261.029 132.016 260.712C131.502 260.385 130.924 260.222 130.28 260.222C129.626 260.222 129.043 260.385 128.53 260.712C128.016 261.029 127.615 261.473 127.326 262.042C127.036 262.611 126.892 263.246 126.892 263.946C126.892 264.655 127.036 265.295 127.326 265.864C127.615 266.424 128.016 266.867 128.53 267.194C129.043 267.521 129.626 267.684 130.28 267.684ZM143.091 269H141.565V267.768C141.304 268.188 140.963 268.519 140.543 268.762C140.133 268.995 139.671 269.112 139.157 269.112C138.644 269.112 138.191 269.005 137.799 268.79C137.407 268.575 137.099 268.272 136.875 267.88C136.651 267.488 136.539 267.035 136.539 266.522V261.734H138.065V266.186C138.065 266.653 138.201 267.031 138.471 267.32C138.742 267.6 139.106 267.74 139.563 267.74C139.974 267.74 140.329 267.628 140.627 267.404C140.926 267.18 141.155 266.858 141.313 266.438C141.481 266.018 141.565 265.514 141.565 264.926V261.734H143.091V269ZM144.744 261.734H146.27V269H144.744V261.734ZM146.368 258.794V260.516H144.674V258.794H146.368ZM151.122 269.112C150.422 269.112 149.801 268.958 149.26 268.65C148.718 268.333 148.294 267.889 147.986 267.32C147.687 266.751 147.538 266.097 147.538 265.36C147.538 264.623 147.687 263.974 147.986 263.414C148.294 262.845 148.718 262.406 149.26 262.098C149.801 261.781 150.422 261.622 151.122 261.622C151.71 261.622 152.232 261.725 152.69 261.93C153.156 262.135 153.534 262.443 153.824 262.854C154.122 263.265 154.314 263.764 154.398 264.352H152.9C152.825 263.941 152.624 263.605 152.298 263.344C151.98 263.083 151.598 262.952 151.15 262.952C150.739 262.952 150.38 263.05 150.072 263.246C149.764 263.442 149.521 263.727 149.344 264.1C149.176 264.464 149.092 264.884 149.092 265.36C149.092 266.088 149.278 266.676 149.652 267.124C150.034 267.563 150.534 267.782 151.15 267.782C151.607 267.782 151.99 267.656 152.298 267.404C152.615 267.152 152.816 266.793 152.9 266.326H154.398C154.258 267.25 153.898 267.945 153.32 268.412C152.741 268.879 152.008 269.112 151.122 269.112ZM155.572 258.794H157.098V264.506L160.01 261.734H162.138L159.128 264.562L162.362 269H160.458L158.064 265.584L157.098 266.48V269H155.572V258.794ZM162.254 261.734H163.808L165.656 267.25L167.518 261.734H169.044L166.398 269H164.914L162.254 261.734ZM169.969 261.734H171.495V269H169.969V261.734ZM171.593 258.794V260.516H169.899V258.794H171.593ZM174.246 265.332C174.246 266.107 174.437 266.713 174.82 267.152C175.203 267.591 175.721 267.81 176.374 267.81C176.831 267.81 177.219 267.707 177.536 267.502C177.863 267.297 178.068 267.012 178.152 266.648H179.65C179.566 267.161 179.37 267.605 179.062 267.978C178.763 268.351 178.376 268.636 177.9 268.832C177.433 269.019 176.911 269.112 176.332 269.112C175.595 269.112 174.955 268.939 174.414 268.594C173.873 268.249 173.457 267.791 173.168 267.222C172.888 266.653 172.748 266.032 172.748 265.36C172.748 264.688 172.883 264.067 173.154 263.498C173.425 262.929 173.826 262.476 174.358 262.14C174.89 261.795 175.525 261.622 176.262 261.622C176.981 261.622 177.601 261.785 178.124 262.112C178.647 262.429 179.039 262.854 179.3 263.386C179.571 263.918 179.701 264.492 179.692 265.108C179.692 265.285 179.683 265.491 179.664 265.724H173.63V264.52H178.054C178.026 264.193 177.937 263.904 177.788 263.652C177.648 263.391 177.447 263.19 177.186 263.05C176.925 262.901 176.617 262.826 176.262 262.826C175.842 262.826 175.478 262.929 175.17 263.134C174.871 263.33 174.643 263.619 174.484 264.002C174.325 264.375 174.246 264.819 174.246 265.332ZM180.069 261.734H181.623L182.589 265.164C182.776 265.864 182.92 266.508 183.023 267.096C183.154 266.517 183.331 265.878 183.555 265.178L184.605 261.734H186.047L187.111 265.192C187.335 265.892 187.512 266.531 187.643 267.11C187.746 266.531 187.89 265.883 188.077 265.164L189.029 261.734H190.583L188.329 269H186.915L185.865 265.584C185.641 264.875 185.464 264.231 185.333 263.652C185.193 264.231 185.011 264.87 184.787 265.57L183.723 269H182.323L180.069 261.734Z" fill="white"/>
<g filter="url(#filter0_d_2163_2678)">
<circle cx="164" cy="81" r="16" fill="url(#paint0_linear_2163_2678)" shape-rendering="crispEdges"/>
<circle cx="164" cy="81" r="15.5" stroke="#97F9FF" stroke-opacity="0.5" shape-rendering="crispEdges"/>
</g>
<g filter="url(#filter1_d_2163_2678)">
<circle cx="130" cy="227" r="16" fill="url(#paint1_linear_2163_2678)" shape-rendering="crispEdges"/>
<circle cx="130" cy="227" r="15.5" stroke="#FF97E8" stroke-opacity="0.5" shape-rendering="crispEdges"/>
</g>
<g filter="url(#filter2_d_2163_2678)">
<circle cx="493" cy="251" r="16" fill="url(#paint2_linear_2163_2678)" shape-rendering="crispEdges"/>
<circle cx="493" cy="251" r="15.5" stroke="#97BAFF" stroke-opacity="0.5" shape-rendering="crispEdges"/>
</g>
<g filter="url(#filter3_d_2163_2678)">
<circle cx="517" cy="59" r="16" fill="url(#paint3_linear_2163_2678)" shape-rendering="crispEdges"/>
<circle cx="517" cy="59" r="15.5" stroke="#FFBC97" stroke-opacity="0.5" shape-rendering="crispEdges"/>
</g>
<path d="M179 74.0003C243 54.4998 296 74.0003 322 123.5" stroke="#3A626A" stroke-width="1.5"/>
<path d="M365 142C419.5 131 423 27.0002 502 51.5002" stroke="#6A5A3A" stroke-width="1.5"/>
<path d="M308 152C247.835 178.471 187.207 126.588 140 215" stroke="#6A3A63" stroke-width="1.5"/>
<path d="M364 158.5C412.5 159.5 463 200 483.5 238.5" stroke="#3A4A6A" stroke-width="1.5"/>
<path d="M299.621 210.128C298.735 210.128 297.951 209.963 297.269 209.632C296.597 209.301 296.074 208.821 295.701 208.192C295.327 207.563 295.141 206.8 295.141 205.904V198.464H296.997V205.952C296.997 206.485 297.103 206.944 297.317 207.328C297.541 207.712 297.85 208.005 298.245 208.208C298.639 208.4 299.098 208.496 299.621 208.496C300.421 208.496 301.061 208.272 301.541 207.824C302.031 207.376 302.277 206.752 302.277 205.952V198.464H304.133V205.904C304.133 206.8 303.946 207.563 303.573 208.192C303.199 208.821 302.671 209.301 301.989 209.632C301.306 209.963 300.517 210.128 299.621 210.128ZM308.896 210.128C308.214 210.128 307.606 210.005 307.072 209.76C306.55 209.504 306.134 209.152 305.824 208.704C305.526 208.256 305.366 207.749 305.344 207.184H307.056C307.078 207.568 307.259 207.904 307.6 208.192C307.952 208.48 308.384 208.624 308.896 208.624C309.355 208.624 309.723 208.528 310 208.336C310.288 208.144 310.432 207.904 310.432 207.616C310.432 207.349 310.342 207.141 310.16 206.992C309.99 206.832 309.739 206.715 309.408 206.64L308.032 206.32C307.328 206.16 306.763 205.899 306.336 205.536C305.92 205.163 305.712 204.619 305.712 203.904C305.712 203.467 305.835 203.072 306.08 202.72C306.336 202.368 306.694 202.091 307.152 201.888C307.611 201.675 308.139 201.568 308.736 201.568C309.323 201.568 309.851 201.675 310.32 201.888C310.8 202.091 311.19 202.389 311.488 202.784C311.798 203.168 311.984 203.621 312.048 204.144H310.336C310.294 203.792 310.118 203.515 309.808 203.312C309.51 203.099 309.152 202.992 308.736 202.992C308.352 202.992 308.043 203.077 307.808 203.248C307.574 203.408 307.456 203.627 307.456 203.904C307.456 204.117 307.542 204.304 307.712 204.464C307.883 204.613 308.123 204.72 308.432 204.784L309.808 205.088C310.576 205.259 311.168 205.525 311.584 205.888C312 206.24 312.208 206.8 312.208 207.568C312.208 208.048 312.07 208.485 311.792 208.88C311.515 209.264 311.126 209.568 310.624 209.792C310.123 210.016 309.547 210.128 308.896 210.128ZM314.872 205.808C314.872 206.693 315.09 207.387 315.528 207.888C315.965 208.389 316.557 208.64 317.304 208.64C317.826 208.64 318.269 208.523 318.632 208.288C319.005 208.053 319.24 207.728 319.336 207.312H321.048C320.952 207.899 320.728 208.405 320.376 208.832C320.034 209.259 319.592 209.584 319.048 209.808C318.514 210.021 317.917 210.128 317.256 210.128C316.413 210.128 315.682 209.931 315.064 209.536C314.445 209.141 313.97 208.619 313.64 207.968C313.32 207.317 313.16 206.608 313.16 205.84C313.16 205.072 313.314 204.363 313.624 203.712C313.933 203.061 314.392 202.544 315 202.16C315.608 201.765 316.333 201.568 317.176 201.568C317.997 201.568 318.706 201.755 319.304 202.128C319.901 202.491 320.349 202.976 320.648 203.584C320.957 204.192 321.106 204.848 321.096 205.552C321.096 205.755 321.085 205.989 321.064 206.256H314.168V204.88H319.224C319.192 204.507 319.09 204.176 318.92 203.888C318.76 203.589 318.53 203.36 318.232 203.2C317.933 203.029 317.581 202.944 317.176 202.944C316.696 202.944 316.28 203.061 315.928 203.296C315.586 203.52 315.325 203.851 315.144 204.288C314.962 204.715 314.872 205.221 314.872 205.808ZM327.458 203.28C327.202 203.216 326.924 203.184 326.626 203.184C326.199 203.184 325.81 203.317 325.458 203.584C325.106 203.851 324.823 204.267 324.61 204.832C324.396 205.387 324.29 206.075 324.29 206.896V210H322.546V201.696H324.29V203.28C324.482 202.789 324.823 202.384 325.314 202.064C325.804 201.733 326.316 201.568 326.85 201.568C327.116 201.568 327.319 201.584 327.458 201.616V203.28ZM331.706 198.464H336.538C337.295 198.464 337.946 198.608 338.49 198.896C339.044 199.173 339.471 199.573 339.77 200.096C340.068 200.619 340.218 201.227 340.218 201.92C340.218 202.592 340.068 203.195 339.77 203.728C339.471 204.251 339.044 204.661 338.49 204.96C337.935 205.259 337.284 205.408 336.538 205.408H333.562V210H331.706V198.464ZM336.298 203.76C336.927 203.76 337.423 203.595 337.786 203.264C338.148 202.923 338.33 202.475 338.33 201.92C338.33 201.365 338.148 200.928 337.786 200.608C337.423 200.277 336.927 200.112 336.298 200.112H333.562V203.76H336.298ZM346.301 203.28C346.045 203.216 345.768 203.184 345.469 203.184C345.043 203.184 344.653 203.317 344.301 203.584C343.949 203.851 343.667 204.267 343.453 204.832C343.24 205.387 343.133 206.075 343.133 206.896V210H341.389V201.696H343.133V203.28C343.325 202.789 343.667 202.384 344.157 202.064C344.648 201.733 345.16 201.568 345.693 201.568C345.96 201.568 346.163 201.584 346.301 201.616V203.28ZM350.695 210.128C349.895 210.128 349.175 209.947 348.535 209.584C347.905 209.211 347.415 208.699 347.063 208.048C346.711 207.397 346.535 206.661 346.535 205.84C346.535 205.019 346.711 204.288 347.063 203.648C347.415 202.997 347.905 202.491 348.535 202.128C349.175 201.755 349.895 201.568 350.695 201.568C351.495 201.568 352.209 201.755 352.839 202.128C353.479 202.491 353.98 202.997 354.343 203.648C354.705 204.288 354.887 205.019 354.887 205.84C354.887 206.661 354.705 207.397 354.343 208.048C353.98 208.699 353.479 209.211 352.839 209.584C352.209 209.947 351.495 210.128 350.695 210.128ZM350.695 208.608C351.175 208.608 351.591 208.491 351.943 208.256C352.305 208.021 352.588 207.696 352.791 207.28C352.993 206.853 353.095 206.373 353.095 205.84C353.095 205.307 352.993 204.832 352.791 204.416C352.588 204 352.3 203.675 351.927 203.44C351.564 203.205 351.153 203.088 350.695 203.088C350.236 203.088 349.82 203.205 349.447 203.44C349.084 203.675 348.801 204.005 348.599 204.432C348.407 204.848 348.311 205.317 348.311 205.84C348.311 206.384 348.407 206.864 348.599 207.28C348.801 207.696 349.084 208.021 349.447 208.256C349.809 208.491 350.225 208.608 350.695 208.608ZM356.828 203.168H355.356V201.696H356.828V200.864C356.828 200.011 357.073 199.36 357.564 198.912C358.065 198.453 358.721 198.224 359.532 198.224C359.927 198.224 360.279 198.261 360.588 198.336V199.856C360.321 199.781 360.028 199.744 359.708 199.744C359.377 199.744 359.1 199.856 358.876 200.08C358.663 200.293 358.556 200.603 358.556 201.008V201.696H360.588V203.168H358.556V210H356.828V203.168ZM361.608 201.696H363.352V210H361.608V201.696ZM363.464 198.336V200.304H361.528V198.336H363.464ZM365.249 198.336H366.993V210H365.249V198.336ZM370.137 205.808C370.137 206.693 370.356 207.387 370.793 207.888C371.231 208.389 371.823 208.64 372.569 208.64C373.092 208.64 373.535 208.523 373.897 208.288C374.271 208.053 374.505 207.728 374.601 207.312H376.313C376.217 207.899 375.993 208.405 375.641 208.832C375.3 209.259 374.857 209.584 374.313 209.808C373.78 210.021 373.183 210.128 372.521 210.128C371.679 210.128 370.948 209.931 370.329 209.536C369.711 209.141 369.236 208.619 368.905 207.968C368.585 207.317 368.425 206.608 368.425 205.84C368.425 205.072 368.58 204.363 368.889 203.712C369.199 203.061 369.657 202.544 370.265 202.16C370.873 201.765 371.599 201.568 372.441 201.568C373.263 201.568 373.972 201.755 374.569 202.128C375.167 202.491 375.615 202.976 375.913 203.584C376.223 204.192 376.372 204.848 376.361 205.552C376.361 205.755 376.351 205.989 376.329 206.256H369.433V204.88H374.489C374.457 204.507 374.356 204.176 374.185 203.888C374.025 203.589 373.796 203.36 373.497 203.2C373.199 203.029 372.847 202.944 372.441 202.944C371.961 202.944 371.545 203.061 371.193 203.296C370.852 203.52 370.591 203.851 370.409 204.288C370.228 204.715 370.137 205.221 370.137 205.808Z" fill="white"/>
<g filter="url(#filter4_d_2163_2678)">
<circle cx="335.5" cy="146.5" r="28.5" fill="url(#paint4_linear_2163_2678)" shape-rendering="crispEdges"/>
<circle cx="335.5" cy="146.5" r="28" stroke="#A597FF" shape-rendering="crispEdges"/>
</g>
<g filter="url(#filter5_d_2163_2678)">
<circle cx="335.5" cy="146.5" r="41" stroke="#A597FF" stroke-opacity="0.4" shape-rendering="crispEdges"/>
</g>
<defs>
<filter id="filter0_d_2163_2678" x="124" y="47" width="80" height="80" filterUnits="userSpaceOnUse" color-interpolation-filters="sRGB">
<feFlood flood-opacity="0" result="BackgroundImageFix"/>
<feColorMatrix in="SourceAlpha" type="matrix" values="0 0 0 0 0 0 0 0 0 0 0 0 0 0 0 0 0 0 127 0" result="hardAlpha"/>
<feMorphology radius="4" operator="dilate" in="SourceAlpha" result="effect1_dropShadow_2163_2678"/>
<feOffset dy="6"/>
<feGaussianBlur stdDeviation="10"/>
<feComposite in2="hardAlpha" operator="out"/>
<feColorMatrix type="matrix" values="0 0 0 0 0.592157 0 0 0 0 0.976471 0 0 0 0 1 0 0 0 0.8 0"/>
<feBlend mode="normal" in2="BackgroundImageFix" result="effect1_dropShadow_2163_2678"/>
<feBlend mode="normal" in="SourceGraphic" in2="effect1_dropShadow_2163_2678" result="shape"/>
</filter>
<filter id="filter1_d_2163_2678" x="90" y="193" width="80" height="80" filterUnits="userSpaceOnUse" color-interpolation-filters="sRGB">
<feFlood flood-opacity="0" result="BackgroundImageFix"/>
<feColorMatrix in="SourceAlpha" type="matrix" values="0 0 0 0 0 0 0 0 0 0 0 0 0 0 0 0 0 0 127 0" result="hardAlpha"/>
<feMorphology radius="4" operator="dilate" in="SourceAlpha" result="effect1_dropShadow_2163_2678"/>
<feOffset dy="6"/>
<feGaussianBlur stdDeviation="10"/>
<feComposite in2="hardAlpha" operator="out"/>
<feColorMatrix type="matrix" values="0 0 0 0 1 0 0 0 0 0.592157 0 0 0 0 0.909804 0 0 0 0.8 0"/>
<feBlend mode="normal" in2="BackgroundImageFix" result="effect1_dropShadow_2163_2678"/>
<feBlend mode="normal" in="SourceGraphic" in2="effect1_dropShadow_2163_2678" result="shape"/>
</filter>
<filter id="filter2_d_2163_2678" x="453" y="217" width="80" height="80" filterUnits="userSpaceOnUse" color-interpolation-filters="sRGB">
<feFlood flood-opacity="0" result="BackgroundImageFix"/>
<feColorMatrix in="SourceAlpha" type="matrix" values="0 0 0 0 0 0 0 0 0 0 0 0 0 0 0 0 0 0 127 0" result="hardAlpha"/>
<feMorphology radius="4" operator="dilate" in="SourceAlpha" result="effect1_dropShadow_2163_2678"/>
<feOffset dy="6"/>
<feGaussianBlur stdDeviation="10"/>
<feComposite in2="hardAlpha" operator="out"/>
<feColorMatrix type="matrix" values="0 0 0 0 0.592157 0 0 0 0 0.729412 0 0 0 0 1 0 0 0 0.8 0"/>
<feBlend mode="normal" in2="BackgroundImageFix" result="effect1_dropShadow_2163_2678"/>
<feBlend mode="normal" in="SourceGraphic" in2="effect1_dropShadow_2163_2678" result="shape"/>
</filter>
<filter id="filter3_d_2163_2678" x="477" y="25" width="80" height="80" filterUnits="userSpaceOnUse" color-interpolation-filters="sRGB">
<feFlood flood-opacity="0" result="BackgroundImageFix"/>
<feColorMatrix in="SourceAlpha" type="matrix" values="0 0 0 0 0 0 0 0 0 0 0 0 0 0 0 0 0 0 127 0" result="hardAlpha"/>
<feMorphology radius="4" operator="dilate" in="SourceAlpha" result="effect1_dropShadow_2163_2678"/>
<feOffset dy="6"/>
<feGaussianBlur stdDeviation="10"/>
<feComposite in2="hardAlpha" operator="out"/>
<feColorMatrix type="matrix" values="0 0 0 0 1 0 0 0 0 0.737255 0 0 0 0 0.592157 0 0 0 0.8 0"/>
<feBlend mode="normal" in2="BackgroundImageFix" result="effect1_dropShadow_2163_2678"/>
<feBlend mode="normal" in="SourceGraphic" in2="effect1_dropShadow_2163_2678" result="shape"/>
</filter>
<filter id="filter4_d_2163_2678" x="283" y="100" width="105" height="105" filterUnits="userSpaceOnUse" color-interpolation-filters="sRGB">
<feFlood flood-opacity="0" result="BackgroundImageFix"/>
<feColorMatrix in="SourceAlpha" type="matrix" values="0 0 0 0 0 0 0 0 0 0 0 0 0 0 0 0 0 0 127 0" result="hardAlpha"/>
<feMorphology radius="4" operator="dilate" in="SourceAlpha" result="effect1_dropShadow_2163_2678"/>
<feOffset dy="6"/>
<feGaussianBlur stdDeviation="10"/>
<feComposite in2="hardAlpha" operator="out"/>
<feColorMatrix type="matrix" values="0 0 0 0 0.647059 0 0 0 0 0.592157 0 0 0 0 1 0 0 0 0.8 0"/>
<feBlend mode="normal" in2="BackgroundImageFix" result="effect1_dropShadow_2163_2678"/>
<feBlend mode="normal" in="SourceGraphic" in2="effect1_dropShadow_2163_2678" result="shape"/>
</filter>
<filter id="filter5_d_2163_2678" x="270" y="87" width="131" height="131" filterUnits="userSpaceOnUse" color-interpolation-filters="sRGB">
<feFlood flood-opacity="0" result="BackgroundImageFix"/>
<feColorMatrix in="SourceAlpha" type="matrix" values="0 0 0 0 0 0 0 0 0 0 0 0 0 0 0 0 0 0 127 0" result="hardAlpha"/>
<feMorphology radius="4" operator="dilate" in="SourceAlpha" result="effect1_dropShadow_2163_2678"/>
<feOffset dy="6"/>
<feGaussianBlur stdDeviation="10"/>
<feComposite in2="hardAlpha" operator="out"/>
<feColorMatrix type="matrix" values="0 0 0 0 0.647059 0 0 0 0 0.592157 0 0 0 0 1 0 0 0 0.8 0"/>
<feBlend mode="normal" in2="BackgroundImageFix" result="effect1_dropShadow_2163_2678"/>
<feBlend mode="normal" in="SourceGraphic" in2="effect1_dropShadow_2163_2678" result="shape"/>
</filter>
<linearGradient id="paint0_linear_2163_2678" x1="164" y1="65" x2="164" y2="97" gradientUnits="userSpaceOnUse">
<stop stop-color="#97F9FF" stop-opacity="0"/>
<stop offset="1" stop-color="#97F9FF" stop-opacity="0.59"/>
</linearGradient>
<linearGradient id="paint1_linear_2163_2678" x1="130" y1="211" x2="130" y2="243" gradientUnits="userSpaceOnUse">
<stop stop-color="#FF97E8" stop-opacity="0"/>
<stop offset="1" stop-color="#FF97E8" stop-opacity="0.59"/>
</linearGradient>
<linearGradient id="paint2_linear_2163_2678" x1="493" y1="235" x2="493" y2="267" gradientUnits="userSpaceOnUse">
<stop stop-color="#97BAFF" stop-opacity="0"/>
<stop offset="1" stop-color="#97BAFF" stop-opacity="0.59"/>
</linearGradient>
<linearGradient id="paint3_linear_2163_2678" x1="517" y1="43" x2="517" y2="75" gradientUnits="userSpaceOnUse">
<stop stop-color="#FFBC97" stop-opacity="0"/>
<stop offset="1" stop-color="#FFBC97" stop-opacity="0.59"/>
</linearGradient>
<linearGradient id="paint4_linear_2163_2678" x1="335.5" y1="118" x2="335.5" y2="175" gradientUnits="userSpaceOnUse">
<stop stop-color="#A597FF" stop-opacity="0"/>
<stop offset="1" stop-color="#A597FF" stop-opacity="0.59"/>
</linearGradient>
</defs>
</svg>
