<svg width="640" height="340" viewBox="0 0 640 340" fill="none" xmlns="http://www.w3.org/2000/svg">
<path d="M205.4 213.6C208.8 225.6 212.8 229.2 223.6 230.2L223.2 233H171.6L172.2 230.2C186 229.2 188.8 225.6 185.4 213.6L178.8 189H121.4L107.2 213.6C100 225.6 101.8 229.2 115.4 230.2L115 233H78L78.4 230.2C89 229.2 94 225.6 101 213.6L169.8 96.4H172.8L205.4 213.6ZM124.6 183.4H177.2L160.6 121.4L124.6 183.4ZM312.22 224.8L317.02 225L316.62 227.8L286.42 236H283.62L287.42 211.4C279.22 226.8 267.02 236 251.42 236C236.22 236 226.62 226 227.42 210C228.42 187.6 251.22 180 274.82 175.6L293.62 172.2L294.62 165.4C297.42 147.2 290.62 135.4 276.02 135.4C259.02 135.4 249.82 151 254.22 165.6L237.82 171C231.02 148 252.22 129.8 278.62 129.8C302.22 129.8 314.62 143.6 311.22 165.8L303.62 214.4C302.62 222 305.82 224.4 312.22 224.8ZM260.82 224.6C271.82 224.6 281.82 216.4 288.62 204.4L292.62 178L274.42 181.4C262.82 183.8 245.82 190.2 245.22 207.4C244.82 217.6 250.82 224.6 260.82 224.6ZM331.016 233V90H388.616C417.816 90 435.416 103.8 435.416 126C435.416 143.6 425.016 151.6 413.216 155.6V156C428.216 158.6 441.016 170 441.016 191.4C441.016 217.8 422.216 233 392.616 233H331.016ZM349.016 149.8H390.616C411.016 149.8 416.616 141 416.616 128C416.616 115 409.016 106 392.616 106H349.016V149.8ZM349.016 217H393.616C416.616 217 422.216 204.8 422.216 191.4C422.216 176 412.616 165.8 397.616 165.8H349.016V217ZM470.322 219.8H469.922V233H453.922V90H469.922V143.6H470.322C476.322 135.8 485.922 128.2 502.322 128.2C527.922 128.2 548.322 148.4 548.322 182C548.322 215.6 527.922 235.8 502.322 235.8C485.922 235.8 476.322 228.6 470.322 219.8ZM500.722 142.2C481.722 142.2 469.922 158 469.922 182C469.922 206 481.722 221.8 500.722 221.8C521.722 221.8 531.522 202 531.522 182C531.522 162 521.722 142.2 500.722 142.2Z" fill="url(#paint0_linear_2163_3073)"/>
<path d="M155.543 267.906H159.771C160.434 267.906 161.003 268.027 161.479 268.27C161.964 268.503 162.338 268.844 162.599 269.292C162.87 269.74 163.005 270.272 163.005 270.888C163.005 271.271 162.94 271.63 162.809 271.966C162.688 272.293 162.506 272.587 162.263 272.848C162.02 273.1 161.731 273.301 161.395 273.45C161.75 273.609 162.02 273.828 162.207 274.108C162.403 274.379 162.552 274.743 162.655 275.2L162.991 276.838C162.991 276.866 162.996 276.894 163.005 276.922C163.042 277.118 163.094 277.314 163.159 277.51C163.224 277.697 163.299 277.86 163.383 278H161.633C161.558 277.888 161.498 277.762 161.451 277.622C161.404 277.473 161.367 277.319 161.339 277.16L161.059 275.536C160.984 275.135 160.858 274.813 160.681 274.57C160.504 274.327 160.252 274.15 159.925 274.038C159.598 273.917 159.178 273.856 158.665 273.856H157.167V278H155.543V267.906ZM159.561 272.414C159.934 272.414 160.252 272.358 160.513 272.246C160.784 272.125 160.989 271.947 161.129 271.714C161.269 271.481 161.339 271.205 161.339 270.888C161.339 270.403 161.18 270.025 160.863 269.754C160.555 269.483 160.121 269.348 159.561 269.348H157.167V272.414H159.561ZM165.423 274.332C165.423 275.107 165.614 275.713 165.997 276.152C166.38 276.591 166.898 276.81 167.551 276.81C168.008 276.81 168.396 276.707 168.713 276.502C169.04 276.297 169.245 276.012 169.329 275.648H170.827C170.743 276.161 170.547 276.605 170.239 276.978C169.94 277.351 169.553 277.636 169.077 277.832C168.61 278.019 168.088 278.112 167.509 278.112C166.772 278.112 166.132 277.939 165.591 277.594C165.05 277.249 164.634 276.791 164.345 276.222C164.065 275.653 163.925 275.032 163.925 274.36C163.925 273.688 164.06 273.067 164.331 272.498C164.602 271.929 165.003 271.476 165.535 271.14C166.067 270.795 166.702 270.622 167.439 270.622C168.158 270.622 168.778 270.785 169.301 271.112C169.824 271.429 170.216 271.854 170.477 272.386C170.748 272.918 170.878 273.492 170.869 274.108C170.869 274.285 170.86 274.491 170.841 274.724H164.807V273.52H169.231C169.203 273.193 169.114 272.904 168.965 272.652C168.825 272.391 168.624 272.19 168.363 272.05C168.102 271.901 167.794 271.826 167.439 271.826C167.019 271.826 166.655 271.929 166.347 272.134C166.048 272.33 165.82 272.619 165.661 273.002C165.502 273.375 165.423 273.819 165.423 274.332ZM175.33 278.112C174.63 278.112 174.009 277.958 173.468 277.65C172.926 277.333 172.502 276.889 172.194 276.32C171.895 275.751 171.746 275.097 171.746 274.36C171.746 273.623 171.895 272.974 172.194 272.414C172.502 271.845 172.926 271.406 173.468 271.098C174.009 270.781 174.63 270.622 175.33 270.622C175.918 270.622 176.44 270.725 176.898 270.93C177.364 271.135 177.742 271.443 178.032 271.854C178.33 272.265 178.522 272.764 178.606 273.352H177.108C177.033 272.941 176.832 272.605 176.506 272.344C176.188 272.083 175.806 271.952 175.358 271.952C174.947 271.952 174.588 272.05 174.28 272.246C173.972 272.442 173.729 272.727 173.552 273.1C173.384 273.464 173.3 273.884 173.3 274.36C173.3 275.088 173.486 275.676 173.86 276.124C174.242 276.563 174.742 276.782 175.358 276.782C175.815 276.782 176.198 276.656 176.506 276.404C176.823 276.152 177.024 275.793 177.108 275.326H178.606C178.466 276.25 178.106 276.945 177.528 277.412C176.949 277.879 176.216 278.112 175.33 278.112ZM179.78 267.794H181.306V273.506L184.218 270.734H186.346L183.336 273.562L186.57 278H184.666L182.272 274.584L181.306 275.48V278H179.78V267.794ZM187.204 267.794H188.73V278H187.204V267.794ZM191.481 274.332C191.481 275.107 191.673 275.713 192.055 276.152C192.438 276.591 192.956 276.81 193.609 276.81C194.067 276.81 194.454 276.707 194.771 276.502C195.098 276.297 195.303 276.012 195.387 275.648H196.885C196.801 276.161 196.605 276.605 196.297 276.978C195.999 277.351 195.611 277.636 195.135 277.832C194.669 278.019 194.146 278.112 193.567 278.112C192.83 278.112 192.191 277.939 191.649 277.594C191.108 277.249 190.693 276.791 190.403 276.222C190.123 275.653 189.983 275.032 189.983 274.36C189.983 273.688 190.119 273.067 190.389 272.498C190.66 271.929 191.061 271.476 191.593 271.14C192.125 270.795 192.76 270.622 193.497 270.622C194.216 270.622 194.837 270.785 195.359 271.112C195.882 271.429 196.274 271.854 196.535 272.386C196.806 272.918 196.937 273.492 196.927 274.108C196.927 274.285 196.918 274.491 196.899 274.724H190.865V273.52H195.289C195.261 273.193 195.173 272.904 195.023 272.652C194.883 272.391 194.683 272.19 194.421 272.05C194.16 271.901 193.852 271.826 193.497 271.826C193.077 271.826 192.713 271.929 192.405 272.134C192.107 272.33 191.878 272.619 191.719 273.002C191.561 273.375 191.481 273.819 191.481 274.332ZM200.786 278.112C200.189 278.112 199.657 278.005 199.19 277.79C198.733 277.566 198.369 277.258 198.098 276.866C197.837 276.474 197.697 276.031 197.678 275.536H199.176C199.195 275.872 199.353 276.166 199.652 276.418C199.96 276.67 200.338 276.796 200.786 276.796C201.187 276.796 201.509 276.712 201.752 276.544C202.004 276.376 202.13 276.166 202.13 275.914C202.13 275.681 202.051 275.499 201.892 275.368C201.743 275.228 201.523 275.125 201.234 275.06L200.03 274.78C199.414 274.64 198.919 274.411 198.546 274.094C198.182 273.767 198 273.291 198 272.666C198 272.283 198.107 271.938 198.322 271.63C198.546 271.322 198.859 271.079 199.26 270.902C199.661 270.715 200.123 270.622 200.646 270.622C201.159 270.622 201.621 270.715 202.032 270.902C202.452 271.079 202.793 271.341 203.054 271.686C203.325 272.022 203.488 272.419 203.544 272.876H202.046C202.009 272.568 201.855 272.325 201.584 272.148C201.323 271.961 201.01 271.868 200.646 271.868C200.31 271.868 200.039 271.943 199.834 272.092C199.629 272.232 199.526 272.423 199.526 272.666C199.526 272.853 199.601 273.016 199.75 273.156C199.899 273.287 200.109 273.38 200.38 273.436L201.584 273.702C202.256 273.851 202.774 274.085 203.138 274.402C203.502 274.71 203.684 275.2 203.684 275.872C203.684 276.292 203.563 276.675 203.32 277.02C203.077 277.356 202.737 277.622 202.298 277.818C201.859 278.014 201.355 278.112 200.786 278.112ZM207.513 278.112C206.915 278.112 206.383 278.005 205.917 277.79C205.459 277.566 205.095 277.258 204.825 276.866C204.563 276.474 204.423 276.031 204.405 275.536H205.903C205.921 275.872 206.08 276.166 206.379 276.418C206.687 276.67 207.065 276.796 207.513 276.796C207.914 276.796 208.236 276.712 208.479 276.544C208.731 276.376 208.857 276.166 208.857 275.914C208.857 275.681 208.777 275.499 208.619 275.368C208.469 275.228 208.25 275.125 207.961 275.06L206.757 274.78C206.141 274.64 205.646 274.411 205.273 274.094C204.909 273.767 204.727 273.291 204.727 272.666C204.727 272.283 204.834 271.938 205.049 271.63C205.273 271.322 205.585 271.079 205.987 270.902C206.388 270.715 206.85 270.622 207.373 270.622C207.886 270.622 208.348 270.715 208.759 270.902C209.179 271.079 209.519 271.341 209.781 271.686C210.051 272.022 210.215 272.419 210.271 272.876H208.773C208.735 272.568 208.581 272.325 208.311 272.148C208.049 271.961 207.737 271.868 207.373 271.868C207.037 271.868 206.766 271.943 206.561 272.092C206.355 272.232 206.253 272.423 206.253 272.666C206.253 272.853 206.327 273.016 206.477 273.156C206.626 273.287 206.836 273.38 207.107 273.436L208.311 273.702C208.983 273.851 209.501 274.085 209.865 274.402C210.229 274.71 210.411 275.2 210.411 275.872C210.411 276.292 210.289 276.675 210.047 277.02C209.804 277.356 209.463 277.622 209.025 277.818C208.586 278.014 208.082 278.112 207.513 278.112ZM214.701 267.906H216.479L220.259 273.94C220.651 274.565 220.983 275.139 221.253 275.662C221.207 275.065 221.183 274.402 221.183 273.674V267.906H222.807V278H221.029L217.249 271.98C216.867 271.364 216.535 270.79 216.255 270.258C216.302 270.855 216.325 271.518 216.325 272.246V278H214.701V267.906ZM225.593 274.332C225.593 275.107 225.784 275.713 226.167 276.152C226.549 276.591 227.067 276.81 227.721 276.81C228.178 276.81 228.565 276.707 228.883 276.502C229.209 276.297 229.415 276.012 229.499 275.648H230.997C230.913 276.161 230.717 276.605 230.409 276.978C230.11 277.351 229.723 277.636 229.247 277.832C228.78 278.019 228.257 278.112 227.679 278.112C226.941 278.112 226.302 277.939 225.761 277.594C225.219 277.249 224.804 276.791 224.515 276.222C224.235 275.653 224.095 275.032 224.095 274.36C224.095 273.688 224.23 273.067 224.501 272.498C224.771 271.929 225.173 271.476 225.705 271.14C226.237 270.795 226.871 270.622 227.609 270.622C228.327 270.622 228.948 270.785 229.471 271.112C229.993 271.429 230.385 271.854 230.647 272.386C230.917 272.918 231.048 273.492 231.039 274.108C231.039 274.285 231.029 274.491 231.011 274.724H224.977V273.52H229.401C229.373 273.193 229.284 272.904 229.135 272.652C228.995 272.391 228.794 272.19 228.533 272.05C228.271 271.901 227.963 271.826 227.609 271.826C227.189 271.826 226.825 271.929 226.517 272.134C226.218 272.33 225.989 272.619 225.831 273.002C225.672 273.375 225.593 273.819 225.593 274.332ZM238.789 278H237.263V276.768C237.002 277.188 236.661 277.519 236.241 277.762C235.831 277.995 235.369 278.112 234.855 278.112C234.342 278.112 233.889 278.005 233.497 277.79C233.105 277.575 232.797 277.272 232.573 276.88C232.349 276.488 232.237 276.035 232.237 275.522V270.734H233.763V275.186C233.763 275.653 233.899 276.031 234.169 276.32C234.44 276.6 234.804 276.74 235.261 276.74C235.672 276.74 236.027 276.628 236.325 276.404C236.624 276.18 236.853 275.858 237.011 275.438C237.179 275.018 237.263 274.514 237.263 273.926V270.734H238.789V278ZM241.534 274.332C241.534 275.107 241.726 275.713 242.108 276.152C242.491 276.591 243.009 276.81 243.662 276.81C244.12 276.81 244.507 276.707 244.824 276.502C245.151 276.297 245.356 276.012 245.44 275.648H246.938C246.854 276.161 246.658 276.605 246.35 276.978C246.052 277.351 245.664 277.636 245.188 277.832C244.722 278.019 244.199 278.112 243.62 278.112C242.883 278.112 242.244 277.939 241.702 277.594C241.161 277.249 240.746 276.791 240.456 276.222C240.176 275.653 240.036 275.032 240.036 274.36C240.036 273.688 240.172 273.067 240.442 272.498C240.713 271.929 241.114 271.476 241.646 271.14C242.178 270.795 242.813 270.622 243.55 270.622C244.269 270.622 244.89 270.785 245.412 271.112C245.935 271.429 246.327 271.854 246.588 272.386C246.859 272.918 246.99 273.492 246.98 274.108C246.98 274.285 246.971 274.491 246.952 274.724H240.918V273.52H245.342C245.314 273.193 245.226 272.904 245.076 272.652C244.936 272.391 244.736 272.19 244.474 272.05C244.213 271.901 243.905 271.826 243.55 271.826C243.13 271.826 242.766 271.929 242.458 272.134C242.16 272.33 241.931 272.619 241.772 273.002C241.614 273.375 241.534 273.819 241.534 274.332Z" fill="white"/>
<path d="M141.301 287.348H144.001C144.817 287.348 145.557 287.516 146.221 287.852C146.885 288.18 147.413 288.672 147.805 289.328C148.197 289.976 148.393 290.756 148.393 291.668C148.393 292.588 148.197 293.376 147.805 294.032C147.413 294.68 146.885 295.172 146.221 295.508C145.557 295.836 144.817 296 144.001 296H141.301V287.348ZM143.917 294.764C144.469 294.764 144.973 294.66 145.429 294.452C145.893 294.236 146.265 293.896 146.545 293.432C146.825 292.968 146.965 292.38 146.965 291.668C146.965 290.964 146.825 290.38 146.545 289.916C146.265 289.452 145.893 289.116 145.429 288.908C144.973 288.692 144.469 288.584 143.917 288.584H142.693V294.764H143.917ZM149.466 289.772H150.774V296H149.466V289.772ZM150.858 287.252V288.728H149.406V287.252H150.858ZM154.416 296.096C153.904 296.096 153.448 296.004 153.048 295.82C152.656 295.628 152.344 295.364 152.112 295.028C151.888 294.692 151.768 294.312 151.752 293.888H153.036C153.052 294.176 153.188 294.428 153.444 294.644C153.708 294.86 154.032 294.968 154.416 294.968C154.76 294.968 155.036 294.896 155.244 294.752C155.46 294.608 155.568 294.428 155.568 294.212C155.568 294.012 155.5 293.856 155.364 293.744C155.236 293.624 155.048 293.536 154.8 293.48L153.768 293.24C153.24 293.12 152.816 292.924 152.496 292.652C152.184 292.372 152.028 291.964 152.028 291.428C152.028 291.1 152.12 290.804 152.304 290.54C152.496 290.276 152.764 290.068 153.108 289.916C153.452 289.756 153.848 289.676 154.296 289.676C154.736 289.676 155.132 289.756 155.484 289.916C155.844 290.068 156.136 290.292 156.36 290.588C156.592 290.876 156.732 291.216 156.78 291.608H155.496C155.464 291.344 155.332 291.136 155.1 290.984C154.876 290.824 154.608 290.744 154.296 290.744C154.008 290.744 153.776 290.808 153.6 290.936C153.424 291.056 153.336 291.22 153.336 291.428C153.336 291.588 153.4 291.728 153.528 291.848C153.656 291.96 153.836 292.04 154.068 292.088L155.1 292.316C155.676 292.444 156.12 292.644 156.432 292.916C156.744 293.18 156.9 293.6 156.9 294.176C156.9 294.536 156.796 294.864 156.588 295.16C156.38 295.448 156.088 295.676 155.712 295.844C155.336 296.012 154.904 296.096 154.416 296.096ZM157.962 289.772H159.27V290.576C159.446 290.312 159.706 290.096 160.05 289.928C160.402 289.76 160.786 289.676 161.202 289.676C161.794 289.676 162.31 289.812 162.75 290.084C163.198 290.356 163.538 290.736 163.77 291.224C164.002 291.704 164.118 292.256 164.118 292.88C164.118 293.504 163.994 294.06 163.746 294.548C163.506 295.028 163.158 295.408 162.702 295.688C162.254 295.96 161.726 296.096 161.118 296.096C160.75 296.096 160.398 296.02 160.062 295.868C159.726 295.716 159.462 295.516 159.27 295.268V298.244H157.962V289.772ZM160.986 294.956C161.346 294.956 161.662 294.872 161.934 294.704C162.206 294.528 162.414 294.284 162.558 293.972C162.71 293.66 162.786 293.296 162.786 292.88C162.786 292.472 162.71 292.112 162.558 291.8C162.414 291.488 162.206 291.248 161.934 291.08C161.662 290.904 161.346 290.816 160.986 290.816C160.634 290.816 160.318 290.904 160.038 291.08C159.766 291.248 159.554 291.488 159.402 291.8C159.258 292.112 159.186 292.472 159.186 292.88C159.186 293.296 159.258 293.66 159.402 293.972C159.554 294.284 159.766 294.528 160.038 294.704C160.318 294.872 160.634 294.956 160.986 294.956ZM165.204 287.252H166.512V296H165.204V287.252ZM169.735 296.096C169.319 296.096 168.947 296.02 168.619 295.868C168.299 295.716 168.047 295.504 167.863 295.232C167.679 294.96 167.587 294.652 167.587 294.308C167.587 293.772 167.771 293.34 168.139 293.012C168.507 292.684 169.035 292.472 169.723 292.376L171.055 292.208C171.231 292.176 171.363 292.12 171.451 292.04C171.547 291.952 171.595 291.832 171.595 291.68C171.595 291.408 171.475 291.18 171.235 290.996C171.003 290.812 170.687 290.72 170.287 290.72C169.903 290.72 169.587 290.816 169.339 291.008C169.091 291.2 168.951 291.464 168.919 291.8H167.635C167.683 291.368 167.819 290.992 168.043 290.672C168.275 290.352 168.583 290.108 168.967 289.94C169.351 289.764 169.791 289.676 170.287 289.676C170.815 289.676 171.275 289.772 171.667 289.964C172.067 290.148 172.371 290.416 172.579 290.768C172.795 291.112 172.903 291.516 172.903 291.98V294.452C172.903 294.628 172.935 294.756 172.999 294.836C173.071 294.908 173.175 294.944 173.311 294.944C173.383 294.944 173.451 294.936 173.515 294.92V296C173.299 296.048 173.095 296.072 172.903 296.072C172.575 296.072 172.307 295.992 172.099 295.832C171.891 295.664 171.775 295.416 171.751 295.088C171.599 295.4 171.343 295.648 170.983 295.832C170.623 296.008 170.207 296.096 169.735 296.096ZM169.939 295.076C170.467 295.076 170.879 294.912 171.175 294.584C171.479 294.248 171.631 293.808 171.631 293.264V293.036L169.939 293.312C169.595 293.36 169.335 293.464 169.159 293.624C168.983 293.784 168.895 293.996 168.895 294.26C168.895 294.5 168.991 294.696 169.183 294.848C169.375 295 169.627 295.076 169.939 295.076ZM176.18 296.096C175.764 296.096 175.392 296.02 175.064 295.868C174.744 295.716 174.492 295.504 174.308 295.232C174.124 294.96 174.032 294.652 174.032 294.308C174.032 293.772 174.216 293.34 174.584 293.012C174.952 292.684 175.48 292.472 176.168 292.376L177.5 292.208C177.676 292.176 177.808 292.12 177.896 292.04C177.992 291.952 178.04 291.832 178.04 291.68C178.04 291.408 177.92 291.18 177.68 290.996C177.448 290.812 177.132 290.72 176.732 290.72C176.348 290.72 176.032 290.816 175.784 291.008C175.536 291.2 175.396 291.464 175.364 291.8H174.08C174.128 291.368 174.264 290.992 174.488 290.672C174.72 290.352 175.028 290.108 175.412 289.94C175.796 289.764 176.236 289.676 176.732 289.676C177.26 289.676 177.72 289.772 178.112 289.964C178.512 290.148 178.816 290.416 179.024 290.768C179.24 291.112 179.348 291.516 179.348 291.98V294.452C179.348 294.628 179.38 294.756 179.444 294.836C179.516 294.908 179.62 294.944 179.756 294.944C179.828 294.944 179.896 294.936 179.96 294.92V296C179.744 296.048 179.54 296.072 179.348 296.072C179.02 296.072 178.752 295.992 178.544 295.832C178.336 295.664 178.22 295.416 178.196 295.088C178.044 295.4 177.788 295.648 177.428 295.832C177.068 296.008 176.652 296.096 176.18 296.096ZM176.384 295.076C176.912 295.076 177.324 294.912 177.62 294.584C177.924 294.248 178.076 293.808 178.076 293.264V293.036L176.384 293.312C176.04 293.36 175.78 293.464 175.604 293.624C175.428 293.784 175.34 293.996 175.34 294.26C175.34 294.5 175.436 294.696 175.628 294.848C175.82 295 176.072 295.076 176.384 295.076ZM179.837 289.772H181.277L183.053 294.44L182.453 296.3L179.837 289.772ZM185.945 289.772L183.377 296.444C183.145 297.036 182.853 297.5 182.501 297.836C182.149 298.172 181.669 298.34 181.061 298.34C180.789 298.34 180.525 298.3 180.269 298.22V297.092C180.485 297.164 180.705 297.2 180.929 297.2C181.153 297.2 181.337 297.16 181.481 297.08C181.633 297 181.765 296.876 181.877 296.708C181.989 296.54 182.109 296.288 182.237 295.952L184.625 289.772H185.945ZM190.73 288.572H188.042V287.348H194.81V288.572H192.122V296H190.73V288.572ZM193.805 289.772H195.245L197.021 294.44L196.421 296.3L193.805 289.772ZM199.913 289.772L197.345 296.444C197.113 297.036 196.821 297.5 196.469 297.836C196.117 298.172 195.637 298.34 195.029 298.34C194.757 298.34 194.493 298.3 194.237 298.22V297.092C194.453 297.164 194.673 297.2 194.897 297.2C195.121 297.2 195.305 297.16 195.449 297.08C195.601 297 195.733 296.876 195.845 296.708C195.957 296.54 196.077 296.288 196.205 295.952L198.593 289.772H199.913ZM200.688 289.772H201.996V290.576C202.172 290.312 202.432 290.096 202.776 289.928C203.128 289.76 203.512 289.676 203.928 289.676C204.52 289.676 205.036 289.812 205.476 290.084C205.924 290.356 206.264 290.736 206.496 291.224C206.728 291.704 206.844 292.256 206.844 292.88C206.844 293.504 206.72 294.06 206.472 294.548C206.232 295.028 205.884 295.408 205.428 295.688C204.98 295.96 204.452 296.096 203.844 296.096C203.476 296.096 203.124 296.02 202.788 295.868C202.452 295.716 202.188 295.516 201.996 295.268V298.244H200.688V289.772ZM203.712 294.956C204.072 294.956 204.388 294.872 204.66 294.704C204.932 294.528 205.14 294.284 205.284 293.972C205.436 293.66 205.512 293.296 205.512 292.88C205.512 292.472 205.436 292.112 205.284 291.8C205.14 291.488 204.932 291.248 204.66 291.08C204.388 290.904 204.072 290.816 203.712 290.816C203.36 290.816 203.044 290.904 202.764 291.08C202.492 291.248 202.28 291.488 202.128 291.8C201.984 292.112 201.912 292.472 201.912 292.88C201.912 293.296 201.984 293.66 202.128 293.972C202.28 294.284 202.492 294.528 202.764 294.704C203.044 294.872 203.36 294.956 203.712 294.956ZM208.867 292.856C208.867 293.52 209.031 294.04 209.359 294.416C209.687 294.792 210.131 294.98 210.691 294.98C211.083 294.98 211.415 294.892 211.687 294.716C211.967 294.54 212.143 294.296 212.215 293.984H213.499C213.427 294.424 213.259 294.804 212.995 295.124C212.739 295.444 212.407 295.688 211.999 295.856C211.599 296.016 211.151 296.096 210.655 296.096C210.023 296.096 209.475 295.948 209.011 295.652C208.547 295.356 208.191 294.964 207.943 294.476C207.703 293.988 207.583 293.456 207.583 292.88C207.583 292.304 207.699 291.772 207.931 291.284C208.163 290.796 208.507 290.408 208.963 290.12C209.419 289.824 209.963 289.676 210.595 289.676C211.211 289.676 211.743 289.816 212.191 290.096C212.639 290.368 212.975 290.732 213.199 291.188C213.431 291.644 213.543 292.136 213.535 292.664C213.535 292.816 213.527 292.992 213.511 293.192H208.339V292.16H212.131C212.107 291.88 212.031 291.632 211.903 291.416C211.783 291.192 211.611 291.02 211.387 290.9C211.163 290.772 210.899 290.708 210.595 290.708C210.235 290.708 209.923 290.796 209.659 290.972C209.403 291.14 209.207 291.388 209.071 291.716C208.935 292.036 208.867 292.416 208.867 292.856ZM217.238 287.348H222.926V288.572H218.63V290.9H222.122V292.124H218.63V296H217.238V287.348ZM226.078 296.096C225.478 296.096 224.938 295.96 224.458 295.688C223.986 295.408 223.618 295.024 223.354 294.536C223.09 294.048 222.958 293.496 222.958 292.88C222.958 292.264 223.09 291.716 223.354 291.236C223.618 290.748 223.986 290.368 224.458 290.096C224.938 289.816 225.478 289.676 226.078 289.676C226.678 289.676 227.214 289.816 227.686 290.096C228.166 290.368 228.542 290.748 228.814 291.236C229.086 291.716 229.222 292.264 229.222 292.88C229.222 293.496 229.086 294.048 228.814 294.536C228.542 295.024 228.166 295.408 227.686 295.688C227.214 295.96 226.678 296.096 226.078 296.096ZM226.078 294.956C226.438 294.956 226.75 294.868 227.014 294.692C227.286 294.516 227.498 294.272 227.65 293.96C227.802 293.64 227.878 293.28 227.878 292.88C227.878 292.48 227.802 292.124 227.65 291.812C227.498 291.5 227.282 291.256 227.002 291.08C226.73 290.904 226.422 290.816 226.078 290.816C225.734 290.816 225.422 290.904 225.142 291.08C224.87 291.256 224.658 291.504 224.506 291.824C224.362 292.136 224.29 292.488 224.29 292.88C224.29 293.288 224.362 293.648 224.506 293.96C224.658 294.272 224.87 294.516 225.142 294.692C225.414 294.868 225.726 294.956 226.078 294.956ZM235.846 296H234.538V294.944C234.314 295.304 234.022 295.588 233.662 295.796C233.31 295.996 232.914 296.096 232.474 296.096C232.034 296.096 231.646 296.004 231.31 295.82C230.974 295.636 230.71 295.376 230.518 295.04C230.326 294.704 230.23 294.316 230.23 293.876V289.772H231.538V293.588C231.538 293.988 231.654 294.312 231.886 294.56C232.118 294.8 232.43 294.92 232.822 294.92C233.174 294.92 233.478 294.824 233.734 294.632C233.99 294.44 234.186 294.164 234.322 293.804C234.466 293.444 234.538 293.012 234.538 292.508V289.772H235.846V296ZM237.263 289.772H238.571V290.828C238.795 290.468 239.083 290.188 239.435 289.988C239.795 289.78 240.195 289.676 240.635 289.676C241.075 289.676 241.463 289.768 241.799 289.952C242.135 290.136 242.399 290.396 242.591 290.732C242.783 291.068 242.879 291.456 242.879 291.896V296H241.571V292.184C241.571 291.784 241.455 291.464 241.223 291.224C240.991 290.976 240.679 290.852 240.287 290.852C239.935 290.852 239.631 290.948 239.375 291.14C239.119 291.332 238.919 291.608 238.775 291.968C238.639 292.328 238.571 292.76 238.571 293.264V296H237.263V289.772ZM246.875 296.096C246.259 296.096 245.727 295.96 245.279 295.688C244.831 295.416 244.487 295.036 244.247 294.548C244.015 294.06 243.899 293.504 243.899 292.88C243.899 292.256 244.019 291.704 244.259 291.224C244.499 290.736 244.839 290.356 245.279 290.084C245.727 289.812 246.251 289.676 246.851 289.676C247.243 289.676 247.607 289.76 247.943 289.928C248.287 290.088 248.555 290.3 248.747 290.564V287.252H250.055V296H248.747V295.196C248.603 295.452 248.359 295.668 248.015 295.844C247.671 296.012 247.291 296.096 246.875 296.096ZM247.043 294.956C247.395 294.956 247.707 294.872 247.979 294.704C248.251 294.528 248.463 294.284 248.615 293.972C248.767 293.66 248.843 293.296 248.843 292.88C248.843 292.472 248.767 292.112 248.615 291.8C248.463 291.488 248.251 291.248 247.979 291.08C247.707 290.904 247.395 290.816 247.043 290.816C246.683 290.816 246.367 290.904 246.095 291.08C245.823 291.248 245.611 291.488 245.459 291.8C245.315 292.112 245.243 292.472 245.243 292.88C245.243 293.288 245.315 293.652 245.459 293.972C245.611 294.284 245.823 294.528 246.095 294.704C246.367 294.872 246.683 294.956 247.043 294.956ZM255.162 290.96C254.97 290.912 254.762 290.888 254.538 290.888C254.218 290.888 253.926 290.988 253.662 291.188C253.398 291.388 253.186 291.7 253.026 292.124C252.866 292.54 252.786 293.056 252.786 293.672V296H251.478V289.772H252.786V290.96C252.93 290.592 253.186 290.288 253.554 290.048C253.922 289.8 254.306 289.676 254.706 289.676C254.906 289.676 255.058 289.688 255.162 289.712V290.96ZM255.352 289.772H256.792L258.568 294.44L257.968 296.3L255.352 289.772ZM261.46 289.772L258.892 296.444C258.66 297.036 258.368 297.5 258.016 297.836C257.664 298.172 257.184 298.34 256.576 298.34C256.304 298.34 256.04 298.3 255.784 298.22V297.092C256 297.164 256.22 297.2 256.444 297.2C256.668 297.2 256.852 297.16 256.996 297.08C257.148 297 257.28 296.876 257.392 296.708C257.504 296.54 257.624 296.288 257.752 295.952L260.14 289.772H261.46Z" fill="white" fill-opacity="0.48"/>
<path d="M392.428 267.906H394.206L397.986 273.94C398.378 274.565 398.709 275.139 398.98 275.662C398.933 275.065 398.91 274.402 398.91 273.674V267.906H400.534V278H398.756L394.976 271.98C394.593 271.364 394.262 270.79 393.982 270.258C394.029 270.855 394.052 271.518 394.052 272.246V278H392.428V267.906ZM403.319 274.332C403.319 275.107 403.511 275.713 403.893 276.152C404.276 276.591 404.794 276.81 405.447 276.81C405.905 276.81 406.292 276.707 406.609 276.502C406.936 276.297 407.141 276.012 407.225 275.648H408.723C408.639 276.161 408.443 276.605 408.135 276.978C407.837 277.351 407.449 277.636 406.973 277.832C406.507 278.019 405.984 278.112 405.405 278.112C404.668 278.112 404.029 277.939 403.487 277.594C402.946 277.249 402.531 276.791 402.241 276.222C401.961 275.653 401.821 275.032 401.821 274.36C401.821 273.688 401.957 273.067 402.227 272.498C402.498 271.929 402.899 271.476 403.431 271.14C403.963 270.795 404.598 270.622 405.335 270.622C406.054 270.622 406.675 270.785 407.197 271.112C407.72 271.429 408.112 271.854 408.373 272.386C408.644 272.918 408.775 273.492 408.765 274.108C408.765 274.285 408.756 274.491 408.737 274.724H402.703V273.52H407.127C407.099 273.193 407.011 272.904 406.861 272.652C406.721 272.391 406.521 272.19 406.259 272.05C405.998 271.901 405.69 271.826 405.335 271.826C404.915 271.826 404.551 271.929 404.243 272.134C403.945 272.33 403.716 272.619 403.557 273.002C403.399 273.375 403.319 273.819 403.319 274.332ZM416.516 278H414.99V276.768C414.729 277.188 414.388 277.519 413.968 277.762C413.557 277.995 413.095 278.112 412.582 278.112C412.069 278.112 411.616 278.005 411.224 277.79C410.832 277.575 410.524 277.272 410.3 276.88C410.076 276.488 409.964 276.035 409.964 275.522V270.734H411.49V275.186C411.49 275.653 411.625 276.031 411.896 276.32C412.167 276.6 412.531 276.74 412.988 276.74C413.399 276.74 413.753 276.628 414.052 276.404C414.351 276.18 414.579 275.858 414.738 275.438C414.906 275.018 414.99 274.514 414.99 273.926V270.734H416.516V278ZM419.261 274.332C419.261 275.107 419.452 275.713 419.835 276.152C420.217 276.591 420.735 276.81 421.389 276.81C421.846 276.81 422.233 276.707 422.551 276.502C422.877 276.297 423.083 276.012 423.167 275.648H424.665C424.581 276.161 424.385 276.605 424.077 276.978C423.778 277.351 423.391 277.636 422.915 277.832C422.448 278.019 421.925 278.112 421.347 278.112C420.609 278.112 419.97 277.939 419.429 277.594C418.887 277.249 418.472 276.791 418.183 276.222C417.903 275.653 417.763 275.032 417.763 274.36C417.763 273.688 417.898 273.067 418.169 272.498C418.439 271.929 418.841 271.476 419.373 271.14C419.905 270.795 420.539 270.622 421.277 270.622C421.995 270.622 422.616 270.785 423.139 271.112C423.661 271.429 424.053 271.854 424.315 272.386C424.585 272.918 424.716 273.492 424.707 274.108C424.707 274.285 424.697 274.491 424.679 274.724H418.645V273.52H423.069C423.041 273.193 422.952 272.904 422.803 272.652C422.663 272.391 422.462 272.19 422.201 272.05C421.939 271.901 421.631 271.826 421.277 271.826C420.857 271.826 420.493 271.929 420.185 272.134C419.886 272.33 419.657 272.619 419.499 273.002C419.34 273.375 419.261 273.819 419.261 274.332ZM429.028 267.906H431.058L434.04 274.724C434.292 275.293 434.478 275.793 434.6 276.222C434.712 275.793 434.894 275.293 435.146 274.724L438.128 267.906H440.088V278H438.464V272.176C438.464 271.56 438.482 271.023 438.52 270.566C438.361 270.995 438.16 271.495 437.918 272.064L435.342 278H433.802L431.198 272.064C430.946 271.495 430.745 270.995 430.596 270.566C430.624 271.014 430.638 271.551 430.638 272.176V278H429.028V267.906ZM445.014 278.112C444.314 278.112 443.684 277.953 443.124 277.636C442.573 277.309 442.144 276.861 441.836 276.292C441.528 275.723 441.374 275.079 441.374 274.36C441.374 273.641 441.528 273.002 441.836 272.442C442.144 271.873 442.573 271.429 443.124 271.112C443.684 270.785 444.314 270.622 445.014 270.622C445.714 270.622 446.339 270.785 446.89 271.112C447.45 271.429 447.889 271.873 448.206 272.442C448.523 273.002 448.682 273.641 448.682 274.36C448.682 275.079 448.523 275.723 448.206 276.292C447.889 276.861 447.45 277.309 446.89 277.636C446.339 277.953 445.714 278.112 445.014 278.112ZM445.014 276.782C445.434 276.782 445.798 276.679 446.106 276.474C446.423 276.269 446.671 275.984 446.848 275.62C447.025 275.247 447.114 274.827 447.114 274.36C447.114 273.893 447.025 273.478 446.848 273.114C446.671 272.75 446.419 272.465 446.092 272.26C445.775 272.055 445.415 271.952 445.014 271.952C444.613 271.952 444.249 272.055 443.922 272.26C443.605 272.465 443.357 272.755 443.18 273.128C443.012 273.492 442.928 273.903 442.928 274.36C442.928 274.836 443.012 275.256 443.18 275.62C443.357 275.984 443.605 276.269 443.922 276.474C444.239 276.679 444.603 276.782 445.014 276.782ZM449.929 270.734H451.455V271.966C451.716 271.546 452.052 271.219 452.463 270.986C452.883 270.743 453.349 270.622 453.863 270.622C454.376 270.622 454.829 270.729 455.221 270.944C455.613 271.159 455.921 271.462 456.145 271.854C456.369 272.246 456.481 272.699 456.481 273.212V278H454.955V273.548C454.955 273.081 454.819 272.708 454.549 272.428C454.278 272.139 453.914 271.994 453.457 271.994C453.046 271.994 452.691 272.106 452.393 272.33C452.094 272.554 451.861 272.876 451.693 273.296C451.534 273.716 451.455 274.22 451.455 274.808V278H449.929V270.734ZM461.818 272.022H460.054V275.676C460.054 276.031 460.147 276.306 460.334 276.502C460.52 276.689 460.772 276.782 461.09 276.782C461.314 276.782 461.556 276.745 461.818 276.67V278C461.528 278.075 461.234 278.112 460.936 278.112C460.189 278.112 459.601 277.916 459.172 277.524C458.742 277.132 458.528 276.558 458.528 275.802V272.022H457.24V270.734H458.528V268.564H460.054V270.734H461.818V272.022ZM467.242 272.12C467.018 272.064 466.775 272.036 466.514 272.036C466.141 272.036 465.8 272.153 465.492 272.386C465.184 272.619 464.937 272.983 464.75 273.478C464.563 273.963 464.47 274.565 464.47 275.284V278H462.944V270.734H464.47V272.12C464.638 271.691 464.937 271.336 465.366 271.056C465.795 270.767 466.243 270.622 466.71 270.622C466.943 270.622 467.121 270.636 467.242 270.664V272.12ZM468.944 274.332C468.944 275.107 469.136 275.713 469.518 276.152C469.901 276.591 470.419 276.81 471.072 276.81C471.53 276.81 471.917 276.707 472.234 276.502C472.561 276.297 472.766 276.012 472.85 275.648H474.348C474.264 276.161 474.068 276.605 473.76 276.978C473.462 277.351 473.074 277.636 472.598 277.832C472.132 278.019 471.609 278.112 471.03 278.112C470.293 278.112 469.654 277.939 469.112 277.594C468.571 277.249 468.156 276.791 467.866 276.222C467.586 275.653 467.446 275.032 467.446 274.36C467.446 273.688 467.582 273.067 467.852 272.498C468.123 271.929 468.524 271.476 469.056 271.14C469.588 270.795 470.223 270.622 470.96 270.622C471.679 270.622 472.3 270.785 472.822 271.112C473.345 271.429 473.737 271.854 473.998 272.386C474.269 272.918 474.4 273.492 474.39 274.108C474.39 274.285 474.381 274.491 474.362 274.724H468.328V273.52H472.752C472.724 273.193 472.636 272.904 472.486 272.652C472.346 272.391 472.146 272.19 471.884 272.05C471.623 271.901 471.315 271.826 470.96 271.826C470.54 271.826 470.176 271.929 469.868 272.134C469.57 272.33 469.341 272.619 469.182 273.002C469.024 273.375 468.944 273.819 468.944 274.332ZM477.759 278.112C477.274 278.112 476.84 278.023 476.457 277.846C476.084 277.669 475.79 277.421 475.575 277.104C475.36 276.787 475.253 276.427 475.253 276.026C475.253 275.401 475.468 274.897 475.897 274.514C476.326 274.131 476.942 273.884 477.745 273.772L479.299 273.576C479.504 273.539 479.658 273.473 479.761 273.38C479.873 273.277 479.929 273.137 479.929 272.96C479.929 272.643 479.789 272.377 479.509 272.162C479.238 271.947 478.87 271.84 478.403 271.84C477.955 271.84 477.586 271.952 477.297 272.176C477.008 272.4 476.844 272.708 476.807 273.1H475.309C475.365 272.596 475.524 272.157 475.785 271.784C476.056 271.411 476.415 271.126 476.863 270.93C477.311 270.725 477.824 270.622 478.403 270.622C479.019 270.622 479.556 270.734 480.013 270.958C480.48 271.173 480.834 271.485 481.077 271.896C481.329 272.297 481.455 272.769 481.455 273.31V276.194C481.455 276.399 481.492 276.549 481.567 276.642C481.651 276.726 481.772 276.768 481.931 276.768C482.015 276.768 482.094 276.759 482.169 276.74V278C481.917 278.056 481.679 278.084 481.455 278.084C481.072 278.084 480.76 277.991 480.517 277.804C480.274 277.608 480.139 277.319 480.111 276.936C479.934 277.3 479.635 277.589 479.215 277.804C478.795 278.009 478.31 278.112 477.759 278.112ZM477.997 276.922C478.613 276.922 479.094 276.731 479.439 276.348C479.794 275.956 479.971 275.443 479.971 274.808V274.542L477.997 274.864C477.596 274.92 477.292 275.041 477.087 275.228C476.882 275.415 476.779 275.662 476.779 275.97C476.779 276.25 476.891 276.479 477.115 276.656C477.339 276.833 477.633 276.922 477.997 276.922ZM483.179 267.794H484.705V278H483.179V267.794Z" fill="white"/>
<path d="M364.973 287.348H368.597C369.165 287.348 369.653 287.456 370.061 287.672C370.477 287.88 370.797 288.18 371.021 288.572C371.245 288.964 371.357 289.42 371.357 289.94C371.357 290.444 371.245 290.896 371.021 291.296C370.797 291.688 370.477 291.996 370.061 292.22C369.645 292.444 369.157 292.556 368.597 292.556H366.365V296H364.973V287.348ZM368.417 291.32C368.889 291.32 369.261 291.196 369.533 290.948C369.805 290.692 369.941 290.356 369.941 289.94C369.941 289.524 369.805 289.196 369.533 288.956C369.261 288.708 368.889 288.584 368.417 288.584H366.365V291.32H368.417ZM373.895 296.096C373.479 296.096 373.107 296.02 372.779 295.868C372.459 295.716 372.207 295.504 372.023 295.232C371.839 294.96 371.747 294.652 371.747 294.308C371.747 293.772 371.931 293.34 372.299 293.012C372.667 292.684 373.195 292.472 373.883 292.376L375.215 292.208C375.391 292.176 375.523 292.12 375.611 292.04C375.707 291.952 375.755 291.832 375.755 291.68C375.755 291.408 375.635 291.18 375.395 290.996C375.163 290.812 374.847 290.72 374.447 290.72C374.063 290.72 373.747 290.816 373.499 291.008C373.251 291.2 373.111 291.464 373.079 291.8H371.795C371.843 291.368 371.979 290.992 372.203 290.672C372.435 290.352 372.743 290.108 373.127 289.94C373.511 289.764 373.951 289.676 374.447 289.676C374.975 289.676 375.435 289.772 375.827 289.964C376.227 290.148 376.531 290.416 376.739 290.768C376.955 291.112 377.063 291.516 377.063 291.98V294.452C377.063 294.628 377.095 294.756 377.159 294.836C377.231 294.908 377.335 294.944 377.471 294.944C377.543 294.944 377.611 294.936 377.675 294.92V296C377.459 296.048 377.255 296.072 377.063 296.072C376.735 296.072 376.467 295.992 376.259 295.832C376.051 295.664 375.935 295.416 375.911 295.088C375.759 295.4 375.503 295.648 375.143 295.832C374.783 296.008 374.367 296.096 373.895 296.096ZM374.099 295.076C374.627 295.076 375.039 294.912 375.335 294.584C375.639 294.248 375.791 293.808 375.791 293.264V293.036L374.099 293.312C373.755 293.36 373.495 293.464 373.319 293.624C373.143 293.784 373.055 293.996 373.055 294.26C373.055 294.5 373.151 294.696 373.343 294.848C373.535 295 373.787 295.076 374.099 295.076ZM378.54 289.772H379.848V290.828C380.072 290.468 380.36 290.188 380.712 289.988C381.072 289.78 381.472 289.676 381.912 289.676C382.352 289.676 382.74 289.768 383.076 289.952C383.412 290.136 383.676 290.396 383.868 290.732C384.06 291.068 384.156 291.456 384.156 291.896V296H382.848V292.184C382.848 291.784 382.732 291.464 382.5 291.224C382.268 290.976 381.956 290.852 381.564 290.852C381.212 290.852 380.908 290.948 380.652 291.14C380.396 291.332 380.196 291.608 380.052 291.968C379.916 292.328 379.848 292.76 379.848 293.264V296H378.54V289.772ZM388.297 298.34C387.729 298.34 387.233 298.256 386.809 298.088C386.385 297.928 386.045 297.684 385.789 297.356C385.541 297.028 385.385 296.632 385.321 296.168H386.641C386.689 296.512 386.853 296.78 387.133 296.972C387.421 297.172 387.809 297.272 388.297 297.272C388.817 297.272 389.221 297.136 389.509 296.864C389.797 296.6 389.941 296.224 389.941 295.736V294.92C389.789 295.152 389.545 295.34 389.209 295.484C388.881 295.628 388.513 295.7 388.105 295.7C387.505 295.7 386.985 295.576 386.545 295.328C386.105 295.072 385.765 294.716 385.525 294.26C385.293 293.804 385.177 293.284 385.177 292.7C385.177 292.1 385.293 291.576 385.525 291.128C385.765 290.672 386.101 290.316 386.533 290.06C386.973 289.804 387.485 289.676 388.069 289.676C388.461 289.676 388.825 289.756 389.161 289.916C389.497 290.068 389.757 290.272 389.941 290.528V289.772H391.249V295.616C391.249 296.176 391.129 296.66 390.889 297.068C390.649 297.484 390.309 297.8 389.869 298.016C389.429 298.232 388.905 298.34 388.297 298.34ZM388.273 294.572C388.625 294.572 388.933 294.496 389.197 294.344C389.461 294.184 389.665 293.964 389.809 293.684C389.953 293.396 390.025 293.068 390.025 292.7C390.025 292.132 389.865 291.676 389.545 291.332C389.233 290.988 388.809 290.816 388.273 290.816C387.921 290.816 387.613 290.892 387.349 291.044C387.085 291.196 386.881 291.416 386.737 291.704C386.593 291.992 386.521 292.324 386.521 292.7C386.521 293.268 386.677 293.724 386.989 294.068C387.309 294.404 387.737 294.572 388.273 294.572ZM396.333 290.96C396.141 290.912 395.933 290.888 395.709 290.888C395.389 290.888 395.097 290.988 394.833 291.188C394.569 291.388 394.357 291.7 394.197 292.124C394.037 292.54 393.957 293.056 393.957 293.672V296H392.649V289.772H393.957V290.96C394.101 290.592 394.357 290.288 394.725 290.048C395.093 289.8 395.477 289.676 395.877 289.676C396.077 289.676 396.229 289.688 396.333 289.712V290.96ZM398.785 296.096C398.369 296.096 397.997 296.02 397.669 295.868C397.349 295.716 397.097 295.504 396.913 295.232C396.729 294.96 396.637 294.652 396.637 294.308C396.637 293.772 396.821 293.34 397.189 293.012C397.557 292.684 398.085 292.472 398.773 292.376L400.105 292.208C400.281 292.176 400.413 292.12 400.501 292.04C400.597 291.952 400.645 291.832 400.645 291.68C400.645 291.408 400.525 291.18 400.285 290.996C400.053 290.812 399.737 290.72 399.337 290.72C398.953 290.72 398.637 290.816 398.389 291.008C398.141 291.2 398.001 291.464 397.969 291.8H396.685C396.733 291.368 396.869 290.992 397.093 290.672C397.325 290.352 397.633 290.108 398.017 289.94C398.401 289.764 398.841 289.676 399.337 289.676C399.865 289.676 400.325 289.772 400.717 289.964C401.117 290.148 401.421 290.416 401.629 290.768C401.845 291.112 401.953 291.516 401.953 291.98V294.452C401.953 294.628 401.985 294.756 402.049 294.836C402.121 294.908 402.225 294.944 402.361 294.944C402.433 294.944 402.501 294.936 402.565 294.92V296C402.349 296.048 402.145 296.072 401.953 296.072C401.625 296.072 401.357 295.992 401.149 295.832C400.941 295.664 400.825 295.416 400.801 295.088C400.649 295.4 400.393 295.648 400.033 295.832C399.673 296.008 399.257 296.096 398.785 296.096ZM398.989 295.076C399.517 295.076 399.929 294.912 400.225 294.584C400.529 294.248 400.681 293.808 400.681 293.264V293.036L398.989 293.312C398.645 293.36 398.385 293.464 398.209 293.624C398.033 293.784 397.945 293.996 397.945 294.26C397.945 294.5 398.041 294.696 398.233 294.848C398.425 295 398.677 295.076 398.989 295.076ZM403.431 289.772H404.739V290.84C404.915 290.48 405.155 290.196 405.459 289.988C405.771 289.78 406.143 289.676 406.575 289.676C407.079 289.676 407.503 289.784 407.847 290C408.199 290.208 408.439 290.512 408.567 290.912C408.743 290.552 409.011 290.256 409.371 290.024C409.731 289.792 410.143 289.676 410.607 289.676C411.047 289.676 411.431 289.764 411.759 289.94C412.095 290.116 412.351 290.368 412.527 290.696C412.711 291.016 412.803 291.384 412.803 291.8V296H411.495V292.124C411.495 291.716 411.383 291.396 411.159 291.164C410.943 290.924 410.639 290.804 410.247 290.804C409.783 290.804 409.419 290.992 409.155 291.368C408.899 291.744 408.771 292.24 408.771 292.856V296H407.463V292.124C407.463 291.716 407.355 291.396 407.139 291.164C406.923 290.924 406.619 290.804 406.227 290.804C405.915 290.804 405.647 290.892 405.423 291.068C405.207 291.236 405.039 291.476 404.919 291.788C404.799 292.1 404.739 292.456 404.739 292.856V296H403.431V289.772ZM416.769 287.348H420.393C420.961 287.348 421.449 287.456 421.857 287.672C422.273 287.88 422.593 288.18 422.817 288.572C423.041 288.964 423.153 289.42 423.153 289.94C423.153 290.444 423.041 290.896 422.817 291.296C422.593 291.688 422.273 291.996 421.857 292.22C421.441 292.444 420.953 292.556 420.393 292.556H418.161V296H416.769V287.348ZM420.213 291.32C420.685 291.32 421.057 291.196 421.329 290.948C421.601 290.692 421.737 290.356 421.737 289.94C421.737 289.524 421.601 289.196 421.329 288.956C421.057 288.708 420.685 288.584 420.213 288.584H418.161V291.32H420.213ZM425.692 296.096C425.276 296.096 424.904 296.02 424.576 295.868C424.256 295.716 424.004 295.504 423.82 295.232C423.636 294.96 423.544 294.652 423.544 294.308C423.544 293.772 423.728 293.34 424.096 293.012C424.464 292.684 424.992 292.472 425.68 292.376L427.012 292.208C427.188 292.176 427.32 292.12 427.408 292.04C427.504 291.952 427.552 291.832 427.552 291.68C427.552 291.408 427.432 291.18 427.192 290.996C426.96 290.812 426.644 290.72 426.244 290.72C425.86 290.72 425.544 290.816 425.296 291.008C425.048 291.2 424.908 291.464 424.876 291.8H423.592C423.64 291.368 423.776 290.992 424 290.672C424.232 290.352 424.54 290.108 424.924 289.94C425.308 289.764 425.748 289.676 426.244 289.676C426.772 289.676 427.232 289.772 427.624 289.964C428.024 290.148 428.328 290.416 428.536 290.768C428.752 291.112 428.86 291.516 428.86 291.98V294.452C428.86 294.628 428.892 294.756 428.956 294.836C429.028 294.908 429.132 294.944 429.268 294.944C429.34 294.944 429.408 294.936 429.472 294.92V296C429.256 296.048 429.052 296.072 428.86 296.072C428.532 296.072 428.264 295.992 428.056 295.832C427.848 295.664 427.732 295.416 427.708 295.088C427.556 295.4 427.3 295.648 426.94 295.832C426.58 296.008 426.164 296.096 425.692 296.096ZM425.896 295.076C426.424 295.076 426.836 294.912 427.132 294.584C427.436 294.248 427.588 293.808 427.588 293.264V293.036L425.896 293.312C425.552 293.36 425.292 293.464 425.116 293.624C424.94 293.784 424.852 293.996 424.852 294.26C424.852 294.5 424.948 294.696 425.14 294.848C425.332 295 425.584 295.076 425.896 295.076ZM430.337 289.772H431.645V290.828C431.869 290.468 432.157 290.188 432.509 289.988C432.869 289.78 433.269 289.676 433.709 289.676C434.149 289.676 434.537 289.768 434.873 289.952C435.209 290.136 435.473 290.396 435.665 290.732C435.857 291.068 435.953 291.456 435.953 291.896V296H434.645V292.184C434.645 291.784 434.529 291.464 434.297 291.224C434.065 290.976 433.753 290.852 433.361 290.852C433.009 290.852 432.705 290.948 432.449 291.14C432.193 291.332 431.993 291.608 431.849 291.968C431.713 292.328 431.645 292.76 431.645 293.264V296H430.337V289.772ZM440.094 298.34C439.526 298.34 439.03 298.256 438.606 298.088C438.182 297.928 437.842 297.684 437.586 297.356C437.338 297.028 437.182 296.632 437.118 296.168H438.438C438.486 296.512 438.65 296.78 438.93 296.972C439.218 297.172 439.606 297.272 440.094 297.272C440.614 297.272 441.018 297.136 441.306 296.864C441.594 296.6 441.738 296.224 441.738 295.736V294.92C441.586 295.152 441.342 295.34 441.006 295.484C440.678 295.628 440.31 295.7 439.902 295.7C439.302 295.7 438.782 295.576 438.342 295.328C437.902 295.072 437.562 294.716 437.322 294.26C437.09 293.804 436.974 293.284 436.974 292.7C436.974 292.1 437.09 291.576 437.322 291.128C437.562 290.672 437.898 290.316 438.33 290.06C438.77 289.804 439.282 289.676 439.866 289.676C440.258 289.676 440.622 289.756 440.958 289.916C441.294 290.068 441.554 290.272 441.738 290.528V289.772H443.046V295.616C443.046 296.176 442.926 296.66 442.686 297.068C442.446 297.484 442.106 297.8 441.666 298.016C441.226 298.232 440.702 298.34 440.094 298.34ZM440.07 294.572C440.422 294.572 440.73 294.496 440.994 294.344C441.258 294.184 441.462 293.964 441.606 293.684C441.75 293.396 441.822 293.068 441.822 292.7C441.822 292.132 441.662 291.676 441.342 291.332C441.03 290.988 440.606 290.816 440.07 290.816C439.718 290.816 439.41 290.892 439.146 291.044C438.882 291.196 438.678 291.416 438.534 291.704C438.39 291.992 438.318 292.324 438.318 292.7C438.318 293.268 438.474 293.724 438.786 294.068C439.106 294.404 439.534 294.572 440.07 294.572ZM448.13 290.96C447.938 290.912 447.73 290.888 447.506 290.888C447.186 290.888 446.894 290.988 446.63 291.188C446.366 291.388 446.154 291.7 445.994 292.124C445.834 292.54 445.754 293.056 445.754 293.672V296H444.446V289.772H445.754V290.96C445.898 290.592 446.154 290.288 446.522 290.048C446.89 289.8 447.274 289.676 447.674 289.676C447.874 289.676 448.026 289.688 448.13 289.712V290.96ZM450.582 296.096C450.166 296.096 449.794 296.02 449.466 295.868C449.146 295.716 448.894 295.504 448.71 295.232C448.526 294.96 448.434 294.652 448.434 294.308C448.434 293.772 448.618 293.34 448.986 293.012C449.354 292.684 449.882 292.472 450.57 292.376L451.902 292.208C452.078 292.176 452.21 292.12 452.298 292.04C452.394 291.952 452.442 291.832 452.442 291.68C452.442 291.408 452.322 291.18 452.082 290.996C451.85 290.812 451.534 290.72 451.134 290.72C450.75 290.72 450.434 290.816 450.186 291.008C449.938 291.2 449.798 291.464 449.766 291.8H448.482C448.53 291.368 448.666 290.992 448.89 290.672C449.122 290.352 449.43 290.108 449.814 289.94C450.198 289.764 450.638 289.676 451.134 289.676C451.662 289.676 452.122 289.772 452.514 289.964C452.914 290.148 453.218 290.416 453.426 290.768C453.642 291.112 453.75 291.516 453.75 291.98V294.452C453.75 294.628 453.782 294.756 453.846 294.836C453.918 294.908 454.022 294.944 454.158 294.944C454.23 294.944 454.298 294.936 454.362 294.92V296C454.146 296.048 453.942 296.072 453.75 296.072C453.422 296.072 453.154 295.992 452.946 295.832C452.738 295.664 452.622 295.416 452.598 295.088C452.446 295.4 452.19 295.648 451.83 295.832C451.47 296.008 451.054 296.096 450.582 296.096ZM450.786 295.076C451.314 295.076 451.726 294.912 452.022 294.584C452.326 294.248 452.478 293.808 452.478 293.264V293.036L450.786 293.312C450.442 293.36 450.182 293.464 450.006 293.624C449.83 293.784 449.742 293.996 449.742 294.26C449.742 294.5 449.838 294.696 450.03 294.848C450.222 295 450.474 295.076 450.786 295.076ZM455.228 289.772H456.536V290.84C456.712 290.48 456.952 290.196 457.256 289.988C457.568 289.78 457.94 289.676 458.372 289.676C458.876 289.676 459.3 289.784 459.644 290C459.996 290.208 460.236 290.512 460.364 290.912C460.54 290.552 460.808 290.256 461.168 290.024C461.528 289.792 461.94 289.676 462.404 289.676C462.844 289.676 463.228 289.764 463.556 289.94C463.892 290.116 464.148 290.368 464.324 290.696C464.508 291.016 464.6 291.384 464.6 291.8V296H463.292V292.124C463.292 291.716 463.18 291.396 462.956 291.164C462.74 290.924 462.436 290.804 462.044 290.804C461.58 290.804 461.216 290.992 460.952 291.368C460.696 291.744 460.568 292.24 460.568 292.856V296H459.26V292.124C459.26 291.716 459.152 291.396 458.936 291.164C458.72 290.924 458.416 290.804 458.024 290.804C457.712 290.804 457.444 290.892 457.22 291.068C457.004 291.236 456.836 291.476 456.716 291.788C456.596 292.1 456.536 292.456 456.536 292.856V296H455.228V289.772ZM468.566 287.348H474.254V288.572H469.958V290.9H473.45V292.124H469.958V296H468.566V287.348ZM477.406 296.096C476.806 296.096 476.266 295.96 475.786 295.688C475.314 295.408 474.946 295.024 474.682 294.536C474.418 294.048 474.286 293.496 474.286 292.88C474.286 292.264 474.418 291.716 474.682 291.236C474.946 290.748 475.314 290.368 475.786 290.096C476.266 289.816 476.806 289.676 477.406 289.676C478.006 289.676 478.542 289.816 479.014 290.096C479.494 290.368 479.87 290.748 480.142 291.236C480.414 291.716 480.55 292.264 480.55 292.88C480.55 293.496 480.414 294.048 480.142 294.536C479.87 295.024 479.494 295.408 479.014 295.688C478.542 295.96 478.006 296.096 477.406 296.096ZM477.406 294.956C477.766 294.956 478.078 294.868 478.342 294.692C478.614 294.516 478.826 294.272 478.978 293.96C479.13 293.64 479.206 293.28 479.206 292.88C479.206 292.48 479.13 292.124 478.978 291.812C478.826 291.5 478.61 291.256 478.33 291.08C478.058 290.904 477.75 290.816 477.406 290.816C477.062 290.816 476.75 290.904 476.47 291.08C476.198 291.256 475.986 291.504 475.834 291.824C475.69 292.136 475.618 292.488 475.618 292.88C475.618 293.288 475.69 293.648 475.834 293.96C475.986 294.272 476.198 294.516 476.47 294.692C476.742 294.868 477.054 294.956 477.406 294.956ZM487.174 296H485.866V294.944C485.642 295.304 485.35 295.588 484.99 295.796C484.638 295.996 484.242 296.096 483.802 296.096C483.362 296.096 482.974 296.004 482.638 295.82C482.302 295.636 482.038 295.376 481.846 295.04C481.654 294.704 481.558 294.316 481.558 293.876V289.772H482.866V293.588C482.866 293.988 482.982 294.312 483.214 294.56C483.446 294.8 483.758 294.92 484.15 294.92C484.502 294.92 484.806 294.824 485.062 294.632C485.318 294.44 485.514 294.164 485.65 293.804C485.794 293.444 485.866 293.012 485.866 292.508V289.772H487.174V296ZM488.591 289.772H489.899V290.828C490.123 290.468 490.411 290.188 490.763 289.988C491.123 289.78 491.523 289.676 491.963 289.676C492.403 289.676 492.791 289.768 493.127 289.952C493.463 290.136 493.727 290.396 493.919 290.732C494.111 291.068 494.207 291.456 494.207 291.896V296H492.899V292.184C492.899 291.784 492.783 291.464 492.551 291.224C492.319 290.976 492.007 290.852 491.615 290.852C491.263 290.852 490.959 290.948 490.703 291.14C490.447 291.332 490.247 291.608 490.103 291.968C489.967 292.328 489.899 292.76 489.899 293.264V296H488.591V289.772ZM498.203 296.096C497.587 296.096 497.055 295.96 496.607 295.688C496.159 295.416 495.815 295.036 495.575 294.548C495.343 294.06 495.227 293.504 495.227 292.88C495.227 292.256 495.347 291.704 495.587 291.224C495.827 290.736 496.167 290.356 496.607 290.084C497.055 289.812 497.579 289.676 498.179 289.676C498.571 289.676 498.935 289.76 499.271 289.928C499.615 290.088 499.883 290.3 500.075 290.564V287.252H501.383V296H500.075V295.196C499.931 295.452 499.687 295.668 499.343 295.844C498.999 296.012 498.619 296.096 498.203 296.096ZM498.371 294.956C498.723 294.956 499.035 294.872 499.307 294.704C499.579 294.528 499.791 294.284 499.943 293.972C500.095 293.66 500.171 293.296 500.171 292.88C500.171 292.472 500.095 292.112 499.943 291.8C499.791 291.488 499.579 291.248 499.307 291.08C499.035 290.904 498.723 290.816 498.371 290.816C498.011 290.816 497.695 290.904 497.423 291.08C497.151 291.248 496.939 291.488 496.787 291.8C496.643 292.112 496.571 292.472 496.571 292.88C496.571 293.288 496.643 293.652 496.787 293.972C496.939 294.284 497.151 294.528 497.423 294.704C497.695 294.872 498.011 294.956 498.371 294.956ZM506.49 290.96C506.298 290.912 506.09 290.888 505.866 290.888C505.546 290.888 505.254 290.988 504.99 291.188C504.726 291.388 504.514 291.7 504.354 292.124C504.194 292.54 504.114 293.056 504.114 293.672V296H502.806V289.772H504.114V290.96C504.258 290.592 504.514 290.288 504.882 290.048C505.25 289.8 505.634 289.676 506.034 289.676C506.234 289.676 506.386 289.688 506.49 289.712V290.96ZM506.68 289.772H508.12L509.896 294.44L509.296 296.3L506.68 289.772ZM512.788 289.772L510.22 296.444C509.988 297.036 509.696 297.5 509.344 297.836C508.992 298.172 508.512 298.34 507.904 298.34C507.632 298.34 507.368 298.3 507.112 298.22V297.092C507.328 297.164 507.548 297.2 507.772 297.2C507.996 297.2 508.18 297.16 508.324 297.08C508.476 297 508.608 296.876 508.72 296.708C508.832 296.54 508.952 296.288 509.08 295.952L511.468 289.772H512.788Z" fill="white" fill-opacity="0.48"/>
<line x1="548" y1="63" x2="548" y2="253" stroke="white" stroke-width="2"/>
<defs>
<linearGradient id="paint0_linear_2163_3073" x1="85" y1="158" x2="555" y2="158" gradientUnits="userSpaceOnUse">
<stop offset="0.625" stop-color="white"/>
<stop offset="0.947917" stop-color="white" stop-opacity="0"/>
</linearGradient>
</defs>
</svg>
