<svg width="24" height="24" viewBox="0 0 24 24" fill="none" xmlns="http://www.w3.org/2000/svg">
<path d="M13.1429 23.9463C13.7276 23.891 14.3001 23.7938 14.8574 23.6577V0.342292C14.3001 0.206167 13.7276 0.10896 13.1429 0.0537143V23.9463Z" fill="#ED5035"/>
<path d="M17.7139 22.5549C17.1669 22.8517 16.5943 23.1071 16.0003 23.3171V0.682921C16.5943 0.892908 17.1669 1.14834 17.7139 1.44505V22.5549Z" fill="#ED5035"/>
<path d="M18.8567 21.8494C21.9658 19.6809 24 16.078 24 12C24 7.92197 21.9658 4.31905 18.8567 2.1506V21.8494Z" fill="#ED5035"/>
<path d="M12 0C5.37258 0 0 5.37258 0 12C0 18.6274 5.37258 24 12 24V0Z" fill="#ED5035"/>
</svg>
