<svg width="640" height="340" viewBox="0 0 640 340" fill="none" xmlns="http://www.w3.org/2000/svg">
<g filter="url(#filter0_i_2163_2739)">
<rect x="182.533" y="144" width="52" height="52" rx="12" fill="url(#paint0_linear_2163_2739)"/>
</g>
<rect x="183.033" y="144.5" width="51" height="51" rx="11.5" stroke="#12151D"/>
<rect x="131.033" y="144.5" width="51" height="51" rx="11.5" fill="white" fill-opacity="0.05" stroke="#12151D"/>
<rect x="131.033" y="92.5" width="51" height="51" rx="11.5" fill="white" fill-opacity="0.05" stroke="#12151D"/>
<rect x="235.033" y="92.5" width="51" height="51" rx="11.5" fill="white" fill-opacity="0.05" stroke="#12151D"/>
<rect x="391.033" y="92.5" width="51" height="51" rx="11.5" fill="white" fill-opacity="0.05" stroke="#12151D"/>
<rect x="339.033" y="92.5" width="51" height="51" rx="11.5" fill="white" fill-opacity="0.05" stroke="#12151D"/>
<rect x="183.033" y="92.5" width="51" height="51" rx="11.5" fill="white" fill-opacity="0.05" stroke="#12151D"/>
<g filter="url(#filter1_i_2163_2739)">
<rect x="286.533" y="92" width="52" height="52" rx="12" fill="url(#paint1_linear_2163_2739)"/>
</g>
<rect x="287.033" y="92.5" width="51" height="51" rx="11.5" stroke="#12151D"/>
<g filter="url(#filter2_i_2163_2739)">
<rect x="286.533" y="40" width="52" height="52" rx="12" fill="url(#paint2_linear_2163_2739)"/>
</g>
<rect x="287.033" y="40.5" width="51" height="51" rx="11.5" stroke="#12151D"/>
<g filter="url(#filter3_i_2163_2739)">
<rect x="234.533" y="40" width="52" height="52" rx="12" fill="url(#paint3_linear_2163_2739)"/>
</g>
<rect x="235.033" y="40.5" width="51" height="51" rx="11.5" stroke="#12151D"/>
<g filter="url(#filter4_i_2163_2739)">
<rect x="338.533" y="40" width="52" height="52" rx="12" fill="url(#paint4_linear_2163_2739)"/>
</g>
<rect x="339.033" y="40.5" width="51" height="51" rx="11.5" stroke="#12151D"/>
<rect x="443.033" y="92.5" width="51" height="51" rx="11.5" fill="white" fill-opacity="0.05" stroke="#12151D"/>
<rect x="495.033" y="92.5" width="51" height="51" rx="11.5" fill="white" fill-opacity="0.05" stroke="#12151D"/>
<rect x="79.0332" y="92.5" width="51" height="51" rx="11.5" fill="white" fill-opacity="0.05" stroke="#12151D"/>
<rect x="443.033" y="144.5" width="51" height="51" rx="11.5" fill="white" fill-opacity="0.05" stroke="#12151D"/>
<rect x="495.033" y="144.5" width="51" height="51" rx="11.5" fill="white" fill-opacity="0.05" stroke="#12151D"/>
<g filter="url(#filter5_i_2163_2739)">
<rect x="78.5332" y="144" width="52" height="52" rx="12" fill="url(#paint5_linear_2163_2739)"/>
</g>
<rect x="79.0332" y="144.5" width="51" height="51" rx="11.5" stroke="#12151D"/>
<rect x="287.033" y="144.5" width="51" height="51" rx="11.5" fill="white" fill-opacity="0.05" stroke="#12151D"/>
<g filter="url(#filter6_i_2163_2739)">
<rect x="338.533" y="144" width="52" height="52" rx="12" fill="url(#paint6_linear_2163_2739)"/>
</g>
<rect x="339.033" y="144.5" width="51" height="51" rx="11.5" stroke="#12151D"/>
<g filter="url(#filter7_i_2163_2739)">
<rect x="390.533" y="144" width="52" height="52" rx="12" fill="url(#paint7_linear_2163_2739)"/>
</g>
<rect x="391.033" y="144.5" width="51" height="51" rx="11.5" stroke="#12151D"/>
<g filter="url(#filter8_i_2163_2739)">
<rect x="182.533" y="196" width="52" height="52" rx="12" fill="url(#paint8_linear_2163_2739)"/>
</g>
<rect x="183.033" y="196.5" width="51" height="51" rx="11.5" stroke="#12151D"/>
<rect x="131.033" y="196.5" width="51" height="51" rx="11.5" fill="white" fill-opacity="0.05" stroke="#12151D"/>
<g filter="url(#filter9_i_2163_2739)">
<rect x="442.533" y="196" width="52" height="52" rx="12" fill="url(#paint9_linear_2163_2739)"/>
</g>
<rect x="443.033" y="196.5" width="51" height="51" rx="11.5" stroke="#12151D"/>
<g filter="url(#filter10_i_2163_2739)">
<rect x="494.533" y="196" width="52" height="52" rx="12" fill="url(#paint10_linear_2163_2739)"/>
</g>
<rect x="495.033" y="196.5" width="51" height="51" rx="11.5" stroke="#12151D"/>
<rect x="79.0332" y="196.5" width="51" height="51" rx="11.5" fill="url(#paint11_linear_2163_2739)" stroke="#12151D"/>
<g filter="url(#filter11_i_2163_2739)">
<rect x="78.5332" y="196" width="52" height="52" rx="12" fill="url(#paint12_linear_2163_2739)"/>
</g>
<rect x="79.0332" y="196.5" width="51" height="51" rx="11.5" stroke="#12151D"/>
<g filter="url(#filter12_i_2163_2739)">
<rect x="182.533" y="248" width="52" height="52" rx="12" fill="url(#paint13_linear_2163_2739)"/>
</g>
<rect x="183.033" y="248.5" width="51" height="51" rx="11.5" stroke="#12151D"/>
<g filter="url(#filter13_i_2163_2739)">
<rect x="130.533" y="248" width="52" height="52" rx="12" fill="url(#paint14_linear_2163_2739)"/>
</g>
<rect x="131.033" y="248.5" width="51" height="51" rx="11.5" stroke="#12151D"/>
<g filter="url(#filter14_i_2163_2739)">
<rect x="442.533" y="248" width="52" height="52" rx="12" fill="url(#paint15_linear_2163_2739)"/>
</g>
<rect x="443.033" y="248.5" width="51" height="51" rx="11.5" stroke="#12151D"/>
<g filter="url(#filter15_i_2163_2739)">
<rect x="494.533" y="248" width="52" height="52" rx="12" fill="url(#paint16_linear_2163_2739)"/>
</g>
<rect x="495.033" y="248.5" width="51" height="51" rx="11.5" stroke="#12151D"/>
<g filter="url(#filter16_i_2163_2739)">
<rect x="78.5332" y="248" width="52" height="52" rx="12" fill="url(#paint17_linear_2163_2739)"/>
</g>
<rect x="79.0332" y="248.5" width="51" height="51" rx="11.5" stroke="#12151D"/>
<g filter="url(#filter17_i_2163_2739)">
<rect x="234.533" y="248" width="52" height="52" rx="12" fill="url(#paint18_linear_2163_2739)"/>
</g>
<rect x="235.033" y="248.5" width="51" height="51" rx="11.5" stroke="#12151D"/>
<g filter="url(#filter18_i_2163_2739)">
<rect x="338.533" y="248" width="52" height="52" rx="12" fill="url(#paint19_linear_2163_2739)"/>
</g>
<rect x="339.033" y="248.5" width="51" height="51" rx="11.5" stroke="#12151D"/>
<g filter="url(#filter19_i_2163_2739)">
<rect x="390.533" y="248" width="52" height="52" rx="12" fill="url(#paint20_linear_2163_2739)"/>
</g>
<rect x="391.033" y="248.5" width="51" height="51" rx="11.5" stroke="#12151D"/>
<g filter="url(#filter20_i_2163_2739)">
<rect x="338.533" y="196" width="52" height="52" rx="12" fill="url(#paint21_linear_2163_2739)"/>
</g>
<rect x="339.033" y="196.5" width="51" height="51" rx="11.5" stroke="#12151D"/>
<g filter="url(#filter21_i_2163_2739)">
<rect x="390.533" y="196" width="52" height="52" rx="12" fill="url(#paint22_linear_2163_2739)"/>
</g>
<rect x="391.033" y="196.5" width="51" height="51" rx="11.5" stroke="#12151D"/>
<g filter="url(#filter22_i_2163_2739)">
<rect x="286.533" y="248" width="52" height="52" rx="12" fill="url(#paint23_linear_2163_2739)"/>
</g>
<rect x="287.033" y="248.5" width="51" height="51" rx="11.5" stroke="#12151D"/>
<g filter="url(#filter23_i_2163_2739)">
<rect x="234.533" y="196" width="52" height="52" rx="12" fill="url(#paint24_linear_2163_2739)"/>
</g>
<rect x="235.033" y="196.5" width="51" height="51" rx="11.5" stroke="#12151D"/>
<g filter="url(#filter24_i_2163_2739)">
<rect x="286.533" y="196" width="52" height="52" rx="12" fill="url(#paint25_linear_2163_2739)"/>
</g>
<rect x="287.033" y="196.5" width="51" height="51" rx="11.5" stroke="#12151D"/>
<g filter="url(#filter25_i_2163_2739)">
<rect x="234.533" y="144" width="52" height="52" rx="12" fill="url(#paint26_linear_2163_2739)"/>
</g>
<rect x="235.033" y="144.5" width="51" height="51" rx="11.5" stroke="#12151D"/>
<path d="M96.6228 162.167C96.6228 159.683 98.5915 157.667 101.076 157.667H108.81C111.295 157.667 113.263 159.683 113.263 162.167C113.263 163.761 112.467 165.12 111.248 165.917C112.467 166.761 113.263 168.12 113.263 169.714C113.263 172.151 111.295 174.167 108.81 174.167H108.717C107.545 174.167 106.467 173.745 105.67 172.995V177.167C105.67 179.651 103.607 181.667 101.123 181.667C98.6384 181.667 96.6228 179.698 96.6228 177.214C96.6228 175.62 97.4196 174.261 98.6384 173.464C97.4196 172.62 96.6228 171.261 96.6228 169.714C96.6228 168.12 97.4196 166.761 98.6384 165.917C97.4196 165.12 96.6228 163.761 96.6228 162.167ZM104.217 166.667H101.076C99.4353 166.667 98.0759 168.026 98.0759 169.714C98.0759 171.354 99.3884 172.714 101.076 172.714H104.217V166.667ZM105.67 169.714C105.67 171.354 107.029 172.714 108.717 172.714H108.81C110.451 172.714 111.81 171.354 111.81 169.714C111.81 168.026 110.451 166.667 108.81 166.667H108.717C107.029 166.667 105.67 168.026 105.67 169.714ZM101.076 174.167C99.3884 174.214 98.0759 175.526 98.0759 177.214C98.0759 178.854 99.4353 180.214 101.123 180.214C102.81 180.214 104.217 178.854 104.217 177.167V174.167H101.076ZM101.076 159.167C99.4353 159.167 98.0759 160.526 98.0759 162.167C98.0759 163.854 99.4353 165.214 101.076 165.214H104.217V159.167H101.076ZM105.67 165.214H108.81C110.451 165.214 111.81 163.854 111.81 162.167C111.81 160.526 110.451 159.167 108.81 159.167H105.67V165.214Z" fill="white"/>
<path d="M199.967 210.9H217.967L216.326 229.463L208.92 231.9L201.56 229.463L199.967 210.9ZM214.404 216.9L214.592 214.697H203.295L203.904 221.494H211.732L211.451 224.4L208.92 225.104L206.435 224.4L206.248 222.619H203.998L204.279 226.182L208.92 227.447H208.967L213.56 226.182L214.217 219.244H205.967L205.779 216.9H214.404Z" fill="white"/>
<path d="M271.467 158.9L268.467 176.15L257.967 179.9L248.967 176.15L249.857 171.744H253.701L253.326 173.619L258.81 175.729L265.092 173.619L265.935 169.072H250.326L251.076 165.229H266.732L267.201 162.744H251.592L252.342 158.9H271.467Z" fill="white"/>
<path d="M528.56 218.277C531.092 219.121 532.967 220.527 532.967 221.934C532.967 223.434 530.998 224.887 528.279 225.777C528.138 225.824 527.998 225.871 527.857 225.918C527.904 226.105 527.951 226.34 527.998 226.527C528.513 229.246 528.092 231.449 526.826 232.199C525.607 232.902 523.638 232.199 521.623 230.465C521.388 230.277 521.201 230.09 520.967 229.902C520.826 230.043 520.638 230.184 520.498 230.324C518.435 232.152 516.279 232.902 515.013 232.152C513.795 231.449 513.42 229.387 513.888 226.809C513.982 226.527 514.029 226.246 514.076 225.965C513.888 225.918 513.654 225.824 513.467 225.777C510.842 224.887 508.967 223.387 508.967 221.934C508.967 220.527 510.748 219.168 513.232 218.277C513.513 218.184 513.795 218.09 514.123 217.996C514.029 217.762 513.982 217.48 513.935 217.246C513.42 214.574 513.795 212.465 515.013 211.762C516.279 211.012 518.435 211.809 520.592 213.684C520.685 213.824 520.826 213.918 520.967 214.059C521.154 213.871 521.342 213.684 521.529 213.543C523.592 211.762 525.607 211.012 526.826 211.715C528.092 212.465 528.467 214.715 527.904 217.48C527.857 217.668 527.81 217.855 527.81 218.043C528.045 218.09 528.279 218.184 528.56 218.277ZM522.185 214.293C521.998 214.434 521.857 214.621 521.67 214.762C522.373 215.559 523.029 216.402 523.638 217.293C524.717 217.387 525.748 217.527 526.826 217.762C526.873 217.621 526.873 217.48 526.92 217.293C527.435 214.902 527.107 213.027 526.31 212.605C525.56 212.184 523.967 212.746 522.185 214.293ZM516.795 224.371C516.56 223.949 516.326 223.574 516.092 223.152C515.81 223.855 515.576 224.559 515.342 225.215C516.045 225.402 516.795 225.496 517.545 225.59C517.263 225.168 517.029 224.793 516.795 224.371ZM515.342 218.746C515.576 219.402 515.81 220.059 516.092 220.762C516.326 220.34 516.56 219.965 516.795 219.543C517.029 219.168 517.263 218.746 517.498 218.371C516.748 218.465 516.045 218.559 515.342 218.746ZM516.654 221.98C516.982 222.59 517.31 223.246 517.638 223.855C518.013 224.465 518.388 225.074 518.81 225.684C519.513 225.73 520.217 225.777 520.967 225.777C521.67 225.777 522.42 225.73 523.123 225.684C523.498 225.074 523.873 224.465 524.248 223.855C524.623 223.246 524.951 222.59 525.232 221.934C524.951 221.277 524.576 220.668 524.248 220.059C523.873 219.449 523.498 218.84 523.076 218.23C522.42 218.184 521.67 218.137 520.967 218.137C520.217 218.137 519.513 218.184 518.81 218.23C518.388 218.84 518.013 219.449 517.638 220.059C517.31 220.668 516.935 221.324 516.654 221.98ZM525.092 224.371C524.857 224.746 524.623 225.168 524.388 225.543C525.138 225.496 525.842 225.355 526.592 225.168C526.357 224.465 526.076 223.809 525.795 223.105C525.56 223.527 525.373 223.949 525.092 224.371ZM525.795 220.762C526.076 220.105 526.31 219.449 526.545 218.746C525.888 218.605 525.138 218.465 524.388 218.371C524.623 218.746 524.857 219.168 525.092 219.543C525.326 219.965 525.56 220.34 525.795 220.762ZM520.967 215.512C520.498 216.027 520.029 216.59 519.56 217.199C520.498 217.152 521.435 217.152 522.326 217.199C521.904 216.59 521.435 216.027 520.967 215.512ZM515.529 212.605C514.779 213.074 514.498 214.762 514.92 217.012C514.967 217.293 515.013 217.527 515.107 217.762C516.138 217.527 517.17 217.387 518.248 217.293C518.857 216.402 519.513 215.559 520.263 214.762C520.123 214.668 520.029 214.574 519.888 214.434C518.06 212.84 516.326 212.184 515.529 212.605ZM514.357 224.98C514.685 223.949 515.06 222.918 515.529 221.98C515.107 220.996 514.685 220.012 514.404 218.98C514.123 219.074 513.842 219.121 513.56 219.215C511.451 219.965 509.951 221.09 509.951 221.934C510.045 222.496 510.373 223.012 510.842 223.34C511.638 223.996 512.81 224.465 513.795 224.793C513.982 224.887 514.17 224.934 514.357 224.98ZM519.842 229.574C519.982 229.434 520.123 229.293 520.263 229.152C519.56 228.355 518.857 227.512 518.248 226.668C517.17 226.574 516.138 226.434 515.06 226.199C515.013 226.434 514.967 226.715 514.92 226.996C514.498 229.199 514.779 230.84 515.529 231.309C516.092 231.496 516.654 231.496 517.17 231.215C518.154 230.84 519.045 230.277 519.842 229.574ZM520.967 228.449C521.482 227.887 521.951 227.324 522.373 226.715C521.904 226.762 521.435 226.762 520.967 226.762C520.498 226.762 520.029 226.762 519.56 226.715C520.029 227.371 520.498 227.934 520.967 228.449ZM527.107 229.855C527.248 228.824 527.201 227.746 527.013 226.715C526.967 226.527 526.92 226.34 526.873 226.152C525.795 226.387 524.763 226.574 523.685 226.668C523.076 227.559 522.42 228.355 521.67 229.152C521.904 229.34 522.092 229.527 522.279 229.715C524.013 231.168 525.607 231.73 526.357 231.309C526.779 230.934 527.06 230.418 527.107 229.855ZM527.951 224.793C530.295 224.043 531.935 222.824 531.935 221.934C531.935 221.09 530.388 219.965 528.232 219.215C527.998 219.121 527.763 219.074 527.529 218.98C527.201 220.012 526.826 220.996 526.357 221.934C526.826 222.918 527.248 223.902 527.576 224.934C527.717 224.887 527.81 224.84 527.951 224.793ZM520.967 224.09C519.748 224.09 518.81 223.152 518.81 221.934C518.81 220.762 519.748 219.824 520.967 219.824C522.138 219.824 523.076 220.762 523.076 221.934C523.076 223.152 522.138 224.09 520.967 224.09Z" fill="white"/>
<path d="M354.348 210.767H375.348V231.767H354.348V210.767ZM365.739 227.173V220.423H363.77V227.126C363.77 228.11 363.348 228.392 362.739 228.392C362.036 228.392 361.755 227.923 361.473 227.36L359.833 228.345C360.301 229.329 361.239 230.126 362.786 230.126C364.567 230.126 365.739 229.188 365.739 227.173ZM370.426 230.126C372.301 230.126 373.708 229.188 373.708 227.407C373.708 225.767 372.77 225.017 371.083 224.313L370.567 224.079C369.723 223.704 369.348 223.47 369.348 222.86C369.348 222.392 369.723 222.017 370.286 222.017C370.895 222.017 371.223 222.298 371.598 222.86L373.098 221.876C372.489 220.751 371.551 220.329 370.333 220.329C368.551 220.329 367.426 221.454 367.426 222.907C367.426 224.548 368.364 225.298 369.77 225.907L370.286 226.095C371.176 226.517 371.739 226.751 371.739 227.407C371.739 227.97 371.176 228.392 370.38 228.392C369.395 228.392 368.88 227.876 368.458 227.22L366.817 228.11C367.426 229.282 368.598 230.126 370.426 230.126Z" fill="white"/>
<path d="M308.648 72.7275C308.648 72.8213 308.554 72.8682 308.414 72.8682C308.273 72.915 308.179 72.8213 308.179 72.7275C308.179 72.6338 308.273 72.54 308.414 72.54C308.554 72.54 308.648 72.6338 308.648 72.7275ZM307.195 72.4932C307.242 72.3994 307.382 72.3525 307.523 72.3994C307.664 72.4463 307.711 72.54 307.711 72.6338C307.664 72.7275 307.523 72.7744 307.429 72.7275C307.289 72.7275 307.195 72.5869 307.195 72.4932ZM309.304 72.4463C309.398 72.3994 309.539 72.4932 309.539 72.5869C309.586 72.6807 309.492 72.7275 309.351 72.7744C309.211 72.8213 309.07 72.7744 309.07 72.6807C309.07 72.54 309.164 72.4463 309.304 72.4463ZM312.351 54.4463C318.867 54.4463 324.164 59.415 324.164 65.8838C324.164 71.0869 320.976 75.54 316.289 77.0869C315.679 77.2275 315.445 76.8525 315.445 76.5244C315.445 76.1494 315.492 74.1807 315.492 72.6338C315.492 71.5088 315.117 70.8057 314.695 70.4307C317.32 70.1494 320.086 69.7744 320.086 65.2744C320.086 63.9619 319.617 63.3525 318.867 62.5088C318.961 62.1807 319.382 60.9619 318.726 59.3213C317.742 58.9932 315.492 60.5869 315.492 60.5869C314.554 60.3057 313.57 60.2119 312.539 60.2119C311.554 60.2119 310.57 60.3057 309.632 60.5869C309.632 60.5869 307.336 59.04 306.398 59.3213C305.742 60.9619 306.117 62.1807 306.257 62.5088C305.507 63.3525 305.132 63.9619 305.132 65.2744C305.132 69.7744 307.804 70.1494 310.429 70.4307C310.054 70.7588 309.773 71.2744 309.679 72.0244C308.976 72.3525 307.289 72.8682 306.257 71.04C305.601 69.915 304.429 69.8213 304.429 69.8213C303.304 69.8213 304.382 70.5713 304.382 70.5713C305.132 70.8994 305.648 72.2588 305.648 72.2588C306.351 74.3682 309.632 73.665 309.632 73.665C309.632 74.6494 309.632 76.2432 309.632 76.5713C309.632 76.8525 309.445 77.2275 308.836 77.1338C304.148 75.54 300.914 71.0869 300.914 65.8838C300.914 59.415 305.882 54.4463 312.351 54.4463ZM305.461 70.6182C305.507 70.5713 305.601 70.6182 305.695 70.665C305.789 70.7588 305.789 70.8994 305.742 70.9463C305.648 70.9932 305.554 70.9463 305.461 70.8994C305.414 70.8057 305.367 70.665 305.461 70.6182ZM304.945 70.2432C304.992 70.1963 305.039 70.1963 305.132 70.2432C305.226 70.29 305.273 70.3369 305.273 70.3838C305.226 70.4775 305.132 70.4775 305.039 70.4307C304.945 70.3838 304.898 70.3369 304.945 70.2432ZM306.445 71.9307C306.539 71.8369 306.679 71.8838 306.773 71.9775C306.867 72.0713 306.867 72.2119 306.82 72.2588C306.773 72.3525 306.632 72.3057 306.539 72.2119C306.398 72.1182 306.398 71.9775 306.445 71.9307ZM305.929 71.2275C306.023 71.1807 306.117 71.2275 306.211 71.3213C306.257 71.415 306.257 71.5557 306.211 71.6025C306.117 71.6494 306.023 71.6025 305.929 71.5088C305.836 71.415 305.836 71.2744 305.929 71.2275Z" fill="white"/>
<path fill-rule="evenodd" clip-rule="evenodd" d="M416.335 162.201C412.922 162.201 410.788 163.908 409.934 167.322C411.215 165.616 412.708 164.975 414.415 165.402C415.389 165.645 416.085 166.352 416.856 167.133C418.111 168.408 419.564 169.883 422.737 169.883C426.15 169.883 428.284 168.175 429.138 164.762C427.858 166.469 426.364 167.109 424.657 166.682C423.683 166.438 422.988 165.732 422.216 164.95C420.961 163.676 419.508 162.2 416.335 162.2V162.201ZM409.934 169.883C406.52 169.883 404.386 171.59 403.533 175.004C404.813 173.297 406.307 172.656 408.014 173.083C408.988 173.327 409.684 174.033 410.455 174.815C411.71 176.09 413.163 177.564 416.336 177.564C419.749 177.564 421.883 175.857 422.737 172.443C421.457 174.15 419.963 174.79 418.256 174.364C417.282 174.12 416.587 173.414 415.815 172.632C414.559 171.358 413.107 169.883 409.934 169.883Z" fill="white"/>
<g style="mix-blend-mode:overlay" opacity="0.5">
<rect x="182.533" y="248" width="52" height="52" rx="12" fill="white"/>
<rect x="130.533" y="248" width="52" height="52" rx="12" fill="white"/>
<rect x="442.533" y="248" width="52" height="52" rx="12" fill="white"/>
<rect x="494.533" y="248" width="52" height="52" rx="12" fill="white"/>
<rect x="78.5332" y="248" width="52" height="52" rx="12" fill="white"/>
<rect x="234.533" y="248" width="52" height="52" rx="12" fill="white"/>
<rect x="338.533" y="248" width="52" height="52" rx="12" fill="white"/>
<rect x="390.533" y="248" width="52" height="52" rx="12" fill="white"/>
<rect x="286.533" y="248" width="52" height="52" rx="12" fill="white"/>
</g>
<g clip-path="url(#clip0_2163_2739)">
<path opacity="0.2" d="M4 274L637 274" stroke="url(#paint27_linear_2163_2739)" stroke-width="54"/>
<g filter="url(#filter26_f_2163_2739)">
<path d="M4 248L637 248" stroke="url(#paint28_linear_2163_2739)" stroke-width="4"/>
</g>
<g filter="url(#filter27_f_2163_2739)">
<path d="M4 300L637 300" stroke="url(#paint29_linear_2163_2739)" stroke-width="4"/>
</g>
<g filter="url(#filter28_f_2163_2739)">
<path d="M57 248L637 248" stroke="url(#paint30_linear_2163_2739)" stroke-width="4"/>
</g>
<g filter="url(#filter29_f_2163_2739)">
<path d="M57 300L637 300" stroke="url(#paint31_linear_2163_2739)" stroke-width="4"/>
</g>
</g>
<defs>
<filter id="filter0_i_2163_2739" x="182.533" y="144" width="52" height="54" filterUnits="userSpaceOnUse" color-interpolation-filters="sRGB">
<feFlood flood-opacity="0" result="BackgroundImageFix"/>
<feBlend mode="normal" in="SourceGraphic" in2="BackgroundImageFix" result="shape"/>
<feColorMatrix in="SourceAlpha" type="matrix" values="0 0 0 0 0 0 0 0 0 0 0 0 0 0 0 0 0 0 127 0" result="hardAlpha"/>
<feMorphology radius="4" operator="erode" in="SourceAlpha" result="effect1_innerShadow_2163_2739"/>
<feOffset dy="2"/>
<feGaussianBlur stdDeviation="4.5"/>
<feComposite in2="hardAlpha" operator="arithmetic" k2="-1" k3="1"/>
<feColorMatrix type="matrix" values="0 0 0 0 1 0 0 0 0 1 0 0 0 0 1 0 0 0 0.2 0"/>
<feBlend mode="normal" in2="shape" result="effect1_innerShadow_2163_2739"/>
</filter>
<filter id="filter1_i_2163_2739" x="286.533" y="92" width="52" height="54" filterUnits="userSpaceOnUse" color-interpolation-filters="sRGB">
<feFlood flood-opacity="0" result="BackgroundImageFix"/>
<feBlend mode="normal" in="SourceGraphic" in2="BackgroundImageFix" result="shape"/>
<feColorMatrix in="SourceAlpha" type="matrix" values="0 0 0 0 0 0 0 0 0 0 0 0 0 0 0 0 0 0 127 0" result="hardAlpha"/>
<feMorphology radius="4" operator="erode" in="SourceAlpha" result="effect1_innerShadow_2163_2739"/>
<feOffset dy="2"/>
<feGaussianBlur stdDeviation="4.5"/>
<feComposite in2="hardAlpha" operator="arithmetic" k2="-1" k3="1"/>
<feColorMatrix type="matrix" values="0 0 0 0 1 0 0 0 0 1 0 0 0 0 1 0 0 0 0.2 0"/>
<feBlend mode="normal" in2="shape" result="effect1_innerShadow_2163_2739"/>
</filter>
<filter id="filter2_i_2163_2739" x="286.533" y="40" width="52" height="54" filterUnits="userSpaceOnUse" color-interpolation-filters="sRGB">
<feFlood flood-opacity="0" result="BackgroundImageFix"/>
<feBlend mode="normal" in="SourceGraphic" in2="BackgroundImageFix" result="shape"/>
<feColorMatrix in="SourceAlpha" type="matrix" values="0 0 0 0 0 0 0 0 0 0 0 0 0 0 0 0 0 0 127 0" result="hardAlpha"/>
<feMorphology radius="4" operator="erode" in="SourceAlpha" result="effect1_innerShadow_2163_2739"/>
<feOffset dy="2"/>
<feGaussianBlur stdDeviation="4.5"/>
<feComposite in2="hardAlpha" operator="arithmetic" k2="-1" k3="1"/>
<feColorMatrix type="matrix" values="0 0 0 0 1 0 0 0 0 1 0 0 0 0 1 0 0 0 0.2 0"/>
<feBlend mode="normal" in2="shape" result="effect1_innerShadow_2163_2739"/>
</filter>
<filter id="filter3_i_2163_2739" x="234.533" y="40" width="52" height="54" filterUnits="userSpaceOnUse" color-interpolation-filters="sRGB">
<feFlood flood-opacity="0" result="BackgroundImageFix"/>
<feBlend mode="normal" in="SourceGraphic" in2="BackgroundImageFix" result="shape"/>
<feColorMatrix in="SourceAlpha" type="matrix" values="0 0 0 0 0 0 0 0 0 0 0 0 0 0 0 0 0 0 127 0" result="hardAlpha"/>
<feMorphology radius="4" operator="erode" in="SourceAlpha" result="effect1_innerShadow_2163_2739"/>
<feOffset dy="2"/>
<feGaussianBlur stdDeviation="4.5"/>
<feComposite in2="hardAlpha" operator="arithmetic" k2="-1" k3="1"/>
<feColorMatrix type="matrix" values="0 0 0 0 1 0 0 0 0 1 0 0 0 0 1 0 0 0 0.2 0"/>
<feBlend mode="normal" in2="shape" result="effect1_innerShadow_2163_2739"/>
</filter>
<filter id="filter4_i_2163_2739" x="338.533" y="40" width="52" height="54" filterUnits="userSpaceOnUse" color-interpolation-filters="sRGB">
<feFlood flood-opacity="0" result="BackgroundImageFix"/>
<feBlend mode="normal" in="SourceGraphic" in2="BackgroundImageFix" result="shape"/>
<feColorMatrix in="SourceAlpha" type="matrix" values="0 0 0 0 0 0 0 0 0 0 0 0 0 0 0 0 0 0 127 0" result="hardAlpha"/>
<feMorphology radius="4" operator="erode" in="SourceAlpha" result="effect1_innerShadow_2163_2739"/>
<feOffset dy="2"/>
<feGaussianBlur stdDeviation="4.5"/>
<feComposite in2="hardAlpha" operator="arithmetic" k2="-1" k3="1"/>
<feColorMatrix type="matrix" values="0 0 0 0 1 0 0 0 0 1 0 0 0 0 1 0 0 0 0.2 0"/>
<feBlend mode="normal" in2="shape" result="effect1_innerShadow_2163_2739"/>
</filter>
<filter id="filter5_i_2163_2739" x="78.5332" y="144" width="52" height="54" filterUnits="userSpaceOnUse" color-interpolation-filters="sRGB">
<feFlood flood-opacity="0" result="BackgroundImageFix"/>
<feBlend mode="normal" in="SourceGraphic" in2="BackgroundImageFix" result="shape"/>
<feColorMatrix in="SourceAlpha" type="matrix" values="0 0 0 0 0 0 0 0 0 0 0 0 0 0 0 0 0 0 127 0" result="hardAlpha"/>
<feMorphology radius="4" operator="erode" in="SourceAlpha" result="effect1_innerShadow_2163_2739"/>
<feOffset dy="2"/>
<feGaussianBlur stdDeviation="4.5"/>
<feComposite in2="hardAlpha" operator="arithmetic" k2="-1" k3="1"/>
<feColorMatrix type="matrix" values="0 0 0 0 1 0 0 0 0 1 0 0 0 0 1 0 0 0 0.2 0"/>
<feBlend mode="normal" in2="shape" result="effect1_innerShadow_2163_2739"/>
</filter>
<filter id="filter6_i_2163_2739" x="338.533" y="144" width="52" height="54" filterUnits="userSpaceOnUse" color-interpolation-filters="sRGB">
<feFlood flood-opacity="0" result="BackgroundImageFix"/>
<feBlend mode="normal" in="SourceGraphic" in2="BackgroundImageFix" result="shape"/>
<feColorMatrix in="SourceAlpha" type="matrix" values="0 0 0 0 0 0 0 0 0 0 0 0 0 0 0 0 0 0 127 0" result="hardAlpha"/>
<feMorphology radius="4" operator="erode" in="SourceAlpha" result="effect1_innerShadow_2163_2739"/>
<feOffset dy="2"/>
<feGaussianBlur stdDeviation="4.5"/>
<feComposite in2="hardAlpha" operator="arithmetic" k2="-1" k3="1"/>
<feColorMatrix type="matrix" values="0 0 0 0 1 0 0 0 0 1 0 0 0 0 1 0 0 0 0.2 0"/>
<feBlend mode="normal" in2="shape" result="effect1_innerShadow_2163_2739"/>
</filter>
<filter id="filter7_i_2163_2739" x="390.533" y="144" width="52" height="54" filterUnits="userSpaceOnUse" color-interpolation-filters="sRGB">
<feFlood flood-opacity="0" result="BackgroundImageFix"/>
<feBlend mode="normal" in="SourceGraphic" in2="BackgroundImageFix" result="shape"/>
<feColorMatrix in="SourceAlpha" type="matrix" values="0 0 0 0 0 0 0 0 0 0 0 0 0 0 0 0 0 0 127 0" result="hardAlpha"/>
<feMorphology radius="4" operator="erode" in="SourceAlpha" result="effect1_innerShadow_2163_2739"/>
<feOffset dy="2"/>
<feGaussianBlur stdDeviation="4.5"/>
<feComposite in2="hardAlpha" operator="arithmetic" k2="-1" k3="1"/>
<feColorMatrix type="matrix" values="0 0 0 0 1 0 0 0 0 1 0 0 0 0 1 0 0 0 0.2 0"/>
<feBlend mode="normal" in2="shape" result="effect1_innerShadow_2163_2739"/>
</filter>
<filter id="filter8_i_2163_2739" x="182.533" y="196" width="52" height="54" filterUnits="userSpaceOnUse" color-interpolation-filters="sRGB">
<feFlood flood-opacity="0" result="BackgroundImageFix"/>
<feBlend mode="normal" in="SourceGraphic" in2="BackgroundImageFix" result="shape"/>
<feColorMatrix in="SourceAlpha" type="matrix" values="0 0 0 0 0 0 0 0 0 0 0 0 0 0 0 0 0 0 127 0" result="hardAlpha"/>
<feMorphology radius="4" operator="erode" in="SourceAlpha" result="effect1_innerShadow_2163_2739"/>
<feOffset dy="2"/>
<feGaussianBlur stdDeviation="4.5"/>
<feComposite in2="hardAlpha" operator="arithmetic" k2="-1" k3="1"/>
<feColorMatrix type="matrix" values="0 0 0 0 1 0 0 0 0 1 0 0 0 0 1 0 0 0 0.2 0"/>
<feBlend mode="normal" in2="shape" result="effect1_innerShadow_2163_2739"/>
</filter>
<filter id="filter9_i_2163_2739" x="442.533" y="196" width="52" height="54" filterUnits="userSpaceOnUse" color-interpolation-filters="sRGB">
<feFlood flood-opacity="0" result="BackgroundImageFix"/>
<feBlend mode="normal" in="SourceGraphic" in2="BackgroundImageFix" result="shape"/>
<feColorMatrix in="SourceAlpha" type="matrix" values="0 0 0 0 0 0 0 0 0 0 0 0 0 0 0 0 0 0 127 0" result="hardAlpha"/>
<feMorphology radius="4" operator="erode" in="SourceAlpha" result="effect1_innerShadow_2163_2739"/>
<feOffset dy="2"/>
<feGaussianBlur stdDeviation="4.5"/>
<feComposite in2="hardAlpha" operator="arithmetic" k2="-1" k3="1"/>
<feColorMatrix type="matrix" values="0 0 0 0 1 0 0 0 0 1 0 0 0 0 1 0 0 0 0.2 0"/>
<feBlend mode="normal" in2="shape" result="effect1_innerShadow_2163_2739"/>
</filter>
<filter id="filter10_i_2163_2739" x="494.533" y="196" width="52" height="54" filterUnits="userSpaceOnUse" color-interpolation-filters="sRGB">
<feFlood flood-opacity="0" result="BackgroundImageFix"/>
<feBlend mode="normal" in="SourceGraphic" in2="BackgroundImageFix" result="shape"/>
<feColorMatrix in="SourceAlpha" type="matrix" values="0 0 0 0 0 0 0 0 0 0 0 0 0 0 0 0 0 0 127 0" result="hardAlpha"/>
<feMorphology radius="4" operator="erode" in="SourceAlpha" result="effect1_innerShadow_2163_2739"/>
<feOffset dy="2"/>
<feGaussianBlur stdDeviation="4.5"/>
<feComposite in2="hardAlpha" operator="arithmetic" k2="-1" k3="1"/>
<feColorMatrix type="matrix" values="0 0 0 0 1 0 0 0 0 1 0 0 0 0 1 0 0 0 0.2 0"/>
<feBlend mode="normal" in2="shape" result="effect1_innerShadow_2163_2739"/>
</filter>
<filter id="filter11_i_2163_2739" x="78.5332" y="196" width="52" height="54" filterUnits="userSpaceOnUse" color-interpolation-filters="sRGB">
<feFlood flood-opacity="0" result="BackgroundImageFix"/>
<feBlend mode="normal" in="SourceGraphic" in2="BackgroundImageFix" result="shape"/>
<feColorMatrix in="SourceAlpha" type="matrix" values="0 0 0 0 0 0 0 0 0 0 0 0 0 0 0 0 0 0 127 0" result="hardAlpha"/>
<feMorphology radius="4" operator="erode" in="SourceAlpha" result="effect1_innerShadow_2163_2739"/>
<feOffset dy="2"/>
<feGaussianBlur stdDeviation="4.5"/>
<feComposite in2="hardAlpha" operator="arithmetic" k2="-1" k3="1"/>
<feColorMatrix type="matrix" values="0 0 0 0 1 0 0 0 0 1 0 0 0 0 1 0 0 0 0.2 0"/>
<feBlend mode="normal" in2="shape" result="effect1_innerShadow_2163_2739"/>
</filter>
<filter id="filter12_i_2163_2739" x="182.533" y="248" width="52" height="54" filterUnits="userSpaceOnUse" color-interpolation-filters="sRGB">
<feFlood flood-opacity="0" result="BackgroundImageFix"/>
<feBlend mode="normal" in="SourceGraphic" in2="BackgroundImageFix" result="shape"/>
<feColorMatrix in="SourceAlpha" type="matrix" values="0 0 0 0 0 0 0 0 0 0 0 0 0 0 0 0 0 0 127 0" result="hardAlpha"/>
<feMorphology radius="4" operator="erode" in="SourceAlpha" result="effect1_innerShadow_2163_2739"/>
<feOffset dy="2"/>
<feGaussianBlur stdDeviation="4.5"/>
<feComposite in2="hardAlpha" operator="arithmetic" k2="-1" k3="1"/>
<feColorMatrix type="matrix" values="0 0 0 0 1 0 0 0 0 1 0 0 0 0 1 0 0 0 0.2 0"/>
<feBlend mode="normal" in2="shape" result="effect1_innerShadow_2163_2739"/>
</filter>
<filter id="filter13_i_2163_2739" x="130.533" y="248" width="52" height="54" filterUnits="userSpaceOnUse" color-interpolation-filters="sRGB">
<feFlood flood-opacity="0" result="BackgroundImageFix"/>
<feBlend mode="normal" in="SourceGraphic" in2="BackgroundImageFix" result="shape"/>
<feColorMatrix in="SourceAlpha" type="matrix" values="0 0 0 0 0 0 0 0 0 0 0 0 0 0 0 0 0 0 127 0" result="hardAlpha"/>
<feMorphology radius="4" operator="erode" in="SourceAlpha" result="effect1_innerShadow_2163_2739"/>
<feOffset dy="2"/>
<feGaussianBlur stdDeviation="4.5"/>
<feComposite in2="hardAlpha" operator="arithmetic" k2="-1" k3="1"/>
<feColorMatrix type="matrix" values="0 0 0 0 1 0 0 0 0 1 0 0 0 0 1 0 0 0 0.2 0"/>
<feBlend mode="normal" in2="shape" result="effect1_innerShadow_2163_2739"/>
</filter>
<filter id="filter14_i_2163_2739" x="442.533" y="248" width="52" height="54" filterUnits="userSpaceOnUse" color-interpolation-filters="sRGB">
<feFlood flood-opacity="0" result="BackgroundImageFix"/>
<feBlend mode="normal" in="SourceGraphic" in2="BackgroundImageFix" result="shape"/>
<feColorMatrix in="SourceAlpha" type="matrix" values="0 0 0 0 0 0 0 0 0 0 0 0 0 0 0 0 0 0 127 0" result="hardAlpha"/>
<feMorphology radius="4" operator="erode" in="SourceAlpha" result="effect1_innerShadow_2163_2739"/>
<feOffset dy="2"/>
<feGaussianBlur stdDeviation="4.5"/>
<feComposite in2="hardAlpha" operator="arithmetic" k2="-1" k3="1"/>
<feColorMatrix type="matrix" values="0 0 0 0 1 0 0 0 0 1 0 0 0 0 1 0 0 0 0.2 0"/>
<feBlend mode="normal" in2="shape" result="effect1_innerShadow_2163_2739"/>
</filter>
<filter id="filter15_i_2163_2739" x="494.533" y="248" width="52" height="54" filterUnits="userSpaceOnUse" color-interpolation-filters="sRGB">
<feFlood flood-opacity="0" result="BackgroundImageFix"/>
<feBlend mode="normal" in="SourceGraphic" in2="BackgroundImageFix" result="shape"/>
<feColorMatrix in="SourceAlpha" type="matrix" values="0 0 0 0 0 0 0 0 0 0 0 0 0 0 0 0 0 0 127 0" result="hardAlpha"/>
<feMorphology radius="4" operator="erode" in="SourceAlpha" result="effect1_innerShadow_2163_2739"/>
<feOffset dy="2"/>
<feGaussianBlur stdDeviation="4.5"/>
<feComposite in2="hardAlpha" operator="arithmetic" k2="-1" k3="1"/>
<feColorMatrix type="matrix" values="0 0 0 0 1 0 0 0 0 1 0 0 0 0 1 0 0 0 0.2 0"/>
<feBlend mode="normal" in2="shape" result="effect1_innerShadow_2163_2739"/>
</filter>
<filter id="filter16_i_2163_2739" x="78.5332" y="248" width="52" height="54" filterUnits="userSpaceOnUse" color-interpolation-filters="sRGB">
<feFlood flood-opacity="0" result="BackgroundImageFix"/>
<feBlend mode="normal" in="SourceGraphic" in2="BackgroundImageFix" result="shape"/>
<feColorMatrix in="SourceAlpha" type="matrix" values="0 0 0 0 0 0 0 0 0 0 0 0 0 0 0 0 0 0 127 0" result="hardAlpha"/>
<feMorphology radius="4" operator="erode" in="SourceAlpha" result="effect1_innerShadow_2163_2739"/>
<feOffset dy="2"/>
<feGaussianBlur stdDeviation="4.5"/>
<feComposite in2="hardAlpha" operator="arithmetic" k2="-1" k3="1"/>
<feColorMatrix type="matrix" values="0 0 0 0 1 0 0 0 0 1 0 0 0 0 1 0 0 0 0.2 0"/>
<feBlend mode="normal" in2="shape" result="effect1_innerShadow_2163_2739"/>
</filter>
<filter id="filter17_i_2163_2739" x="234.533" y="248" width="52" height="54" filterUnits="userSpaceOnUse" color-interpolation-filters="sRGB">
<feFlood flood-opacity="0" result="BackgroundImageFix"/>
<feBlend mode="normal" in="SourceGraphic" in2="BackgroundImageFix" result="shape"/>
<feColorMatrix in="SourceAlpha" type="matrix" values="0 0 0 0 0 0 0 0 0 0 0 0 0 0 0 0 0 0 127 0" result="hardAlpha"/>
<feMorphology radius="4" operator="erode" in="SourceAlpha" result="effect1_innerShadow_2163_2739"/>
<feOffset dy="2"/>
<feGaussianBlur stdDeviation="4.5"/>
<feComposite in2="hardAlpha" operator="arithmetic" k2="-1" k3="1"/>
<feColorMatrix type="matrix" values="0 0 0 0 1 0 0 0 0 1 0 0 0 0 1 0 0 0 0.2 0"/>
<feBlend mode="normal" in2="shape" result="effect1_innerShadow_2163_2739"/>
</filter>
<filter id="filter18_i_2163_2739" x="338.533" y="248" width="52" height="54" filterUnits="userSpaceOnUse" color-interpolation-filters="sRGB">
<feFlood flood-opacity="0" result="BackgroundImageFix"/>
<feBlend mode="normal" in="SourceGraphic" in2="BackgroundImageFix" result="shape"/>
<feColorMatrix in="SourceAlpha" type="matrix" values="0 0 0 0 0 0 0 0 0 0 0 0 0 0 0 0 0 0 127 0" result="hardAlpha"/>
<feMorphology radius="4" operator="erode" in="SourceAlpha" result="effect1_innerShadow_2163_2739"/>
<feOffset dy="2"/>
<feGaussianBlur stdDeviation="4.5"/>
<feComposite in2="hardAlpha" operator="arithmetic" k2="-1" k3="1"/>
<feColorMatrix type="matrix" values="0 0 0 0 1 0 0 0 0 1 0 0 0 0 1 0 0 0 0.2 0"/>
<feBlend mode="normal" in2="shape" result="effect1_innerShadow_2163_2739"/>
</filter>
<filter id="filter19_i_2163_2739" x="390.533" y="248" width="52" height="54" filterUnits="userSpaceOnUse" color-interpolation-filters="sRGB">
<feFlood flood-opacity="0" result="BackgroundImageFix"/>
<feBlend mode="normal" in="SourceGraphic" in2="BackgroundImageFix" result="shape"/>
<feColorMatrix in="SourceAlpha" type="matrix" values="0 0 0 0 0 0 0 0 0 0 0 0 0 0 0 0 0 0 127 0" result="hardAlpha"/>
<feMorphology radius="4" operator="erode" in="SourceAlpha" result="effect1_innerShadow_2163_2739"/>
<feOffset dy="2"/>
<feGaussianBlur stdDeviation="4.5"/>
<feComposite in2="hardAlpha" operator="arithmetic" k2="-1" k3="1"/>
<feColorMatrix type="matrix" values="0 0 0 0 1 0 0 0 0 1 0 0 0 0 1 0 0 0 0.2 0"/>
<feBlend mode="normal" in2="shape" result="effect1_innerShadow_2163_2739"/>
</filter>
<filter id="filter20_i_2163_2739" x="338.533" y="196" width="52" height="54" filterUnits="userSpaceOnUse" color-interpolation-filters="sRGB">
<feFlood flood-opacity="0" result="BackgroundImageFix"/>
<feBlend mode="normal" in="SourceGraphic" in2="BackgroundImageFix" result="shape"/>
<feColorMatrix in="SourceAlpha" type="matrix" values="0 0 0 0 0 0 0 0 0 0 0 0 0 0 0 0 0 0 127 0" result="hardAlpha"/>
<feMorphology radius="4" operator="erode" in="SourceAlpha" result="effect1_innerShadow_2163_2739"/>
<feOffset dy="2"/>
<feGaussianBlur stdDeviation="4.5"/>
<feComposite in2="hardAlpha" operator="arithmetic" k2="-1" k3="1"/>
<feColorMatrix type="matrix" values="0 0 0 0 1 0 0 0 0 1 0 0 0 0 1 0 0 0 0.2 0"/>
<feBlend mode="normal" in2="shape" result="effect1_innerShadow_2163_2739"/>
</filter>
<filter id="filter21_i_2163_2739" x="390.533" y="196" width="52" height="54" filterUnits="userSpaceOnUse" color-interpolation-filters="sRGB">
<feFlood flood-opacity="0" result="BackgroundImageFix"/>
<feBlend mode="normal" in="SourceGraphic" in2="BackgroundImageFix" result="shape"/>
<feColorMatrix in="SourceAlpha" type="matrix" values="0 0 0 0 0 0 0 0 0 0 0 0 0 0 0 0 0 0 127 0" result="hardAlpha"/>
<feMorphology radius="4" operator="erode" in="SourceAlpha" result="effect1_innerShadow_2163_2739"/>
<feOffset dy="2"/>
<feGaussianBlur stdDeviation="4.5"/>
<feComposite in2="hardAlpha" operator="arithmetic" k2="-1" k3="1"/>
<feColorMatrix type="matrix" values="0 0 0 0 1 0 0 0 0 1 0 0 0 0 1 0 0 0 0.2 0"/>
<feBlend mode="normal" in2="shape" result="effect1_innerShadow_2163_2739"/>
</filter>
<filter id="filter22_i_2163_2739" x="286.533" y="248" width="52" height="54" filterUnits="userSpaceOnUse" color-interpolation-filters="sRGB">
<feFlood flood-opacity="0" result="BackgroundImageFix"/>
<feBlend mode="normal" in="SourceGraphic" in2="BackgroundImageFix" result="shape"/>
<feColorMatrix in="SourceAlpha" type="matrix" values="0 0 0 0 0 0 0 0 0 0 0 0 0 0 0 0 0 0 127 0" result="hardAlpha"/>
<feMorphology radius="4" operator="erode" in="SourceAlpha" result="effect1_innerShadow_2163_2739"/>
<feOffset dy="2"/>
<feGaussianBlur stdDeviation="4.5"/>
<feComposite in2="hardAlpha" operator="arithmetic" k2="-1" k3="1"/>
<feColorMatrix type="matrix" values="0 0 0 0 1 0 0 0 0 1 0 0 0 0 1 0 0 0 0.2 0"/>
<feBlend mode="normal" in2="shape" result="effect1_innerShadow_2163_2739"/>
</filter>
<filter id="filter23_i_2163_2739" x="234.533" y="196" width="52" height="54" filterUnits="userSpaceOnUse" color-interpolation-filters="sRGB">
<feFlood flood-opacity="0" result="BackgroundImageFix"/>
<feBlend mode="normal" in="SourceGraphic" in2="BackgroundImageFix" result="shape"/>
<feColorMatrix in="SourceAlpha" type="matrix" values="0 0 0 0 0 0 0 0 0 0 0 0 0 0 0 0 0 0 127 0" result="hardAlpha"/>
<feMorphology radius="4" operator="erode" in="SourceAlpha" result="effect1_innerShadow_2163_2739"/>
<feOffset dy="2"/>
<feGaussianBlur stdDeviation="4.5"/>
<feComposite in2="hardAlpha" operator="arithmetic" k2="-1" k3="1"/>
<feColorMatrix type="matrix" values="0 0 0 0 1 0 0 0 0 1 0 0 0 0 1 0 0 0 0.2 0"/>
<feBlend mode="normal" in2="shape" result="effect1_innerShadow_2163_2739"/>
</filter>
<filter id="filter24_i_2163_2739" x="286.533" y="196" width="52" height="54" filterUnits="userSpaceOnUse" color-interpolation-filters="sRGB">
<feFlood flood-opacity="0" result="BackgroundImageFix"/>
<feBlend mode="normal" in="SourceGraphic" in2="BackgroundImageFix" result="shape"/>
<feColorMatrix in="SourceAlpha" type="matrix" values="0 0 0 0 0 0 0 0 0 0 0 0 0 0 0 0 0 0 127 0" result="hardAlpha"/>
<feMorphology radius="4" operator="erode" in="SourceAlpha" result="effect1_innerShadow_2163_2739"/>
<feOffset dy="2"/>
<feGaussianBlur stdDeviation="4.5"/>
<feComposite in2="hardAlpha" operator="arithmetic" k2="-1" k3="1"/>
<feColorMatrix type="matrix" values="0 0 0 0 1 0 0 0 0 1 0 0 0 0 1 0 0 0 0.2 0"/>
<feBlend mode="normal" in2="shape" result="effect1_innerShadow_2163_2739"/>
</filter>
<filter id="filter25_i_2163_2739" x="234.533" y="144" width="52" height="54" filterUnits="userSpaceOnUse" color-interpolation-filters="sRGB">
<feFlood flood-opacity="0" result="BackgroundImageFix"/>
<feBlend mode="normal" in="SourceGraphic" in2="BackgroundImageFix" result="shape"/>
<feColorMatrix in="SourceAlpha" type="matrix" values="0 0 0 0 0 0 0 0 0 0 0 0 0 0 0 0 0 0 127 0" result="hardAlpha"/>
<feMorphology radius="4" operator="erode" in="SourceAlpha" result="effect1_innerShadow_2163_2739"/>
<feOffset dy="2"/>
<feGaussianBlur stdDeviation="4.5"/>
<feComposite in2="hardAlpha" operator="arithmetic" k2="-1" k3="1"/>
<feColorMatrix type="matrix" values="0 0 0 0 1 0 0 0 0 1 0 0 0 0 1 0 0 0 0.2 0"/>
<feBlend mode="normal" in2="shape" result="effect1_innerShadow_2163_2739"/>
</filter>
<filter id="filter26_f_2163_2739" x="-4" y="238" width="649" height="20" filterUnits="userSpaceOnUse" color-interpolation-filters="sRGB">
<feFlood flood-opacity="0" result="BackgroundImageFix"/>
<feBlend mode="normal" in="SourceGraphic" in2="BackgroundImageFix" result="shape"/>
<feGaussianBlur stdDeviation="4" result="effect1_foregroundBlur_2163_2739"/>
</filter>
<filter id="filter27_f_2163_2739" x="-4" y="290" width="649" height="20" filterUnits="userSpaceOnUse" color-interpolation-filters="sRGB">
<feFlood flood-opacity="0" result="BackgroundImageFix"/>
<feBlend mode="normal" in="SourceGraphic" in2="BackgroundImageFix" result="shape"/>
<feGaussianBlur stdDeviation="4" result="effect1_foregroundBlur_2163_2739"/>
</filter>
<filter id="filter28_f_2163_2739" x="37" y="226" width="620" height="44" filterUnits="userSpaceOnUse" color-interpolation-filters="sRGB">
<feFlood flood-opacity="0" result="BackgroundImageFix"/>
<feBlend mode="normal" in="SourceGraphic" in2="BackgroundImageFix" result="shape"/>
<feGaussianBlur stdDeviation="10" result="effect1_foregroundBlur_2163_2739"/>
</filter>
<filter id="filter29_f_2163_2739" x="37" y="278" width="620" height="44" filterUnits="userSpaceOnUse" color-interpolation-filters="sRGB">
<feFlood flood-opacity="0" result="BackgroundImageFix"/>
<feBlend mode="normal" in="SourceGraphic" in2="BackgroundImageFix" result="shape"/>
<feGaussianBlur stdDeviation="10" result="effect1_foregroundBlur_2163_2739"/>
</filter>
<linearGradient id="paint0_linear_2163_2739" x1="208.533" y1="144" x2="208.533" y2="196" gradientUnits="userSpaceOnUse">
<stop stop-color="#789EFF"/>
<stop offset="1" stop-color="#9378FF"/>
</linearGradient>
<linearGradient id="paint1_linear_2163_2739" x1="312.533" y1="92" x2="312.533" y2="144" gradientUnits="userSpaceOnUse">
<stop stop-color="#F26EBD"/>
<stop offset="1" stop-color="#A23D61"/>
</linearGradient>
<linearGradient id="paint2_linear_2163_2739" x1="312.533" y1="40" x2="312.533" y2="92" gradientUnits="userSpaceOnUse">
<stop stop-color="#F26EBD"/>
<stop offset="1" stop-color="#A23D61"/>
</linearGradient>
<linearGradient id="paint3_linear_2163_2739" x1="260.533" y1="40" x2="260.533" y2="92" gradientUnits="userSpaceOnUse">
<stop stop-color="#F26EBD"/>
<stop offset="1" stop-color="#A23D61"/>
</linearGradient>
<linearGradient id="paint4_linear_2163_2739" x1="364.533" y1="40" x2="364.533" y2="92" gradientUnits="userSpaceOnUse">
<stop stop-color="#F26EBD"/>
<stop offset="1" stop-color="#A23D61"/>
</linearGradient>
<linearGradient id="paint5_linear_2163_2739" x1="104.533" y1="144" x2="104.533" y2="196" gradientUnits="userSpaceOnUse">
<stop stop-color="#BE5EA9"/>
<stop offset="1" stop-color="#AB4CC2"/>
</linearGradient>
<linearGradient id="paint6_linear_2163_2739" x1="364.533" y1="144" x2="364.533" y2="196" gradientUnits="userSpaceOnUse">
<stop stop-color="#DCAE37"/>
<stop offset="1" stop-color="#DC8637"/>
</linearGradient>
<linearGradient id="paint7_linear_2163_2739" x1="416.533" y1="144" x2="416.533" y2="196" gradientUnits="userSpaceOnUse">
<stop stop-color="#54B3DD"/>
<stop offset="1" stop-color="#548BDD"/>
</linearGradient>
<linearGradient id="paint8_linear_2163_2739" x1="208.533" y1="196" x2="208.533" y2="248" gradientUnits="userSpaceOnUse">
<stop stop-color="#E97E42"/>
<stop offset="1" stop-color="#A3422D"/>
</linearGradient>
<linearGradient id="paint9_linear_2163_2739" x1="468.533" y1="196" x2="468.533" y2="248" gradientUnits="userSpaceOnUse">
<stop stop-color="#A6C64B"/>
<stop offset="1" stop-color="#3F9948"/>
</linearGradient>
<linearGradient id="paint10_linear_2163_2739" x1="520.533" y1="196" x2="520.533" y2="248" gradientUnits="userSpaceOnUse">
<stop stop-color="#A6C64B"/>
<stop offset="1" stop-color="#3F9948"/>
</linearGradient>
<linearGradient id="paint11_linear_2163_2739" x1="104.533" y1="196" x2="104.533" y2="248" gradientUnits="userSpaceOnUse">
<stop stop-color="#BE5EA9"/>
<stop offset="1" stop-color="#AB4CC2"/>
</linearGradient>
<linearGradient id="paint12_linear_2163_2739" x1="104.533" y1="196" x2="104.533" y2="248" gradientUnits="userSpaceOnUse">
<stop stop-color="#BE5EA9"/>
<stop offset="1" stop-color="#AB4CC2"/>
</linearGradient>
<linearGradient id="paint13_linear_2163_2739" x1="208.533" y1="248" x2="208.533" y2="300" gradientUnits="userSpaceOnUse">
<stop stop-color="#E97E42"/>
<stop offset="1" stop-color="#A3422D"/>
</linearGradient>
<linearGradient id="paint14_linear_2163_2739" x1="156.533" y1="248" x2="156.533" y2="300" gradientUnits="userSpaceOnUse">
<stop stop-color="#BE5EA9"/>
<stop offset="1" stop-color="#AB4CC2"/>
</linearGradient>
<linearGradient id="paint15_linear_2163_2739" x1="468.533" y1="248" x2="468.533" y2="300" gradientUnits="userSpaceOnUse">
<stop stop-color="#A6C64B"/>
<stop offset="1" stop-color="#3F9948"/>
</linearGradient>
<linearGradient id="paint16_linear_2163_2739" x1="520.533" y1="248" x2="520.533" y2="300" gradientUnits="userSpaceOnUse">
<stop stop-color="#A6C64B"/>
<stop offset="1" stop-color="#3F9948"/>
</linearGradient>
<linearGradient id="paint17_linear_2163_2739" x1="104.533" y1="248" x2="104.533" y2="300" gradientUnits="userSpaceOnUse">
<stop stop-color="#BE5EA9"/>
<stop offset="1" stop-color="#AB4CC2"/>
</linearGradient>
<linearGradient id="paint18_linear_2163_2739" x1="260.533" y1="248" x2="260.533" y2="300" gradientUnits="userSpaceOnUse">
<stop stop-color="#E97E42"/>
<stop offset="1" stop-color="#A3422D"/>
</linearGradient>
<linearGradient id="paint19_linear_2163_2739" x1="364.533" y1="248" x2="364.533" y2="300" gradientUnits="userSpaceOnUse">
<stop stop-color="#DCAE37"/>
<stop offset="1" stop-color="#DC8637"/>
</linearGradient>
<linearGradient id="paint20_linear_2163_2739" x1="416.533" y1="248" x2="416.533" y2="300" gradientUnits="userSpaceOnUse">
<stop stop-color="#54B3DD"/>
<stop offset="1" stop-color="#548BDD"/>
</linearGradient>
<linearGradient id="paint21_linear_2163_2739" x1="364.533" y1="196" x2="364.533" y2="248" gradientUnits="userSpaceOnUse">
<stop stop-color="#DCAE37"/>
<stop offset="1" stop-color="#DC8637"/>
</linearGradient>
<linearGradient id="paint22_linear_2163_2739" x1="416.533" y1="196" x2="416.533" y2="248" gradientUnits="userSpaceOnUse">
<stop stop-color="#54B3DD"/>
<stop offset="1" stop-color="#548BDD"/>
</linearGradient>
<linearGradient id="paint23_linear_2163_2739" x1="312.533" y1="248" x2="312.533" y2="300" gradientUnits="userSpaceOnUse">
<stop stop-color="#DCAE37"/>
<stop offset="1" stop-color="#DC8637"/>
</linearGradient>
<linearGradient id="paint24_linear_2163_2739" x1="260.533" y1="196" x2="260.533" y2="248" gradientUnits="userSpaceOnUse">
<stop stop-color="#789EFF"/>
<stop offset="1" stop-color="#9378FF"/>
</linearGradient>
<linearGradient id="paint25_linear_2163_2739" x1="312.533" y1="196" x2="312.533" y2="248" gradientUnits="userSpaceOnUse">
<stop stop-color="#789EFF"/>
<stop offset="1" stop-color="#9378FF"/>
</linearGradient>
<linearGradient id="paint26_linear_2163_2739" x1="260.533" y1="144" x2="260.533" y2="196" gradientUnits="userSpaceOnUse">
<stop stop-color="#789EFF"/>
<stop offset="1" stop-color="#9378FF"/>
</linearGradient>
<linearGradient id="paint27_linear_2163_2739" x1="4.00878" y1="100653" x2="637.009" y2="100653" gradientUnits="userSpaceOnUse">
<stop stop-color="#BD89FF" stop-opacity="0"/>
<stop offset="0.125" stop-color="#BD89FF"/>
<stop offset="0.875" stop-color="#89FFEA"/>
<stop offset="1" stop-color="#89FFEA" stop-opacity="0"/>
</linearGradient>
<linearGradient id="paint28_linear_2163_2739" x1="3.99122" y1="100627" x2="636.991" y2="100627" gradientUnits="userSpaceOnUse">
<stop stop-color="#BD89FF" stop-opacity="0"/>
<stop offset="0.125" stop-color="#BD89FF"/>
<stop offset="0.875" stop-color="#89FFEA"/>
<stop offset="1" stop-color="#89FFEA" stop-opacity="0"/>
</linearGradient>
<linearGradient id="paint29_linear_2163_2739" x1="3.99122" y1="100679" x2="636.991" y2="100679" gradientUnits="userSpaceOnUse">
<stop stop-color="#BD89FF" stop-opacity="0"/>
<stop offset="0.125" stop-color="#BD89FF"/>
<stop offset="0.875" stop-color="#89FFEA"/>
<stop offset="1" stop-color="#89FFEA" stop-opacity="0"/>
</linearGradient>
<linearGradient id="paint30_linear_2163_2739" x1="56.9926" y1="100627" x2="636.993" y2="100627" gradientUnits="userSpaceOnUse">
<stop stop-color="#BD89FF" stop-opacity="0"/>
<stop offset="0.125" stop-color="#BD89FF"/>
<stop offset="0.875" stop-color="#89FFEA"/>
<stop offset="1" stop-color="#89FFEA" stop-opacity="0"/>
</linearGradient>
<linearGradient id="paint31_linear_2163_2739" x1="56.9926" y1="100679" x2="636.993" y2="100679" gradientUnits="userSpaceOnUse">
<stop stop-color="#BD89FF" stop-opacity="0"/>
<stop offset="0.125" stop-color="#BD89FF"/>
<stop offset="0.875" stop-color="#89FFEA"/>
<stop offset="1" stop-color="#89FFEA" stop-opacity="0"/>
</linearGradient>
<clipPath id="clip0_2163_2739">
<rect width="632.667" height="52.0001" fill="white" transform="translate(4 248)"/>
</clipPath>
</defs>
</svg>
